<?xml version="1.0" encoding="utf-8" standalone="no"?>
<!DOCTYPE svg PUBLIC "-//W3C//DTD SVG 1.1//EN"
  "http://www.w3.org/Graphics/SVG/1.1/DTD/svg11.dtd">
<svg height="504pt" version="1.1" viewBox="0 0 504 504" width="504pt" xmlns="http://www.w3.org/2000/svg" xmlns:xlink="http://www.w3.org/1999/xlink">
 <metadata>
  <rdf:RDF xmlns:cc="http://creativecommons.org/ns#" xmlns:dc="http://purl.org/dc/elements/1.1/" xmlns:rdf="http://www.w3.org/1999/02/22-rdf-syntax-ns#">
   <cc:Work>
    <dc:type rdf:resource="http://purl.org/dc/dcmitype/StillImage"/>
    <dc:date>2021-07-04T23:56:49.878873</dc:date>
    <dc:format>image/svg+xml</dc:format>
    <dc:creator>
     <cc:Agent>
      <dc:title>Matplotlib v3.4.2, https://matplotlib.org/</dc:title>
     </cc:Agent>
    </dc:creator>
   </cc:Work>
  </rdf:RDF>
 </metadata>
 <defs>
  <style type="text/css">*{stroke-linecap:butt;stroke-linejoin:round;}</style>
 </defs>
 <g id="figure_1">
  <g id="patch_1">
   <path d="M 0 504 
L 504 504 
L 504 0 
L 0 0 
z
" style="fill:#ffffff;"/>
  </g>
  <g id="axes_1">
   <g id="patch_2">
    <path d="M 63 448.56 
L 453.6 448.56 
L 453.6 60.48 
L 63 60.48 
z
" style="fill:#ffffff;"/>
   </g>
   <g id="matplotlib.axis_1">
    <g id="xtick_1">
     <g id="line2d_1">
      <path clip-path="url(#p564a11b57e)" d="M 80.754545 448.56 
L 80.754545 60.48 
" style="fill:none;stroke:#b0b0b0;stroke-linecap:square;stroke-width:0.8;"/>
     </g>
     <g id="line2d_2">
      <defs>
       <path d="M 0 0 
L 0 3.5 
" id="m36ccc74e19" style="stroke:#000000;stroke-width:0.8;"/>
      </defs>
      <g>
       <use style="stroke:#000000;stroke-width:0.8;" x="80.754545" xlink:href="#m36ccc74e19" y="448.56"/>
      </g>
     </g>
     <g id="text_1">
      <!-- 0 -->
      <g transform="translate(77.573295 463.158437)scale(0.1 -0.1)">
       <defs>
        <path d="M 2034 4250 
Q 1547 4250 1301 3770 
Q 1056 3291 1056 2328 
Q 1056 1369 1301 889 
Q 1547 409 2034 409 
Q 2525 409 2770 889 
Q 3016 1369 3016 2328 
Q 3016 3291 2770 3770 
Q 2525 4250 2034 4250 
z
M 2034 4750 
Q 2819 4750 3233 4129 
Q 3647 3509 3647 2328 
Q 3647 1150 3233 529 
Q 2819 -91 2034 -91 
Q 1250 -91 836 529 
Q 422 1150 422 2328 
Q 422 3509 836 4129 
Q 1250 4750 2034 4750 
z
" id="DejaVuSans-30" transform="scale(0.015625)"/>
       </defs>
       <use xlink:href="#DejaVuSans-30"/>
      </g>
     </g>
    </g>
    <g id="xtick_2">
     <g id="line2d_3">
      <path clip-path="url(#p564a11b57e)" d="M 143.713926 448.56 
L 143.713926 60.48 
" style="fill:none;stroke:#b0b0b0;stroke-linecap:square;stroke-width:0.8;"/>
     </g>
     <g id="line2d_4">
      <g>
       <use style="stroke:#000000;stroke-width:0.8;" x="143.713926" xlink:href="#m36ccc74e19" y="448.56"/>
      </g>
     </g>
     <g id="text_2">
      <!-- 50 -->
      <g transform="translate(137.351426 463.158437)scale(0.1 -0.1)">
       <defs>
        <path d="M 691 4666 
L 3169 4666 
L 3169 4134 
L 1269 4134 
L 1269 2991 
Q 1406 3038 1543 3061 
Q 1681 3084 1819 3084 
Q 2600 3084 3056 2656 
Q 3513 2228 3513 1497 
Q 3513 744 3044 326 
Q 2575 -91 1722 -91 
Q 1428 -91 1123 -41 
Q 819 9 494 109 
L 494 744 
Q 775 591 1075 516 
Q 1375 441 1709 441 
Q 2250 441 2565 725 
Q 2881 1009 2881 1497 
Q 2881 1984 2565 2268 
Q 2250 2553 1709 2553 
Q 1456 2553 1204 2497 
Q 953 2441 691 2322 
L 691 4666 
z
" id="DejaVuSans-35" transform="scale(0.015625)"/>
       </defs>
       <use xlink:href="#DejaVuSans-35"/>
       <use x="63.623047" xlink:href="#DejaVuSans-30"/>
      </g>
     </g>
    </g>
    <g id="xtick_3">
     <g id="line2d_5">
      <path clip-path="url(#p564a11b57e)" d="M 206.673308 448.56 
L 206.673308 60.48 
" style="fill:none;stroke:#b0b0b0;stroke-linecap:square;stroke-width:0.8;"/>
     </g>
     <g id="line2d_6">
      <g>
       <use style="stroke:#000000;stroke-width:0.8;" x="206.673308" xlink:href="#m36ccc74e19" y="448.56"/>
      </g>
     </g>
     <g id="text_3">
      <!-- 100 -->
      <g transform="translate(197.129558 463.158437)scale(0.1 -0.1)">
       <defs>
        <path d="M 794 531 
L 1825 531 
L 1825 4091 
L 703 3866 
L 703 4441 
L 1819 4666 
L 2450 4666 
L 2450 531 
L 3481 531 
L 3481 0 
L 794 0 
L 794 531 
z
" id="DejaVuSans-31" transform="scale(0.015625)"/>
       </defs>
       <use xlink:href="#DejaVuSans-31"/>
       <use x="63.623047" xlink:href="#DejaVuSans-30"/>
       <use x="127.246094" xlink:href="#DejaVuSans-30"/>
      </g>
     </g>
    </g>
    <g id="xtick_4">
     <g id="line2d_7">
      <path clip-path="url(#p564a11b57e)" d="M 269.632689 448.56 
L 269.632689 60.48 
" style="fill:none;stroke:#b0b0b0;stroke-linecap:square;stroke-width:0.8;"/>
     </g>
     <g id="line2d_8">
      <g>
       <use style="stroke:#000000;stroke-width:0.8;" x="269.632689" xlink:href="#m36ccc74e19" y="448.56"/>
      </g>
     </g>
     <g id="text_4">
      <!-- 150 -->
      <g transform="translate(260.088939 463.158437)scale(0.1 -0.1)">
       <use xlink:href="#DejaVuSans-31"/>
       <use x="63.623047" xlink:href="#DejaVuSans-35"/>
       <use x="127.246094" xlink:href="#DejaVuSans-30"/>
      </g>
     </g>
    </g>
    <g id="xtick_5">
     <g id="line2d_9">
      <path clip-path="url(#p564a11b57e)" d="M 332.59207 448.56 
L 332.59207 60.48 
" style="fill:none;stroke:#b0b0b0;stroke-linecap:square;stroke-width:0.8;"/>
     </g>
     <g id="line2d_10">
      <g>
       <use style="stroke:#000000;stroke-width:0.8;" x="332.59207" xlink:href="#m36ccc74e19" y="448.56"/>
      </g>
     </g>
     <g id="text_5">
      <!-- 200 -->
      <g transform="translate(323.04832 463.158437)scale(0.1 -0.1)">
       <defs>
        <path d="M 1228 531 
L 3431 531 
L 3431 0 
L 469 0 
L 469 531 
Q 828 903 1448 1529 
Q 2069 2156 2228 2338 
Q 2531 2678 2651 2914 
Q 2772 3150 2772 3378 
Q 2772 3750 2511 3984 
Q 2250 4219 1831 4219 
Q 1534 4219 1204 4116 
Q 875 4013 500 3803 
L 500 4441 
Q 881 4594 1212 4672 
Q 1544 4750 1819 4750 
Q 2544 4750 2975 4387 
Q 3406 4025 3406 3419 
Q 3406 3131 3298 2873 
Q 3191 2616 2906 2266 
Q 2828 2175 2409 1742 
Q 1991 1309 1228 531 
z
" id="DejaVuSans-32" transform="scale(0.015625)"/>
       </defs>
       <use xlink:href="#DejaVuSans-32"/>
       <use x="63.623047" xlink:href="#DejaVuSans-30"/>
       <use x="127.246094" xlink:href="#DejaVuSans-30"/>
      </g>
     </g>
    </g>
    <g id="xtick_6">
     <g id="line2d_11">
      <path clip-path="url(#p564a11b57e)" d="M 395.551451 448.56 
L 395.551451 60.48 
" style="fill:none;stroke:#b0b0b0;stroke-linecap:square;stroke-width:0.8;"/>
     </g>
     <g id="line2d_12">
      <g>
       <use style="stroke:#000000;stroke-width:0.8;" x="395.551451" xlink:href="#m36ccc74e19" y="448.56"/>
      </g>
     </g>
     <g id="text_6">
      <!-- 250 -->
      <g transform="translate(386.007701 463.158437)scale(0.1 -0.1)">
       <use xlink:href="#DejaVuSans-32"/>
       <use x="63.623047" xlink:href="#DejaVuSans-35"/>
       <use x="127.246094" xlink:href="#DejaVuSans-30"/>
      </g>
     </g>
    </g>
    <g id="text_7">
     <!-- Iteration -->
     <g transform="translate(237.091406 476.836563)scale(0.1 -0.1)">
      <defs>
       <path d="M 628 4666 
L 1259 4666 
L 1259 0 
L 628 0 
L 628 4666 
z
" id="DejaVuSans-49" transform="scale(0.015625)"/>
       <path d="M 1172 4494 
L 1172 3500 
L 2356 3500 
L 2356 3053 
L 1172 3053 
L 1172 1153 
Q 1172 725 1289 603 
Q 1406 481 1766 481 
L 2356 481 
L 2356 0 
L 1766 0 
Q 1100 0 847 248 
Q 594 497 594 1153 
L 594 3053 
L 172 3053 
L 172 3500 
L 594 3500 
L 594 4494 
L 1172 4494 
z
" id="DejaVuSans-74" transform="scale(0.015625)"/>
       <path d="M 3597 1894 
L 3597 1613 
L 953 1613 
Q 991 1019 1311 708 
Q 1631 397 2203 397 
Q 2534 397 2845 478 
Q 3156 559 3463 722 
L 3463 178 
Q 3153 47 2828 -22 
Q 2503 -91 2169 -91 
Q 1331 -91 842 396 
Q 353 884 353 1716 
Q 353 2575 817 3079 
Q 1281 3584 2069 3584 
Q 2775 3584 3186 3129 
Q 3597 2675 3597 1894 
z
M 3022 2063 
Q 3016 2534 2758 2815 
Q 2500 3097 2075 3097 
Q 1594 3097 1305 2825 
Q 1016 2553 972 2059 
L 3022 2063 
z
" id="DejaVuSans-65" transform="scale(0.015625)"/>
       <path d="M 2631 2963 
Q 2534 3019 2420 3045 
Q 2306 3072 2169 3072 
Q 1681 3072 1420 2755 
Q 1159 2438 1159 1844 
L 1159 0 
L 581 0 
L 581 3500 
L 1159 3500 
L 1159 2956 
Q 1341 3275 1631 3429 
Q 1922 3584 2338 3584 
Q 2397 3584 2469 3576 
Q 2541 3569 2628 3553 
L 2631 2963 
z
" id="DejaVuSans-72" transform="scale(0.015625)"/>
       <path d="M 2194 1759 
Q 1497 1759 1228 1600 
Q 959 1441 959 1056 
Q 959 750 1161 570 
Q 1363 391 1709 391 
Q 2188 391 2477 730 
Q 2766 1069 2766 1631 
L 2766 1759 
L 2194 1759 
z
M 3341 1997 
L 3341 0 
L 2766 0 
L 2766 531 
Q 2569 213 2275 61 
Q 1981 -91 1556 -91 
Q 1019 -91 701 211 
Q 384 513 384 1019 
Q 384 1609 779 1909 
Q 1175 2209 1959 2209 
L 2766 2209 
L 2766 2266 
Q 2766 2663 2505 2880 
Q 2244 3097 1772 3097 
Q 1472 3097 1187 3025 
Q 903 2953 641 2809 
L 641 3341 
Q 956 3463 1253 3523 
Q 1550 3584 1831 3584 
Q 2591 3584 2966 3190 
Q 3341 2797 3341 1997 
z
" id="DejaVuSans-61" transform="scale(0.015625)"/>
       <path d="M 603 3500 
L 1178 3500 
L 1178 0 
L 603 0 
L 603 3500 
z
M 603 4863 
L 1178 4863 
L 1178 4134 
L 603 4134 
L 603 4863 
z
" id="DejaVuSans-69" transform="scale(0.015625)"/>
       <path d="M 1959 3097 
Q 1497 3097 1228 2736 
Q 959 2375 959 1747 
Q 959 1119 1226 758 
Q 1494 397 1959 397 
Q 2419 397 2687 759 
Q 2956 1122 2956 1747 
Q 2956 2369 2687 2733 
Q 2419 3097 1959 3097 
z
M 1959 3584 
Q 2709 3584 3137 3096 
Q 3566 2609 3566 1747 
Q 3566 888 3137 398 
Q 2709 -91 1959 -91 
Q 1206 -91 779 398 
Q 353 888 353 1747 
Q 353 2609 779 3096 
Q 1206 3584 1959 3584 
z
" id="DejaVuSans-6f" transform="scale(0.015625)"/>
       <path d="M 3513 2113 
L 3513 0 
L 2938 0 
L 2938 2094 
Q 2938 2591 2744 2837 
Q 2550 3084 2163 3084 
Q 1697 3084 1428 2787 
Q 1159 2491 1159 1978 
L 1159 0 
L 581 0 
L 581 3500 
L 1159 3500 
L 1159 2956 
Q 1366 3272 1645 3428 
Q 1925 3584 2291 3584 
Q 2894 3584 3203 3211 
Q 3513 2838 3513 2113 
z
" id="DejaVuSans-6e" transform="scale(0.015625)"/>
      </defs>
      <use xlink:href="#DejaVuSans-49"/>
      <use x="29.492188" xlink:href="#DejaVuSans-74"/>
      <use x="68.701172" xlink:href="#DejaVuSans-65"/>
      <use x="130.224609" xlink:href="#DejaVuSans-72"/>
      <use x="171.337891" xlink:href="#DejaVuSans-61"/>
      <use x="232.617188" xlink:href="#DejaVuSans-74"/>
      <use x="271.826172" xlink:href="#DejaVuSans-69"/>
      <use x="299.609375" xlink:href="#DejaVuSans-6f"/>
      <use x="360.791016" xlink:href="#DejaVuSans-6e"/>
     </g>
    </g>
   </g>
   <g id="matplotlib.axis_2">
    <g id="ytick_1">
     <g id="line2d_13">
      <path clip-path="url(#p564a11b57e)" d="M 63 430.92 
L 453.6 430.92 
" style="fill:none;stroke:#b0b0b0;stroke-linecap:square;stroke-width:0.8;"/>
     </g>
     <g id="line2d_14">
      <defs>
       <path d="M 0 0 
L -3.5 0 
" id="m732aa4dfd1" style="stroke:#000000;stroke-width:0.8;"/>
      </defs>
      <g>
       <use style="stroke:#000000;stroke-width:0.8;" x="63" xlink:href="#m732aa4dfd1" y="430.92"/>
      </g>
     </g>
     <g id="text_8">
      <!-- 0 -->
      <g transform="translate(49.6375 434.719219)scale(0.1 -0.1)">
       <use xlink:href="#DejaVuSans-30"/>
      </g>
     </g>
    </g>
    <g id="ytick_2">
     <g id="line2d_15">
      <path clip-path="url(#p564a11b57e)" d="M 63 352.52 
L 453.6 352.52 
" style="fill:none;stroke:#b0b0b0;stroke-linecap:square;stroke-width:0.8;"/>
     </g>
     <g id="line2d_16">
      <g>
       <use style="stroke:#000000;stroke-width:0.8;" x="63" xlink:href="#m732aa4dfd1" y="352.52"/>
      </g>
     </g>
     <g id="text_9">
      <!-- 200 -->
      <g transform="translate(36.9125 356.319219)scale(0.1 -0.1)">
       <use xlink:href="#DejaVuSans-32"/>
       <use x="63.623047" xlink:href="#DejaVuSans-30"/>
       <use x="127.246094" xlink:href="#DejaVuSans-30"/>
      </g>
     </g>
    </g>
    <g id="ytick_3">
     <g id="line2d_17">
      <path clip-path="url(#p564a11b57e)" d="M 63 274.12 
L 453.6 274.12 
" style="fill:none;stroke:#b0b0b0;stroke-linecap:square;stroke-width:0.8;"/>
     </g>
     <g id="line2d_18">
      <g>
       <use style="stroke:#000000;stroke-width:0.8;" x="63" xlink:href="#m732aa4dfd1" y="274.12"/>
      </g>
     </g>
     <g id="text_10">
      <!-- 400 -->
      <g transform="translate(36.9125 277.919219)scale(0.1 -0.1)">
       <defs>
        <path d="M 2419 4116 
L 825 1625 
L 2419 1625 
L 2419 4116 
z
M 2253 4666 
L 3047 4666 
L 3047 1625 
L 3713 1625 
L 3713 1100 
L 3047 1100 
L 3047 0 
L 2419 0 
L 2419 1100 
L 313 1100 
L 313 1709 
L 2253 4666 
z
" id="DejaVuSans-34" transform="scale(0.015625)"/>
       </defs>
       <use xlink:href="#DejaVuSans-34"/>
       <use x="63.623047" xlink:href="#DejaVuSans-30"/>
       <use x="127.246094" xlink:href="#DejaVuSans-30"/>
      </g>
     </g>
    </g>
    <g id="ytick_4">
     <g id="line2d_19">
      <path clip-path="url(#p564a11b57e)" d="M 63 195.72 
L 453.6 195.72 
" style="fill:none;stroke:#b0b0b0;stroke-linecap:square;stroke-width:0.8;"/>
     </g>
     <g id="line2d_20">
      <g>
       <use style="stroke:#000000;stroke-width:0.8;" x="63" xlink:href="#m732aa4dfd1" y="195.72"/>
      </g>
     </g>
     <g id="text_11">
      <!-- 600 -->
      <g transform="translate(36.9125 199.519219)scale(0.1 -0.1)">
       <defs>
        <path d="M 2113 2584 
Q 1688 2584 1439 2293 
Q 1191 2003 1191 1497 
Q 1191 994 1439 701 
Q 1688 409 2113 409 
Q 2538 409 2786 701 
Q 3034 994 3034 1497 
Q 3034 2003 2786 2293 
Q 2538 2584 2113 2584 
z
M 3366 4563 
L 3366 3988 
Q 3128 4100 2886 4159 
Q 2644 4219 2406 4219 
Q 1781 4219 1451 3797 
Q 1122 3375 1075 2522 
Q 1259 2794 1537 2939 
Q 1816 3084 2150 3084 
Q 2853 3084 3261 2657 
Q 3669 2231 3669 1497 
Q 3669 778 3244 343 
Q 2819 -91 2113 -91 
Q 1303 -91 875 529 
Q 447 1150 447 2328 
Q 447 3434 972 4092 
Q 1497 4750 2381 4750 
Q 2619 4750 2861 4703 
Q 3103 4656 3366 4563 
z
" id="DejaVuSans-36" transform="scale(0.015625)"/>
       </defs>
       <use xlink:href="#DejaVuSans-36"/>
       <use x="63.623047" xlink:href="#DejaVuSans-30"/>
       <use x="127.246094" xlink:href="#DejaVuSans-30"/>
      </g>
     </g>
    </g>
    <g id="ytick_5">
     <g id="line2d_21">
      <path clip-path="url(#p564a11b57e)" d="M 63 117.32 
L 453.6 117.32 
" style="fill:none;stroke:#b0b0b0;stroke-linecap:square;stroke-width:0.8;"/>
     </g>
     <g id="line2d_22">
      <g>
       <use style="stroke:#000000;stroke-width:0.8;" x="63" xlink:href="#m732aa4dfd1" y="117.32"/>
      </g>
     </g>
     <g id="text_12">
      <!-- 800 -->
      <g transform="translate(36.9125 121.119219)scale(0.1 -0.1)">
       <defs>
        <path d="M 2034 2216 
Q 1584 2216 1326 1975 
Q 1069 1734 1069 1313 
Q 1069 891 1326 650 
Q 1584 409 2034 409 
Q 2484 409 2743 651 
Q 3003 894 3003 1313 
Q 3003 1734 2745 1975 
Q 2488 2216 2034 2216 
z
M 1403 2484 
Q 997 2584 770 2862 
Q 544 3141 544 3541 
Q 544 4100 942 4425 
Q 1341 4750 2034 4750 
Q 2731 4750 3128 4425 
Q 3525 4100 3525 3541 
Q 3525 3141 3298 2862 
Q 3072 2584 2669 2484 
Q 3125 2378 3379 2068 
Q 3634 1759 3634 1313 
Q 3634 634 3220 271 
Q 2806 -91 2034 -91 
Q 1263 -91 848 271 
Q 434 634 434 1313 
Q 434 1759 690 2068 
Q 947 2378 1403 2484 
z
M 1172 3481 
Q 1172 3119 1398 2916 
Q 1625 2713 2034 2713 
Q 2441 2713 2670 2916 
Q 2900 3119 2900 3481 
Q 2900 3844 2670 4047 
Q 2441 4250 2034 4250 
Q 1625 4250 1398 4047 
Q 1172 3844 1172 3481 
z
" id="DejaVuSans-38" transform="scale(0.015625)"/>
       </defs>
       <use xlink:href="#DejaVuSans-38"/>
       <use x="63.623047" xlink:href="#DejaVuSans-30"/>
       <use x="127.246094" xlink:href="#DejaVuSans-30"/>
      </g>
     </g>
    </g>
    <g id="text_13">
     <!-- Node count -->
     <g transform="translate(30.832812 283.266094)rotate(-90)scale(0.1 -0.1)">
      <defs>
       <path d="M 628 4666 
L 1478 4666 
L 3547 763 
L 3547 4666 
L 4159 4666 
L 4159 0 
L 3309 0 
L 1241 3903 
L 1241 0 
L 628 0 
L 628 4666 
z
" id="DejaVuSans-4e" transform="scale(0.015625)"/>
       <path d="M 2906 2969 
L 2906 4863 
L 3481 4863 
L 3481 0 
L 2906 0 
L 2906 525 
Q 2725 213 2448 61 
Q 2172 -91 1784 -91 
Q 1150 -91 751 415 
Q 353 922 353 1747 
Q 353 2572 751 3078 
Q 1150 3584 1784 3584 
Q 2172 3584 2448 3432 
Q 2725 3281 2906 2969 
z
M 947 1747 
Q 947 1113 1208 752 
Q 1469 391 1925 391 
Q 2381 391 2643 752 
Q 2906 1113 2906 1747 
Q 2906 2381 2643 2742 
Q 2381 3103 1925 3103 
Q 1469 3103 1208 2742 
Q 947 2381 947 1747 
z
" id="DejaVuSans-64" transform="scale(0.015625)"/>
       <path id="DejaVuSans-20" transform="scale(0.015625)"/>
       <path d="M 3122 3366 
L 3122 2828 
Q 2878 2963 2633 3030 
Q 2388 3097 2138 3097 
Q 1578 3097 1268 2742 
Q 959 2388 959 1747 
Q 959 1106 1268 751 
Q 1578 397 2138 397 
Q 2388 397 2633 464 
Q 2878 531 3122 666 
L 3122 134 
Q 2881 22 2623 -34 
Q 2366 -91 2075 -91 
Q 1284 -91 818 406 
Q 353 903 353 1747 
Q 353 2603 823 3093 
Q 1294 3584 2113 3584 
Q 2378 3584 2631 3529 
Q 2884 3475 3122 3366 
z
" id="DejaVuSans-63" transform="scale(0.015625)"/>
       <path d="M 544 1381 
L 544 3500 
L 1119 3500 
L 1119 1403 
Q 1119 906 1312 657 
Q 1506 409 1894 409 
Q 2359 409 2629 706 
Q 2900 1003 2900 1516 
L 2900 3500 
L 3475 3500 
L 3475 0 
L 2900 0 
L 2900 538 
Q 2691 219 2414 64 
Q 2138 -91 1772 -91 
Q 1169 -91 856 284 
Q 544 659 544 1381 
z
M 1991 3584 
L 1991 3584 
z
" id="DejaVuSans-75" transform="scale(0.015625)"/>
      </defs>
      <use xlink:href="#DejaVuSans-4e"/>
      <use x="74.804688" xlink:href="#DejaVuSans-6f"/>
      <use x="135.986328" xlink:href="#DejaVuSans-64"/>
      <use x="199.462891" xlink:href="#DejaVuSans-65"/>
      <use x="260.986328" xlink:href="#DejaVuSans-20"/>
      <use x="292.773438" xlink:href="#DejaVuSans-63"/>
      <use x="347.753906" xlink:href="#DejaVuSans-6f"/>
      <use x="408.935547" xlink:href="#DejaVuSans-75"/>
      <use x="472.314453" xlink:href="#DejaVuSans-6e"/>
      <use x="535.693359" xlink:href="#DejaVuSans-74"/>
     </g>
    </g>
   </g>
   <g id="line2d_23">
    <path clip-path="url(#p564a11b57e)" d="M 80.754545 78.12 
L 82.013733 80.864 
L 83.272921 82.824 
L 84.532108 84 
L 85.791296 87.528 
L 87.050484 89.096 
L 88.309671 93.408 
L 89.568859 96.544 
L 90.828046 100.072 
L 93.346422 108.696 
L 94.605609 111.048 
L 95.864797 115.752 
L 97.123985 118.888 
L 99.64236 122.024 
L 100.901547 123.984 
L 102.160735 126.728 
L 103.419923 128.688 
L 104.67911 131.824 
L 105.938298 134.568 
L 107.197485 138.488 
L 108.456673 140.448 
L 109.715861 143.192 
L 110.975048 145.152 
L 112.234236 148.288 
L 114.752611 152.208 
L 116.011799 153.776 
L 117.270986 156.128 
L 119.789362 163.184 
L 122.307737 171.808 
L 123.566925 174.944 
L 124.826112 176.904 
L 126.0853 180.04 
L 127.344487 182.392 
L 128.603675 183.568 
L 129.862863 186.704 
L 131.12205 187.88 
L 132.381238 191.016 
L 133.640426 192.192 
L 134.899613 196.504 
L 136.158801 199.64 
L 137.417988 199.64 
L 138.677176 200.816 
L 139.936364 201.6 
L 142.454739 204.736 
L 143.713926 207.088 
L 144.973114 209.832 
L 146.232302 211.4 
L 147.491489 213.752 
L 148.750677 215.32 
L 150.009865 216.496 
L 151.269052 218.064 
L 152.52824 220.024 
L 153.787427 221.2 
L 156.305803 225.12 
L 157.56499 225.512 
L 160.083366 227.864 
L 161.342553 230.608 
L 162.601741 232.568 
L 163.860928 234.136 
L 165.120116 234.92 
L 167.638491 237.272 
L 168.897679 240.016 
L 170.156867 240.8 
L 171.416054 241.192 
L 172.675242 242.76 
L 173.934429 243.152 
L 175.193617 244.72 
L 176.452805 246.68 
L 177.711992 247.072 
L 178.97118 247.856 
L 180.230368 250.992 
L 181.489555 252.168 
L 182.748743 256.088 
L 184.00793 257.264 
L 185.267118 259.224 
L 187.785493 261.576 
L 189.044681 261.968 
L 190.303868 263.144 
L 191.563056 263.536 
L 192.822244 265.888 
L 195.340619 267.456 
L 196.599807 267.848 
L 199.118182 270.2 
L 200.377369 271.768 
L 201.636557 274.12 
L 202.895745 275.296 
L 204.154932 277.256 
L 205.41412 279.608 
L 206.673308 280.784 
L 207.932495 282.352 
L 209.191683 282.744 
L 210.45087 283.528 
L 211.710058 284.704 
L 212.969246 286.664 
L 214.228433 287.84 
L 216.746809 287.84 
L 220.524371 291.368 
L 223.042747 292.936 
L 226.820309 297.64 
L 229.338685 299.208 
L 230.597872 300.384 
L 231.85706 300.776 
L 233.116248 300.776 
L 234.375435 302.736 
L 236.89381 303.52 
L 238.152998 304.696 
L 239.412186 305.48 
L 240.671373 305.48 
L 241.930561 305.872 
L 243.189749 305.872 
L 244.448936 306.264 
L 245.708124 306.264 
L 246.967311 307.048 
L 248.226499 307.048 
L 249.485687 308.224 
L 253.26325 309.4 
L 254.522437 309.4 
L 255.781625 310.576 
L 257.040812 310.968 
L 258.3 312.144 
L 260.818375 312.928 
L 262.077563 314.496 
L 264.595938 314.496 
L 265.855126 314.888 
L 269.632689 314.888 
L 270.891876 315.672 
L 272.151064 315.672 
L 273.410251 316.848 
L 274.669439 316.848 
L 277.187814 317.632 
L 278.447002 317.632 
L 279.70619 318.416 
L 280.965377 318.416 
L 282.224565 318.808 
L 283.483752 318.808 
L 286.002128 319.592 
L 287.261315 319.592 
L 288.520503 319.984 
L 289.779691 319.984 
L 291.038878 320.376 
L 294.816441 320.376 
L 296.075629 320.768 
L 303.630754 320.768 
L 304.889942 321.16 
L 307.408317 321.16 
L 308.667505 321.944 
L 313.704255 321.944 
L 314.963443 322.336 
L 320.000193 322.336 
L 321.259381 322.728 
L 340.147195 322.728 
L 341.406383 323.12 
L 390.5147 323.12 
L 391.773888 323.512 
L 409.402515 323.512 
L 410.661702 323.904 
L 435.845455 323.904 
L 435.845455 323.904 
" style="fill:none;stroke:#1f77b4;stroke-linecap:square;stroke-width:1.5;"/>
   </g>
   <g id="line2d_24">
    <path clip-path="url(#p564a11b57e)" d="M 80.754545 391.72 
L 83.272921 391.72 
L 84.532108 392.896 
L 85.791296 391.328 
L 87.050484 392.504 
L 89.568859 390.936 
L 90.828046 388.584 
L 92.087234 385.84 
L 93.346422 384.272 
L 94.605609 384.664 
L 95.864797 381.92 
L 97.123985 381.136 
L 98.383172 381.92 
L 99.64236 382.312 
L 100.901547 383.88 
L 103.419923 384.664 
L 104.67911 383.096 
L 107.197485 379.176 
L 108.456673 379.568 
L 109.715861 379.176 
L 110.975048 379.568 
L 112.234236 377.608 
L 113.493424 378.784 
L 114.752611 381.136 
L 116.011799 380.744 
L 117.270986 380.744 
L 118.530174 379.568 
L 119.789362 379.176 
L 121.048549 377.216 
L 122.307737 377.216 
L 124.826112 376.432 
L 126.0853 375.648 
L 127.344487 376.432 
L 128.603675 376.824 
L 129.862863 376.824 
L 131.12205 378.392 
L 132.381238 376.824 
L 133.640426 378.392 
L 134.899613 377.608 
L 136.158801 376.432 
L 137.417988 379.96 
L 138.677176 380.352 
L 139.936364 382.312 
L 141.195551 381.136 
L 142.454739 381.136 
L 143.713926 382.312 
L 144.973114 383.88 
L 147.491489 385.448 
L 148.750677 385.84 
L 150.009865 387.408 
L 151.269052 388.584 
L 152.52824 388.192 
L 155.046615 390.544 
L 156.305803 390.544 
L 157.56499 392.504 
L 158.824178 394.072 
L 160.083366 396.032 
L 161.342553 395.248 
L 162.601741 394.856 
L 163.860928 394.072 
L 165.120116 394.072 
L 166.379304 394.856 
L 167.638491 395.248 
L 168.897679 394.856 
L 170.156867 396.424 
L 171.416054 398.384 
L 172.675242 397.6 
L 173.934429 401.128 
L 175.193617 400.736 
L 176.452805 399.952 
L 177.711992 400.736 
L 178.97118 401.912 
L 180.230368 399.952 
L 181.489555 401.128 
L 182.748743 397.992 
L 184.00793 396.816 
L 185.267118 396.816 
L 187.785493 397.6 
L 189.044681 399.168 
L 190.303868 398.776 
L 191.563056 400.736 
L 192.822244 399.56 
L 194.081431 400.736 
L 195.340619 402.304 
L 197.858994 403.088 
L 199.118182 404.656 
L 200.377369 404.656 
L 201.636557 403.48 
L 204.154932 402.696 
L 205.41412 401.128 
L 209.191683 399.952 
L 210.45087 400.344 
L 211.710058 399.952 
L 212.969246 398.384 
L 214.228433 398.776 
L 215.487621 400.344 
L 216.746809 402.696 
L 218.005996 402.696 
L 219.265184 401.912 
L 223.042747 401.912 
L 224.301934 402.304 
L 225.561122 401.128 
L 226.820309 401.52 
L 228.079497 404.264 
L 229.338685 404.656 
L 230.597872 404.656 
L 231.85706 406.224 
L 233.116248 407.008 
L 234.375435 405.44 
L 235.634623 405.832 
L 236.89381 406.616 
L 238.152998 406.224 
L 239.412186 407.4 
L 243.189749 409.752 
L 244.448936 409.752 
L 245.708124 410.144 
L 246.967311 410.144 
L 248.226499 411.712 
L 249.485687 412.496 
L 250.744874 412.888 
L 252.004062 414.064 
L 253.26325 414.064 
L 254.522437 414.456 
L 255.781625 413.672 
L 257.040812 415.632 
L 258.3 415.24 
L 259.559188 415.24 
L 260.818375 416.024 
L 262.077563 415.632 
L 264.595938 417.2 
L 265.855126 417.2 
L 267.114313 418.768 
L 268.373501 418.768 
L 269.632689 419.552 
L 270.891876 419.16 
L 272.151064 419.16 
L 273.410251 418.376 
L 275.928627 419.944 
L 277.187814 419.552 
L 278.447002 419.944 
L 279.70619 419.16 
L 280.965377 419.944 
L 283.483752 420.728 
L 284.74294 421.512 
L 286.002128 422.688 
L 287.261315 423.08 
L 288.520503 423.08 
L 289.779691 423.864 
L 291.038878 423.864 
L 292.298066 424.256 
L 294.816441 424.256 
L 296.075629 423.864 
L 298.594004 423.864 
L 299.853191 424.256 
L 302.371567 424.256 
L 304.889942 425.04 
L 307.408317 425.04 
L 308.667505 424.648 
L 309.926692 425.432 
L 311.18588 425.824 
L 312.445068 426.608 
L 313.704255 427 
L 323.777756 427 
L 326.296132 427.784 
L 333.851257 427.784 
L 335.110445 428.176 
L 341.406383 428.176 
L 343.924758 428.96 
L 348.961509 428.96 
L 350.220696 429.352 
L 359.03501 429.352 
L 360.294197 429.744 
L 362.812573 429.744 
L 364.07176 430.136 
L 386.737137 430.136 
L 387.996325 430.528 
L 390.5147 430.528 
L 391.773888 430.136 
L 409.402515 430.136 
L 410.661702 429.744 
L 411.92089 430.136 
L 415.698453 430.136 
L 416.95764 430.528 
L 434.586267 430.528 
L 435.845455 430.92 
L 435.845455 430.92 
" style="fill:none;stroke:#ff7f0e;stroke-linecap:square;stroke-width:1.5;"/>
   </g>
   <g id="line2d_25">
    <path clip-path="url(#p564a11b57e)" d="M 80.754545 430.92 
L 82.013733 428.176 
L 83.272921 426.216 
L 84.532108 423.864 
L 85.791296 421.904 
L 87.050484 419.16 
L 88.309671 415.632 
L 89.568859 413.28 
L 90.828046 412.104 
L 92.087234 410.536 
L 94.605609 405.048 
L 95.864797 403.088 
L 98.383172 398.384 
L 99.64236 396.424 
L 100.901547 392.896 
L 102.160735 389.76 
L 103.419923 387.408 
L 104.67911 385.84 
L 105.938298 385.056 
L 107.197485 383.096 
L 110.975048 376.04 
L 112.234236 374.864 
L 113.493424 371.728 
L 114.752611 367.416 
L 116.011799 366.24 
L 118.530174 361.536 
L 119.789362 358.4 
L 121.048549 356.048 
L 122.307737 351.736 
L 123.566925 348.992 
L 124.826112 347.424 
L 126.0853 345.072 
L 127.344487 341.936 
L 128.603675 340.368 
L 129.862863 337.232 
L 131.12205 334.488 
L 132.381238 332.92 
L 133.640426 330.176 
L 134.899613 326.648 
L 136.158801 324.688 
L 137.417988 321.16 
L 138.677176 319.592 
L 139.936364 316.848 
L 141.195551 316.456 
L 142.454739 314.888 
L 143.713926 311.36 
L 144.973114 307.048 
L 146.232302 304.696 
L 147.491489 301.56 
L 148.750677 299.6 
L 151.269052 294.112 
L 152.52824 292.544 
L 153.787427 290.192 
L 155.046615 287.056 
L 156.305803 285.096 
L 157.56499 282.744 
L 158.824178 280 
L 160.083366 276.864 
L 161.342553 274.904 
L 162.601741 273.336 
L 165.120116 271.768 
L 166.379304 269.808 
L 167.638491 268.24 
L 171.416054 261.184 
L 172.675242 260.4 
L 173.934429 256.48 
L 177.711992 252.952 
L 178.97118 250.992 
L 180.230368 249.816 
L 181.489555 247.464 
L 182.748743 246.68 
L 184.00793 246.68 
L 185.267118 244.72 
L 187.785493 241.584 
L 189.044681 239.624 
L 190.303868 238.84 
L 191.563056 236.488 
L 192.822244 235.312 
L 194.081431 233.352 
L 195.340619 231 
L 196.599807 230.216 
L 197.858994 228.648 
L 199.118182 225.904 
L 200.377369 224.336 
L 201.636557 223.16 
L 202.895745 222.376 
L 204.154932 220.808 
L 206.673308 219.24 
L 207.932495 218.064 
L 209.191683 218.064 
L 210.45087 216.888 
L 211.710058 216.104 
L 212.969246 215.712 
L 215.487621 212.576 
L 216.746809 210.224 
L 218.005996 209.048 
L 219.265184 208.656 
L 220.524371 207.48 
L 223.042747 205.912 
L 224.301934 203.952 
L 225.561122 203.56 
L 226.820309 201.6 
L 228.079497 198.072 
L 230.597872 195.72 
L 231.85706 193.76 
L 233.116248 192.976 
L 234.375435 192.584 
L 235.634623 191.8 
L 236.89381 190.624 
L 238.152998 189.84 
L 239.412186 187.88 
L 240.671373 187.096 
L 241.930561 185.92 
L 243.189749 185.136 
L 245.708124 184.352 
L 246.967311 183.568 
L 248.226499 182 
L 249.485687 180.04 
L 250.744874 179.256 
L 252.004062 177.688 
L 255.781625 176.512 
L 257.040812 174.16 
L 258.3 173.376 
L 259.559188 172.984 
L 262.077563 170.632 
L 264.595938 169.064 
L 265.855126 168.672 
L 267.114313 167.104 
L 268.373501 167.104 
L 269.632689 166.32 
L 270.891876 165.928 
L 272.151064 165.928 
L 273.410251 165.536 
L 274.669439 164.752 
L 275.928627 163.576 
L 277.187814 163.576 
L 278.447002 163.184 
L 279.70619 163.184 
L 282.224565 161.616 
L 283.483752 161.224 
L 284.74294 160.048 
L 286.002128 158.48 
L 288.520503 157.696 
L 289.779691 156.912 
L 292.298066 156.128 
L 298.594004 156.128 
L 299.853191 155.736 
L 302.371567 155.736 
L 303.630754 155.344 
L 304.889942 154.56 
L 307.408317 154.56 
L 308.667505 154.168 
L 309.926692 153.384 
L 311.18588 152.992 
L 312.445068 152.208 
L 314.963443 151.424 
L 320.000193 151.424 
L 321.259381 151.032 
L 323.777756 151.032 
L 326.296132 150.248 
L 333.851257 150.248 
L 335.110445 149.856 
L 340.147195 149.856 
L 343.924758 148.68 
L 348.961509 148.68 
L 350.220696 148.288 
L 359.03501 148.288 
L 360.294197 147.896 
L 362.812573 147.896 
L 364.07176 147.504 
L 386.737137 147.504 
L 387.996325 147.112 
L 410.661702 147.112 
L 411.92089 146.72 
L 415.698453 146.72 
L 416.95764 146.328 
L 434.586267 146.328 
L 435.845455 145.936 
L 435.845455 145.936 
" style="fill:none;stroke:#2ca02c;stroke-linecap:square;stroke-width:1.5;"/>
   </g>
   <g id="patch_3">
    <path d="M 63 448.56 
L 63 60.48 
" style="fill:none;stroke:#000000;stroke-linecap:square;stroke-linejoin:miter;stroke-width:0.8;"/>
   </g>
   <g id="patch_4">
    <path d="M 453.6 448.56 
L 453.6 60.48 
" style="fill:none;stroke:#000000;stroke-linecap:square;stroke-linejoin:miter;stroke-width:0.8;"/>
   </g>
   <g id="patch_5">
    <path d="M 63 448.56 
L 453.6 448.56 
" style="fill:none;stroke:#000000;stroke-linecap:square;stroke-linejoin:miter;stroke-width:0.8;"/>
   </g>
   <g id="patch_6">
    <path d="M 63 60.48 
L 453.6 60.48 
" style="fill:none;stroke:#000000;stroke-linecap:square;stroke-linejoin:miter;stroke-width:0.8;"/>
   </g>
   <g id="legend_1">
    <g id="patch_7">
     <path d="M 409.390625 112.514375 
L 446.6 112.514375 
Q 448.6 112.514375 448.6 110.514375 
L 448.6 67.48 
Q 448.6 65.48 446.6 65.48 
L 409.390625 65.48 
Q 407.390625 65.48 407.390625 67.48 
L 407.390625 110.514375 
Q 407.390625 112.514375 409.390625 112.514375 
z
" style="fill:#ffffff;opacity:0.8;stroke:#cccccc;stroke-linejoin:miter;"/>
    </g>
    <g id="line2d_26">
     <path d="M 411.390625 73.578438 
L 431.390625 73.578438 
" style="fill:none;stroke:#1f77b4;stroke-linecap:square;stroke-width:1.5;"/>
    </g>
    <g id="line2d_27"/>
    <g id="text_14">
     <!-- s -->
     <g transform="translate(439.390625 77.078438)scale(0.1 -0.1)">
      <defs>
       <path d="M 2834 3397 
L 2834 2853 
Q 2591 2978 2328 3040 
Q 2066 3103 1784 3103 
Q 1356 3103 1142 2972 
Q 928 2841 928 2578 
Q 928 2378 1081 2264 
Q 1234 2150 1697 2047 
L 1894 2003 
Q 2506 1872 2764 1633 
Q 3022 1394 3022 966 
Q 3022 478 2636 193 
Q 2250 -91 1575 -91 
Q 1294 -91 989 -36 
Q 684 19 347 128 
L 347 722 
Q 666 556 975 473 
Q 1284 391 1588 391 
Q 1994 391 2212 530 
Q 2431 669 2431 922 
Q 2431 1156 2273 1281 
Q 2116 1406 1581 1522 
L 1381 1569 
Q 847 1681 609 1914 
Q 372 2147 372 2553 
Q 372 3047 722 3315 
Q 1072 3584 1716 3584 
Q 2034 3584 2315 3537 
Q 2597 3491 2834 3397 
z
" id="DejaVuSans-73" transform="scale(0.015625)"/>
      </defs>
      <use xlink:href="#DejaVuSans-73"/>
     </g>
    </g>
    <g id="line2d_28">
     <path d="M 411.390625 88.256563 
L 431.390625 88.256563 
" style="fill:none;stroke:#ff7f0e;stroke-linecap:square;stroke-width:1.5;"/>
    </g>
    <g id="line2d_29"/>
    <g id="text_15">
     <!-- i -->
     <g transform="translate(439.390625 91.756563)scale(0.1 -0.1)">
      <use xlink:href="#DejaVuSans-69"/>
     </g>
    </g>
    <g id="line2d_30">
     <path d="M 411.390625 102.934687 
L 431.390625 102.934687 
" style="fill:none;stroke:#2ca02c;stroke-linecap:square;stroke-width:1.5;"/>
    </g>
    <g id="line2d_31"/>
    <g id="text_16">
     <!-- r -->
     <g transform="translate(439.390625 106.434687)scale(0.1 -0.1)">
      <use xlink:href="#DejaVuSans-72"/>
     </g>
    </g>
   </g>
  </g>
 </g>
 <defs>
  <clipPath id="p564a11b57e">
   <rect height="388.08" width="390.6" x="63" y="60.48"/>
  </clipPath>
 </defs>
</svg>
