<?xml version="1.0" encoding="utf-8" standalone="no"?>
<!DOCTYPE svg PUBLIC "-//W3C//DTD SVG 1.1//EN"
  "http://www.w3.org/Graphics/SVG/1.1/DTD/svg11.dtd">
<svg height="504pt" version="1.1" viewBox="0 0 504 504" width="504pt" xmlns="http://www.w3.org/2000/svg" xmlns:xlink="http://www.w3.org/1999/xlink">
 <metadata>
  <rdf:RDF xmlns:cc="http://creativecommons.org/ns#" xmlns:dc="http://purl.org/dc/elements/1.1/" xmlns:rdf="http://www.w3.org/1999/02/22-rdf-syntax-ns#">
   <cc:Work>
    <dc:type rdf:resource="http://purl.org/dc/dcmitype/StillImage"/>
    <dc:date>2021-07-04T23:57:20.922818</dc:date>
    <dc:format>image/svg+xml</dc:format>
    <dc:creator>
     <cc:Agent>
      <dc:title>Matplotlib v3.4.2, https://matplotlib.org/</dc:title>
     </cc:Agent>
    </dc:creator>
   </cc:Work>
  </rdf:RDF>
 </metadata>
 <defs>
  <style type="text/css">*{stroke-linecap:butt;stroke-linejoin:round;}</style>
 </defs>
 <g id="figure_1">
  <g id="patch_1">
   <path d="M 0 504 
L 504 504 
L 504 0 
L 0 0 
z
" style="fill:#ffffff;"/>
  </g>
  <g id="axes_1">
   <g id="patch_2">
    <path d="M 63 448.56 
L 453.6 448.56 
L 453.6 60.48 
L 63 60.48 
z
" style="fill:#ffffff;"/>
   </g>
   <g id="matplotlib.axis_1">
    <g id="xtick_1">
     <g id="line2d_1">
      <path clip-path="url(#p60648efb06)" d="M 80.754545 448.56 
L 80.754545 60.48 
" style="fill:none;stroke:#b0b0b0;stroke-linecap:square;stroke-width:0.8;"/>
     </g>
     <g id="line2d_2">
      <defs>
       <path d="M 0 0 
L 0 3.5 
" id="mcd1fc1f399" style="stroke:#000000;stroke-width:0.8;"/>
      </defs>
      <g>
       <use style="stroke:#000000;stroke-width:0.8;" x="80.754545" xlink:href="#mcd1fc1f399" y="448.56"/>
      </g>
     </g>
     <g id="text_1">
      <!-- 0 -->
      <g transform="translate(77.573295 463.158437)scale(0.1 -0.1)">
       <defs>
        <path d="M 2034 4250 
Q 1547 4250 1301 3770 
Q 1056 3291 1056 2328 
Q 1056 1369 1301 889 
Q 1547 409 2034 409 
Q 2525 409 2770 889 
Q 3016 1369 3016 2328 
Q 3016 3291 2770 3770 
Q 2525 4250 2034 4250 
z
M 2034 4750 
Q 2819 4750 3233 4129 
Q 3647 3509 3647 2328 
Q 3647 1150 3233 529 
Q 2819 -91 2034 -91 
Q 1250 -91 836 529 
Q 422 1150 422 2328 
Q 422 3509 836 4129 
Q 1250 4750 2034 4750 
z
" id="DejaVuSans-30" transform="scale(0.015625)"/>
       </defs>
       <use xlink:href="#DejaVuSans-30"/>
      </g>
     </g>
    </g>
    <g id="xtick_2">
     <g id="line2d_3">
      <path clip-path="url(#p60648efb06)" d="M 154.731818 448.56 
L 154.731818 60.48 
" style="fill:none;stroke:#b0b0b0;stroke-linecap:square;stroke-width:0.8;"/>
     </g>
     <g id="line2d_4">
      <g>
       <use style="stroke:#000000;stroke-width:0.8;" x="154.731818" xlink:href="#mcd1fc1f399" y="448.56"/>
      </g>
     </g>
     <g id="text_2">
      <!-- 20 -->
      <g transform="translate(148.369318 463.158437)scale(0.1 -0.1)">
       <defs>
        <path d="M 1228 531 
L 3431 531 
L 3431 0 
L 469 0 
L 469 531 
Q 828 903 1448 1529 
Q 2069 2156 2228 2338 
Q 2531 2678 2651 2914 
Q 2772 3150 2772 3378 
Q 2772 3750 2511 3984 
Q 2250 4219 1831 4219 
Q 1534 4219 1204 4116 
Q 875 4013 500 3803 
L 500 4441 
Q 881 4594 1212 4672 
Q 1544 4750 1819 4750 
Q 2544 4750 2975 4387 
Q 3406 4025 3406 3419 
Q 3406 3131 3298 2873 
Q 3191 2616 2906 2266 
Q 2828 2175 2409 1742 
Q 1991 1309 1228 531 
z
" id="DejaVuSans-32" transform="scale(0.015625)"/>
       </defs>
       <use xlink:href="#DejaVuSans-32"/>
       <use x="63.623047" xlink:href="#DejaVuSans-30"/>
      </g>
     </g>
    </g>
    <g id="xtick_3">
     <g id="line2d_5">
      <path clip-path="url(#p60648efb06)" d="M 228.709091 448.56 
L 228.709091 60.48 
" style="fill:none;stroke:#b0b0b0;stroke-linecap:square;stroke-width:0.8;"/>
     </g>
     <g id="line2d_6">
      <g>
       <use style="stroke:#000000;stroke-width:0.8;" x="228.709091" xlink:href="#mcd1fc1f399" y="448.56"/>
      </g>
     </g>
     <g id="text_3">
      <!-- 40 -->
      <g transform="translate(222.346591 463.158437)scale(0.1 -0.1)">
       <defs>
        <path d="M 2419 4116 
L 825 1625 
L 2419 1625 
L 2419 4116 
z
M 2253 4666 
L 3047 4666 
L 3047 1625 
L 3713 1625 
L 3713 1100 
L 3047 1100 
L 3047 0 
L 2419 0 
L 2419 1100 
L 313 1100 
L 313 1709 
L 2253 4666 
z
" id="DejaVuSans-34" transform="scale(0.015625)"/>
       </defs>
       <use xlink:href="#DejaVuSans-34"/>
       <use x="63.623047" xlink:href="#DejaVuSans-30"/>
      </g>
     </g>
    </g>
    <g id="xtick_4">
     <g id="line2d_7">
      <path clip-path="url(#p60648efb06)" d="M 302.686364 448.56 
L 302.686364 60.48 
" style="fill:none;stroke:#b0b0b0;stroke-linecap:square;stroke-width:0.8;"/>
     </g>
     <g id="line2d_8">
      <g>
       <use style="stroke:#000000;stroke-width:0.8;" x="302.686364" xlink:href="#mcd1fc1f399" y="448.56"/>
      </g>
     </g>
     <g id="text_4">
      <!-- 60 -->
      <g transform="translate(296.323864 463.158437)scale(0.1 -0.1)">
       <defs>
        <path d="M 2113 2584 
Q 1688 2584 1439 2293 
Q 1191 2003 1191 1497 
Q 1191 994 1439 701 
Q 1688 409 2113 409 
Q 2538 409 2786 701 
Q 3034 994 3034 1497 
Q 3034 2003 2786 2293 
Q 2538 2584 2113 2584 
z
M 3366 4563 
L 3366 3988 
Q 3128 4100 2886 4159 
Q 2644 4219 2406 4219 
Q 1781 4219 1451 3797 
Q 1122 3375 1075 2522 
Q 1259 2794 1537 2939 
Q 1816 3084 2150 3084 
Q 2853 3084 3261 2657 
Q 3669 2231 3669 1497 
Q 3669 778 3244 343 
Q 2819 -91 2113 -91 
Q 1303 -91 875 529 
Q 447 1150 447 2328 
Q 447 3434 972 4092 
Q 1497 4750 2381 4750 
Q 2619 4750 2861 4703 
Q 3103 4656 3366 4563 
z
" id="DejaVuSans-36" transform="scale(0.015625)"/>
       </defs>
       <use xlink:href="#DejaVuSans-36"/>
       <use x="63.623047" xlink:href="#DejaVuSans-30"/>
      </g>
     </g>
    </g>
    <g id="xtick_5">
     <g id="line2d_9">
      <path clip-path="url(#p60648efb06)" d="M 376.663636 448.56 
L 376.663636 60.48 
" style="fill:none;stroke:#b0b0b0;stroke-linecap:square;stroke-width:0.8;"/>
     </g>
     <g id="line2d_10">
      <g>
       <use style="stroke:#000000;stroke-width:0.8;" x="376.663636" xlink:href="#mcd1fc1f399" y="448.56"/>
      </g>
     </g>
     <g id="text_5">
      <!-- 80 -->
      <g transform="translate(370.301136 463.158437)scale(0.1 -0.1)">
       <defs>
        <path d="M 2034 2216 
Q 1584 2216 1326 1975 
Q 1069 1734 1069 1313 
Q 1069 891 1326 650 
Q 1584 409 2034 409 
Q 2484 409 2743 651 
Q 3003 894 3003 1313 
Q 3003 1734 2745 1975 
Q 2488 2216 2034 2216 
z
M 1403 2484 
Q 997 2584 770 2862 
Q 544 3141 544 3541 
Q 544 4100 942 4425 
Q 1341 4750 2034 4750 
Q 2731 4750 3128 4425 
Q 3525 4100 3525 3541 
Q 3525 3141 3298 2862 
Q 3072 2584 2669 2484 
Q 3125 2378 3379 2068 
Q 3634 1759 3634 1313 
Q 3634 634 3220 271 
Q 2806 -91 2034 -91 
Q 1263 -91 848 271 
Q 434 634 434 1313 
Q 434 1759 690 2068 
Q 947 2378 1403 2484 
z
M 1172 3481 
Q 1172 3119 1398 2916 
Q 1625 2713 2034 2713 
Q 2441 2713 2670 2916 
Q 2900 3119 2900 3481 
Q 2900 3844 2670 4047 
Q 2441 4250 2034 4250 
Q 1625 4250 1398 4047 
Q 1172 3844 1172 3481 
z
" id="DejaVuSans-38" transform="scale(0.015625)"/>
       </defs>
       <use xlink:href="#DejaVuSans-38"/>
       <use x="63.623047" xlink:href="#DejaVuSans-30"/>
      </g>
     </g>
    </g>
    <g id="xtick_6">
     <g id="line2d_11">
      <path clip-path="url(#p60648efb06)" d="M 450.640909 448.56 
L 450.640909 60.48 
" style="fill:none;stroke:#b0b0b0;stroke-linecap:square;stroke-width:0.8;"/>
     </g>
     <g id="line2d_12">
      <g>
       <use style="stroke:#000000;stroke-width:0.8;" x="450.640909" xlink:href="#mcd1fc1f399" y="448.56"/>
      </g>
     </g>
     <g id="text_6">
      <!-- 100 -->
      <g transform="translate(441.097159 463.158437)scale(0.1 -0.1)">
       <defs>
        <path d="M 794 531 
L 1825 531 
L 1825 4091 
L 703 3866 
L 703 4441 
L 1819 4666 
L 2450 4666 
L 2450 531 
L 3481 531 
L 3481 0 
L 794 0 
L 794 531 
z
" id="DejaVuSans-31" transform="scale(0.015625)"/>
       </defs>
       <use xlink:href="#DejaVuSans-31"/>
       <use x="63.623047" xlink:href="#DejaVuSans-30"/>
       <use x="127.246094" xlink:href="#DejaVuSans-30"/>
      </g>
     </g>
    </g>
    <g id="text_7">
     <!-- Iteration -->
     <g transform="translate(237.091406 476.836563)scale(0.1 -0.1)">
      <defs>
       <path d="M 628 4666 
L 1259 4666 
L 1259 0 
L 628 0 
L 628 4666 
z
" id="DejaVuSans-49" transform="scale(0.015625)"/>
       <path d="M 1172 4494 
L 1172 3500 
L 2356 3500 
L 2356 3053 
L 1172 3053 
L 1172 1153 
Q 1172 725 1289 603 
Q 1406 481 1766 481 
L 2356 481 
L 2356 0 
L 1766 0 
Q 1100 0 847 248 
Q 594 497 594 1153 
L 594 3053 
L 172 3053 
L 172 3500 
L 594 3500 
L 594 4494 
L 1172 4494 
z
" id="DejaVuSans-74" transform="scale(0.015625)"/>
       <path d="M 3597 1894 
L 3597 1613 
L 953 1613 
Q 991 1019 1311 708 
Q 1631 397 2203 397 
Q 2534 397 2845 478 
Q 3156 559 3463 722 
L 3463 178 
Q 3153 47 2828 -22 
Q 2503 -91 2169 -91 
Q 1331 -91 842 396 
Q 353 884 353 1716 
Q 353 2575 817 3079 
Q 1281 3584 2069 3584 
Q 2775 3584 3186 3129 
Q 3597 2675 3597 1894 
z
M 3022 2063 
Q 3016 2534 2758 2815 
Q 2500 3097 2075 3097 
Q 1594 3097 1305 2825 
Q 1016 2553 972 2059 
L 3022 2063 
z
" id="DejaVuSans-65" transform="scale(0.015625)"/>
       <path d="M 2631 2963 
Q 2534 3019 2420 3045 
Q 2306 3072 2169 3072 
Q 1681 3072 1420 2755 
Q 1159 2438 1159 1844 
L 1159 0 
L 581 0 
L 581 3500 
L 1159 3500 
L 1159 2956 
Q 1341 3275 1631 3429 
Q 1922 3584 2338 3584 
Q 2397 3584 2469 3576 
Q 2541 3569 2628 3553 
L 2631 2963 
z
" id="DejaVuSans-72" transform="scale(0.015625)"/>
       <path d="M 2194 1759 
Q 1497 1759 1228 1600 
Q 959 1441 959 1056 
Q 959 750 1161 570 
Q 1363 391 1709 391 
Q 2188 391 2477 730 
Q 2766 1069 2766 1631 
L 2766 1759 
L 2194 1759 
z
M 3341 1997 
L 3341 0 
L 2766 0 
L 2766 531 
Q 2569 213 2275 61 
Q 1981 -91 1556 -91 
Q 1019 -91 701 211 
Q 384 513 384 1019 
Q 384 1609 779 1909 
Q 1175 2209 1959 2209 
L 2766 2209 
L 2766 2266 
Q 2766 2663 2505 2880 
Q 2244 3097 1772 3097 
Q 1472 3097 1187 3025 
Q 903 2953 641 2809 
L 641 3341 
Q 956 3463 1253 3523 
Q 1550 3584 1831 3584 
Q 2591 3584 2966 3190 
Q 3341 2797 3341 1997 
z
" id="DejaVuSans-61" transform="scale(0.015625)"/>
       <path d="M 603 3500 
L 1178 3500 
L 1178 0 
L 603 0 
L 603 3500 
z
M 603 4863 
L 1178 4863 
L 1178 4134 
L 603 4134 
L 603 4863 
z
" id="DejaVuSans-69" transform="scale(0.015625)"/>
       <path d="M 1959 3097 
Q 1497 3097 1228 2736 
Q 959 2375 959 1747 
Q 959 1119 1226 758 
Q 1494 397 1959 397 
Q 2419 397 2687 759 
Q 2956 1122 2956 1747 
Q 2956 2369 2687 2733 
Q 2419 3097 1959 3097 
z
M 1959 3584 
Q 2709 3584 3137 3096 
Q 3566 2609 3566 1747 
Q 3566 888 3137 398 
Q 2709 -91 1959 -91 
Q 1206 -91 779 398 
Q 353 888 353 1747 
Q 353 2609 779 3096 
Q 1206 3584 1959 3584 
z
" id="DejaVuSans-6f" transform="scale(0.015625)"/>
       <path d="M 3513 2113 
L 3513 0 
L 2938 0 
L 2938 2094 
Q 2938 2591 2744 2837 
Q 2550 3084 2163 3084 
Q 1697 3084 1428 2787 
Q 1159 2491 1159 1978 
L 1159 0 
L 581 0 
L 581 3500 
L 1159 3500 
L 1159 2956 
Q 1366 3272 1645 3428 
Q 1925 3584 2291 3584 
Q 2894 3584 3203 3211 
Q 3513 2838 3513 2113 
z
" id="DejaVuSans-6e" transform="scale(0.015625)"/>
      </defs>
      <use xlink:href="#DejaVuSans-49"/>
      <use x="29.492188" xlink:href="#DejaVuSans-74"/>
      <use x="68.701172" xlink:href="#DejaVuSans-65"/>
      <use x="130.224609" xlink:href="#DejaVuSans-72"/>
      <use x="171.337891" xlink:href="#DejaVuSans-61"/>
      <use x="232.617188" xlink:href="#DejaVuSans-74"/>
      <use x="271.826172" xlink:href="#DejaVuSans-69"/>
      <use x="299.609375" xlink:href="#DejaVuSans-6f"/>
      <use x="360.791016" xlink:href="#DejaVuSans-6e"/>
     </g>
    </g>
   </g>
   <g id="matplotlib.axis_2">
    <g id="ytick_1">
     <g id="line2d_13">
      <path clip-path="url(#p60648efb06)" d="M 63 430.92 
L 453.6 430.92 
" style="fill:none;stroke:#b0b0b0;stroke-linecap:square;stroke-width:0.8;"/>
     </g>
     <g id="line2d_14">
      <defs>
       <path d="M 0 0 
L -3.5 0 
" id="m3b0fb2aa9b" style="stroke:#000000;stroke-width:0.8;"/>
      </defs>
      <g>
       <use style="stroke:#000000;stroke-width:0.8;" x="63" xlink:href="#m3b0fb2aa9b" y="430.92"/>
      </g>
     </g>
     <g id="text_8">
      <!-- 0 -->
      <g transform="translate(49.6375 434.719219)scale(0.1 -0.1)">
       <use xlink:href="#DejaVuSans-30"/>
      </g>
     </g>
    </g>
    <g id="ytick_2">
     <g id="line2d_15">
      <path clip-path="url(#p60648efb06)" d="M 63 352.52 
L 453.6 352.52 
" style="fill:none;stroke:#b0b0b0;stroke-linecap:square;stroke-width:0.8;"/>
     </g>
     <g id="line2d_16">
      <g>
       <use style="stroke:#000000;stroke-width:0.8;" x="63" xlink:href="#m3b0fb2aa9b" y="352.52"/>
      </g>
     </g>
     <g id="text_9">
      <!-- 200 -->
      <g transform="translate(36.9125 356.319219)scale(0.1 -0.1)">
       <use xlink:href="#DejaVuSans-32"/>
       <use x="63.623047" xlink:href="#DejaVuSans-30"/>
       <use x="127.246094" xlink:href="#DejaVuSans-30"/>
      </g>
     </g>
    </g>
    <g id="ytick_3">
     <g id="line2d_17">
      <path clip-path="url(#p60648efb06)" d="M 63 274.12 
L 453.6 274.12 
" style="fill:none;stroke:#b0b0b0;stroke-linecap:square;stroke-width:0.8;"/>
     </g>
     <g id="line2d_18">
      <g>
       <use style="stroke:#000000;stroke-width:0.8;" x="63" xlink:href="#m3b0fb2aa9b" y="274.12"/>
      </g>
     </g>
     <g id="text_10">
      <!-- 400 -->
      <g transform="translate(36.9125 277.919219)scale(0.1 -0.1)">
       <use xlink:href="#DejaVuSans-34"/>
       <use x="63.623047" xlink:href="#DejaVuSans-30"/>
       <use x="127.246094" xlink:href="#DejaVuSans-30"/>
      </g>
     </g>
    </g>
    <g id="ytick_4">
     <g id="line2d_19">
      <path clip-path="url(#p60648efb06)" d="M 63 195.72 
L 453.6 195.72 
" style="fill:none;stroke:#b0b0b0;stroke-linecap:square;stroke-width:0.8;"/>
     </g>
     <g id="line2d_20">
      <g>
       <use style="stroke:#000000;stroke-width:0.8;" x="63" xlink:href="#m3b0fb2aa9b" y="195.72"/>
      </g>
     </g>
     <g id="text_11">
      <!-- 600 -->
      <g transform="translate(36.9125 199.519219)scale(0.1 -0.1)">
       <use xlink:href="#DejaVuSans-36"/>
       <use x="63.623047" xlink:href="#DejaVuSans-30"/>
       <use x="127.246094" xlink:href="#DejaVuSans-30"/>
      </g>
     </g>
    </g>
    <g id="ytick_5">
     <g id="line2d_21">
      <path clip-path="url(#p60648efb06)" d="M 63 117.32 
L 453.6 117.32 
" style="fill:none;stroke:#b0b0b0;stroke-linecap:square;stroke-width:0.8;"/>
     </g>
     <g id="line2d_22">
      <g>
       <use style="stroke:#000000;stroke-width:0.8;" x="63" xlink:href="#m3b0fb2aa9b" y="117.32"/>
      </g>
     </g>
     <g id="text_12">
      <!-- 800 -->
      <g transform="translate(36.9125 121.119219)scale(0.1 -0.1)">
       <use xlink:href="#DejaVuSans-38"/>
       <use x="63.623047" xlink:href="#DejaVuSans-30"/>
       <use x="127.246094" xlink:href="#DejaVuSans-30"/>
      </g>
     </g>
    </g>
    <g id="text_13">
     <!-- Node count -->
     <g transform="translate(30.832812 283.266094)rotate(-90)scale(0.1 -0.1)">
      <defs>
       <path d="M 628 4666 
L 1478 4666 
L 3547 763 
L 3547 4666 
L 4159 4666 
L 4159 0 
L 3309 0 
L 1241 3903 
L 1241 0 
L 628 0 
L 628 4666 
z
" id="DejaVuSans-4e" transform="scale(0.015625)"/>
       <path d="M 2906 2969 
L 2906 4863 
L 3481 4863 
L 3481 0 
L 2906 0 
L 2906 525 
Q 2725 213 2448 61 
Q 2172 -91 1784 -91 
Q 1150 -91 751 415 
Q 353 922 353 1747 
Q 353 2572 751 3078 
Q 1150 3584 1784 3584 
Q 2172 3584 2448 3432 
Q 2725 3281 2906 2969 
z
M 947 1747 
Q 947 1113 1208 752 
Q 1469 391 1925 391 
Q 2381 391 2643 752 
Q 2906 1113 2906 1747 
Q 2906 2381 2643 2742 
Q 2381 3103 1925 3103 
Q 1469 3103 1208 2742 
Q 947 2381 947 1747 
z
" id="DejaVuSans-64" transform="scale(0.015625)"/>
       <path id="DejaVuSans-20" transform="scale(0.015625)"/>
       <path d="M 3122 3366 
L 3122 2828 
Q 2878 2963 2633 3030 
Q 2388 3097 2138 3097 
Q 1578 3097 1268 2742 
Q 959 2388 959 1747 
Q 959 1106 1268 751 
Q 1578 397 2138 397 
Q 2388 397 2633 464 
Q 2878 531 3122 666 
L 3122 134 
Q 2881 22 2623 -34 
Q 2366 -91 2075 -91 
Q 1284 -91 818 406 
Q 353 903 353 1747 
Q 353 2603 823 3093 
Q 1294 3584 2113 3584 
Q 2378 3584 2631 3529 
Q 2884 3475 3122 3366 
z
" id="DejaVuSans-63" transform="scale(0.015625)"/>
       <path d="M 544 1381 
L 544 3500 
L 1119 3500 
L 1119 1403 
Q 1119 906 1312 657 
Q 1506 409 1894 409 
Q 2359 409 2629 706 
Q 2900 1003 2900 1516 
L 2900 3500 
L 3475 3500 
L 3475 0 
L 2900 0 
L 2900 538 
Q 2691 219 2414 64 
Q 2138 -91 1772 -91 
Q 1169 -91 856 284 
Q 544 659 544 1381 
z
M 1991 3584 
L 1991 3584 
z
" id="DejaVuSans-75" transform="scale(0.015625)"/>
      </defs>
      <use xlink:href="#DejaVuSans-4e"/>
      <use x="74.804688" xlink:href="#DejaVuSans-6f"/>
      <use x="135.986328" xlink:href="#DejaVuSans-64"/>
      <use x="199.462891" xlink:href="#DejaVuSans-65"/>
      <use x="260.986328" xlink:href="#DejaVuSans-20"/>
      <use x="292.773438" xlink:href="#DejaVuSans-63"/>
      <use x="347.753906" xlink:href="#DejaVuSans-6f"/>
      <use x="408.935547" xlink:href="#DejaVuSans-75"/>
      <use x="472.314453" xlink:href="#DejaVuSans-6e"/>
      <use x="535.693359" xlink:href="#DejaVuSans-74"/>
     </g>
    </g>
   </g>
   <g id="line2d_23">
    <path clip-path="url(#p60648efb06)" d="M 80.754545 78.12 
L 84.453409 82.432 
L 88.152273 87.136 
L 91.851136 91.448 
L 95.55 96.936 
L 99.248864 99.68 
L 102.947727 102.424 
L 106.646591 105.56 
L 110.345455 108.304 
L 114.044318 111.44 
L 117.743182 114.184 
L 121.442045 117.32 
L 125.140909 118.888 
L 128.839773 121.24 
L 132.538636 123.592 
L 136.2375 124.768 
L 139.936364 126.728 
L 143.635227 128.688 
L 147.334091 131.04 
L 151.032955 133.784 
L 154.731818 135.744 
L 158.430682 137.312 
L 162.129545 139.272 
L 165.828409 139.664 
L 169.527273 141.624 
L 173.226136 141.624 
L 176.925 142.8 
L 180.623864 143.584 
L 184.322727 144.368 
L 188.021591 144.368 
L 191.720455 144.368 
L 195.419318 145.152 
L 199.118182 145.544 
L 202.817045 146.72 
L 206.515909 147.504 
L 210.214773 147.896 
L 213.913636 148.288 
L 217.6125 149.072 
L 221.311364 149.856 
L 225.010227 150.64 
L 228.709091 151.032 
L 232.407955 151.816 
L 236.106818 152.6 
L 239.805682 152.992 
L 243.504545 153.776 
L 247.203409 154.56 
L 250.902273 154.952 
L 254.601136 155.344 
L 258.3 156.128 
L 261.998864 156.912 
L 265.697727 158.088 
L 269.396591 158.872 
L 273.095455 158.872 
L 276.794318 159.656 
L 280.493182 160.048 
L 284.192045 160.832 
L 287.890909 162.008 
L 291.589773 162.008 
L 295.288636 162.792 
L 298.9875 162.792 
L 302.686364 162.792 
L 306.385227 162.792 
L 310.084091 163.576 
L 313.782955 163.968 
L 317.481818 163.968 
L 321.180682 163.968 
L 324.879545 163.968 
L 328.578409 164.36 
L 332.277273 164.752 
L 335.976136 164.752 
L 339.675 164.752 
L 343.373864 165.144 
L 347.072727 165.144 
L 350.771591 165.144 
L 354.470455 165.536 
L 358.169318 165.928 
L 361.868182 166.32 
L 365.567045 166.32 
L 369.265909 166.32 
L 372.964773 166.712 
L 376.663636 167.104 
L 380.3625 167.104 
L 384.061364 167.104 
L 387.760227 167.104 
L 391.459091 167.104 
L 395.157955 167.104 
L 398.856818 167.104 
L 402.555682 167.104 
L 406.254545 167.104 
L 409.953409 167.104 
L 413.652273 167.104 
L 417.351136 167.496 
L 421.05 167.496 
L 424.748864 167.496 
L 428.447727 167.496 
L 432.146591 167.496 
L 435.845455 167.496 
" style="fill:none;stroke:#1f77b4;stroke-linecap:square;stroke-width:1.5;"/>
   </g>
   <g id="line2d_24">
    <path clip-path="url(#p60648efb06)" d="M 80.754545 391.72 
L 84.453409 389.368 
L 88.152273 388.584 
L 91.851136 387.016 
L 95.55 387.408 
L 99.248864 388.584 
L 102.947727 390.544 
L 106.646591 389.76 
L 110.345455 390.936 
L 114.044318 390.936 
L 117.743182 393.288 
L 121.442045 393.288 
L 125.140909 395.248 
L 128.839773 395.248 
L 132.538636 397.208 
L 136.2375 398.384 
L 139.936364 399.952 
L 143.635227 401.912 
L 147.334091 402.304 
L 151.032955 403.48 
L 154.731818 402.696 
L 158.430682 405.44 
L 162.129545 404.656 
L 165.828409 407.4 
L 169.527273 409.752 
L 173.226136 412.104 
L 176.925 411.32 
L 180.623864 412.496 
L 184.322727 415.24 
L 188.021591 418.376 
L 191.720455 419.16 
L 195.419318 418.768 
L 199.118182 419.944 
L 202.817045 420.728 
L 206.515909 420.728 
L 210.214773 421.904 
L 213.913636 421.512 
L 217.6125 421.904 
L 221.311364 422.296 
L 225.010227 422.688 
L 228.709091 423.472 
L 232.407955 423.08 
L 236.106818 422.688 
L 239.805682 422.296 
L 243.504545 422.688 
L 247.203409 422.688 
L 250.902273 423.08 
L 254.601136 422.688 
L 258.3 422.688 
L 261.998864 422.688 
L 265.697727 421.512 
L 269.396591 421.904 
L 273.095455 422.296 
L 276.794318 422.688 
L 280.493182 422.688 
L 284.192045 422.688 
L 287.890909 422.296 
L 291.589773 423.864 
L 295.288636 423.864 
L 298.9875 424.648 
L 302.686364 424.648 
L 306.385227 425.04 
L 310.084091 425.04 
L 313.782955 424.648 
L 317.481818 425.04 
L 321.180682 426.608 
L 324.879545 426.608 
L 328.578409 426.216 
L 332.277273 426.216 
L 335.976136 426.608 
L 339.675 427 
L 343.373864 426.608 
L 347.072727 426.608 
L 350.771591 427.392 
L 354.470455 427.784 
L 358.169318 427.392 
L 361.868182 427.392 
L 365.567045 428.176 
L 369.265909 428.176 
L 372.964773 428.176 
L 376.663636 427.784 
L 380.3625 427.784 
L 384.061364 428.568 
L 387.760227 428.568 
L 391.459091 428.568 
L 395.157955 428.96 
L 398.856818 428.96 
L 402.555682 429.352 
L 406.254545 429.352 
L 409.953409 429.744 
L 413.652273 429.744 
L 417.351136 429.352 
L 421.05 429.352 
L 424.748864 429.744 
L 428.447727 430.136 
L 432.146591 430.136 
L 435.845455 430.92 
" style="fill:none;stroke:#ff7f0e;stroke-linecap:square;stroke-width:1.5;"/>
   </g>
   <g id="line2d_25">
    <path clip-path="url(#p60648efb06)" d="M 80.754545 430.92 
L 84.453409 428.96 
L 88.152273 425.04 
L 91.851136 422.296 
L 95.55 416.416 
L 99.248864 412.496 
L 102.947727 407.792 
L 106.646591 405.44 
L 110.345455 401.52 
L 114.044318 398.384 
L 117.743182 393.288 
L 121.442045 390.152 
L 125.140909 386.624 
L 128.839773 384.272 
L 132.538636 379.96 
L 136.2375 377.608 
L 139.936364 374.08 
L 143.635227 370.16 
L 147.334091 367.416 
L 151.032955 363.496 
L 154.731818 362.32 
L 158.430682 358.008 
L 162.129545 356.832 
L 165.828409 353.696 
L 169.527273 349.384 
L 173.226136 347.032 
L 176.925 346.64 
L 180.623864 344.68 
L 184.322727 341.152 
L 188.021591 338.016 
L 191.720455 337.232 
L 195.419318 336.84 
L 199.118182 335.272 
L 202.817045 333.312 
L 206.515909 332.528 
L 210.214773 330.96 
L 213.913636 330.96 
L 217.6125 329.784 
L 221.311364 328.608 
L 225.010227 327.432 
L 228.709091 326.256 
L 232.407955 325.864 
L 236.106818 325.472 
L 239.805682 325.472 
L 243.504545 324.296 
L 247.203409 323.512 
L 250.902273 322.728 
L 254.601136 322.728 
L 258.3 321.944 
L 261.998864 321.16 
L 265.697727 321.16 
L 269.396591 319.984 
L 273.095455 319.592 
L 276.794318 318.416 
L 280.493182 318.024 
L 284.192045 317.24 
L 287.890909 316.456 
L 291.589773 314.888 
L 295.288636 314.104 
L 298.9875 313.32 
L 302.686364 313.32 
L 306.385227 312.928 
L 310.084091 312.144 
L 313.782955 312.144 
L 317.481818 311.752 
L 321.180682 310.184 
L 324.879545 310.184 
L 328.578409 310.184 
L 332.277273 309.792 
L 335.976136 309.4 
L 339.675 309.008 
L 343.373864 309.008 
L 347.072727 309.008 
L 350.771591 308.224 
L 354.470455 307.44 
L 358.169318 307.44 
L 361.868182 307.048 
L 365.567045 306.264 
L 369.265909 306.264 
L 372.964773 305.872 
L 376.663636 305.872 
L 380.3625 305.872 
L 384.061364 305.088 
L 387.760227 305.088 
L 391.459091 305.088 
L 395.157955 304.696 
L 398.856818 304.696 
L 402.555682 304.304 
L 406.254545 304.304 
L 409.953409 303.912 
L 413.652273 303.912 
L 417.351136 303.912 
L 421.05 303.912 
L 424.748864 303.52 
L 428.447727 303.128 
L 432.146591 303.128 
L 435.845455 302.344 
" style="fill:none;stroke:#2ca02c;stroke-linecap:square;stroke-width:1.5;"/>
   </g>
   <g id="patch_3">
    <path d="M 63 448.56 
L 63 60.48 
" style="fill:none;stroke:#000000;stroke-linecap:square;stroke-linejoin:miter;stroke-width:0.8;"/>
   </g>
   <g id="patch_4">
    <path d="M 453.6 448.56 
L 453.6 60.48 
" style="fill:none;stroke:#000000;stroke-linecap:square;stroke-linejoin:miter;stroke-width:0.8;"/>
   </g>
   <g id="patch_5">
    <path d="M 63 448.56 
L 453.6 448.56 
" style="fill:none;stroke:#000000;stroke-linecap:square;stroke-linejoin:miter;stroke-width:0.8;"/>
   </g>
   <g id="patch_6">
    <path d="M 63 60.48 
L 453.6 60.48 
" style="fill:none;stroke:#000000;stroke-linecap:square;stroke-linejoin:miter;stroke-width:0.8;"/>
   </g>
   <g id="legend_1">
    <g id="patch_7">
     <path d="M 409.390625 112.514375 
L 446.6 112.514375 
Q 448.6 112.514375 448.6 110.514375 
L 448.6 67.48 
Q 448.6 65.48 446.6 65.48 
L 409.390625 65.48 
Q 407.390625 65.48 407.390625 67.48 
L 407.390625 110.514375 
Q 407.390625 112.514375 409.390625 112.514375 
z
" style="fill:#ffffff;opacity:0.8;stroke:#cccccc;stroke-linejoin:miter;"/>
    </g>
    <g id="line2d_26">
     <path d="M 411.390625 73.578438 
L 431.390625 73.578438 
" style="fill:none;stroke:#1f77b4;stroke-linecap:square;stroke-width:1.5;"/>
    </g>
    <g id="line2d_27"/>
    <g id="text_14">
     <!-- s -->
     <g transform="translate(439.390625 77.078438)scale(0.1 -0.1)">
      <defs>
       <path d="M 2834 3397 
L 2834 2853 
Q 2591 2978 2328 3040 
Q 2066 3103 1784 3103 
Q 1356 3103 1142 2972 
Q 928 2841 928 2578 
Q 928 2378 1081 2264 
Q 1234 2150 1697 2047 
L 1894 2003 
Q 2506 1872 2764 1633 
Q 3022 1394 3022 966 
Q 3022 478 2636 193 
Q 2250 -91 1575 -91 
Q 1294 -91 989 -36 
Q 684 19 347 128 
L 347 722 
Q 666 556 975 473 
Q 1284 391 1588 391 
Q 1994 391 2212 530 
Q 2431 669 2431 922 
Q 2431 1156 2273 1281 
Q 2116 1406 1581 1522 
L 1381 1569 
Q 847 1681 609 1914 
Q 372 2147 372 2553 
Q 372 3047 722 3315 
Q 1072 3584 1716 3584 
Q 2034 3584 2315 3537 
Q 2597 3491 2834 3397 
z
" id="DejaVuSans-73" transform="scale(0.015625)"/>
      </defs>
      <use xlink:href="#DejaVuSans-73"/>
     </g>
    </g>
    <g id="line2d_28">
     <path d="M 411.390625 88.256563 
L 431.390625 88.256563 
" style="fill:none;stroke:#ff7f0e;stroke-linecap:square;stroke-width:1.5;"/>
    </g>
    <g id="line2d_29"/>
    <g id="text_15">
     <!-- i -->
     <g transform="translate(439.390625 91.756563)scale(0.1 -0.1)">
      <use xlink:href="#DejaVuSans-69"/>
     </g>
    </g>
    <g id="line2d_30">
     <path d="M 411.390625 102.934687 
L 431.390625 102.934687 
" style="fill:none;stroke:#2ca02c;stroke-linecap:square;stroke-width:1.5;"/>
    </g>
    <g id="line2d_31"/>
    <g id="text_16">
     <!-- r -->
     <g transform="translate(439.390625 106.434687)scale(0.1 -0.1)">
      <use xlink:href="#DejaVuSans-72"/>
     </g>
    </g>
   </g>
  </g>
 </g>
 <defs>
  <clipPath id="p60648efb06">
   <rect height="388.08" width="390.6" x="63" y="60.48"/>
  </clipPath>
 </defs>
</svg>
