<?xml version="1.0" encoding="utf-8" standalone="no"?>
<!DOCTYPE svg PUBLIC "-//W3C//DTD SVG 1.1//EN"
  "http://www.w3.org/Graphics/SVG/1.1/DTD/svg11.dtd">
<svg height="504pt" version="1.1" viewBox="0 0 504 504" width="504pt" xmlns="http://www.w3.org/2000/svg" xmlns:xlink="http://www.w3.org/1999/xlink">
 <metadata>
  <rdf:RDF xmlns:cc="http://creativecommons.org/ns#" xmlns:dc="http://purl.org/dc/elements/1.1/" xmlns:rdf="http://www.w3.org/1999/02/22-rdf-syntax-ns#">
   <cc:Work>
    <dc:type rdf:resource="http://purl.org/dc/dcmitype/StillImage"/>
    <dc:date>2021-07-05T02:31:49.317371</dc:date>
    <dc:format>image/svg+xml</dc:format>
    <dc:creator>
     <cc:Agent>
      <dc:title>Matplotlib v3.4.2, https://matplotlib.org/</dc:title>
     </cc:Agent>
    </dc:creator>
   </cc:Work>
  </rdf:RDF>
 </metadata>
 <defs>
  <style type="text/css">*{stroke-linecap:butt;stroke-linejoin:round;}</style>
 </defs>
 <g id="figure_1">
  <g id="patch_1">
   <path d="M 0 504 
L 504 504 
L 504 0 
L 0 0 
z
" style="fill:#ffffff;"/>
  </g>
  <g id="axes_1">
   <g id="patch_2">
    <path d="M 63 448.56 
L 453.6 448.56 
L 453.6 60.48 
L 63 60.48 
z
" style="fill:#ffffff;"/>
   </g>
   <g id="matplotlib.axis_1">
    <g id="xtick_1">
     <g id="line2d_1">
      <path clip-path="url(#p28341eeaa1)" d="M 80.754545 448.56 
L 80.754545 60.48 
" style="fill:none;stroke:#b0b0b0;stroke-linecap:square;stroke-width:0.8;"/>
     </g>
     <g id="line2d_2">
      <defs>
       <path d="M 0 0 
L 0 3.5 
" id="md9de23c1f2" style="stroke:#000000;stroke-width:0.8;"/>
      </defs>
      <g>
       <use style="stroke:#000000;stroke-width:0.8;" x="80.754545" xlink:href="#md9de23c1f2" y="448.56"/>
      </g>
     </g>
     <g id="text_1">
      <!-- 0 -->
      <g transform="translate(77.573295 463.158437)scale(0.1 -0.1)">
       <defs>
        <path d="M 2034 4250 
Q 1547 4250 1301 3770 
Q 1056 3291 1056 2328 
Q 1056 1369 1301 889 
Q 1547 409 2034 409 
Q 2525 409 2770 889 
Q 3016 1369 3016 2328 
Q 3016 3291 2770 3770 
Q 2525 4250 2034 4250 
z
M 2034 4750 
Q 2819 4750 3233 4129 
Q 3647 3509 3647 2328 
Q 3647 1150 3233 529 
Q 2819 -91 2034 -91 
Q 1250 -91 836 529 
Q 422 1150 422 2328 
Q 422 3509 836 4129 
Q 1250 4750 2034 4750 
z
" id="DejaVuSans-30" transform="scale(0.015625)"/>
       </defs>
       <use xlink:href="#DejaVuSans-30"/>
      </g>
     </g>
    </g>
    <g id="xtick_2">
     <g id="line2d_3">
      <path clip-path="url(#p28341eeaa1)" d="M 139.936364 448.56 
L 139.936364 60.48 
" style="fill:none;stroke:#b0b0b0;stroke-linecap:square;stroke-width:0.8;"/>
     </g>
     <g id="line2d_4">
      <g>
       <use style="stroke:#000000;stroke-width:0.8;" x="139.936364" xlink:href="#md9de23c1f2" y="448.56"/>
      </g>
     </g>
     <g id="text_2">
      <!-- 50 -->
      <g transform="translate(133.573864 463.158437)scale(0.1 -0.1)">
       <defs>
        <path d="M 691 4666 
L 3169 4666 
L 3169 4134 
L 1269 4134 
L 1269 2991 
Q 1406 3038 1543 3061 
Q 1681 3084 1819 3084 
Q 2600 3084 3056 2656 
Q 3513 2228 3513 1497 
Q 3513 744 3044 326 
Q 2575 -91 1722 -91 
Q 1428 -91 1123 -41 
Q 819 9 494 109 
L 494 744 
Q 775 591 1075 516 
Q 1375 441 1709 441 
Q 2250 441 2565 725 
Q 2881 1009 2881 1497 
Q 2881 1984 2565 2268 
Q 2250 2553 1709 2553 
Q 1456 2553 1204 2497 
Q 953 2441 691 2322 
L 691 4666 
z
" id="DejaVuSans-35" transform="scale(0.015625)"/>
       </defs>
       <use xlink:href="#DejaVuSans-35"/>
       <use x="63.623047" xlink:href="#DejaVuSans-30"/>
      </g>
     </g>
    </g>
    <g id="xtick_3">
     <g id="line2d_5">
      <path clip-path="url(#p28341eeaa1)" d="M 199.118182 448.56 
L 199.118182 60.48 
" style="fill:none;stroke:#b0b0b0;stroke-linecap:square;stroke-width:0.8;"/>
     </g>
     <g id="line2d_6">
      <g>
       <use style="stroke:#000000;stroke-width:0.8;" x="199.118182" xlink:href="#md9de23c1f2" y="448.56"/>
      </g>
     </g>
     <g id="text_3">
      <!-- 100 -->
      <g transform="translate(189.574432 463.158437)scale(0.1 -0.1)">
       <defs>
        <path d="M 794 531 
L 1825 531 
L 1825 4091 
L 703 3866 
L 703 4441 
L 1819 4666 
L 2450 4666 
L 2450 531 
L 3481 531 
L 3481 0 
L 794 0 
L 794 531 
z
" id="DejaVuSans-31" transform="scale(0.015625)"/>
       </defs>
       <use xlink:href="#DejaVuSans-31"/>
       <use x="63.623047" xlink:href="#DejaVuSans-30"/>
       <use x="127.246094" xlink:href="#DejaVuSans-30"/>
      </g>
     </g>
    </g>
    <g id="xtick_4">
     <g id="line2d_7">
      <path clip-path="url(#p28341eeaa1)" d="M 258.3 448.56 
L 258.3 60.48 
" style="fill:none;stroke:#b0b0b0;stroke-linecap:square;stroke-width:0.8;"/>
     </g>
     <g id="line2d_8">
      <g>
       <use style="stroke:#000000;stroke-width:0.8;" x="258.3" xlink:href="#md9de23c1f2" y="448.56"/>
      </g>
     </g>
     <g id="text_4">
      <!-- 150 -->
      <g transform="translate(248.75625 463.158437)scale(0.1 -0.1)">
       <use xlink:href="#DejaVuSans-31"/>
       <use x="63.623047" xlink:href="#DejaVuSans-35"/>
       <use x="127.246094" xlink:href="#DejaVuSans-30"/>
      </g>
     </g>
    </g>
    <g id="xtick_5">
     <g id="line2d_9">
      <path clip-path="url(#p28341eeaa1)" d="M 317.481818 448.56 
L 317.481818 60.48 
" style="fill:none;stroke:#b0b0b0;stroke-linecap:square;stroke-width:0.8;"/>
     </g>
     <g id="line2d_10">
      <g>
       <use style="stroke:#000000;stroke-width:0.8;" x="317.481818" xlink:href="#md9de23c1f2" y="448.56"/>
      </g>
     </g>
     <g id="text_5">
      <!-- 200 -->
      <g transform="translate(307.938068 463.158437)scale(0.1 -0.1)">
       <defs>
        <path d="M 1228 531 
L 3431 531 
L 3431 0 
L 469 0 
L 469 531 
Q 828 903 1448 1529 
Q 2069 2156 2228 2338 
Q 2531 2678 2651 2914 
Q 2772 3150 2772 3378 
Q 2772 3750 2511 3984 
Q 2250 4219 1831 4219 
Q 1534 4219 1204 4116 
Q 875 4013 500 3803 
L 500 4441 
Q 881 4594 1212 4672 
Q 1544 4750 1819 4750 
Q 2544 4750 2975 4387 
Q 3406 4025 3406 3419 
Q 3406 3131 3298 2873 
Q 3191 2616 2906 2266 
Q 2828 2175 2409 1742 
Q 1991 1309 1228 531 
z
" id="DejaVuSans-32" transform="scale(0.015625)"/>
       </defs>
       <use xlink:href="#DejaVuSans-32"/>
       <use x="63.623047" xlink:href="#DejaVuSans-30"/>
       <use x="127.246094" xlink:href="#DejaVuSans-30"/>
      </g>
     </g>
    </g>
    <g id="xtick_6">
     <g id="line2d_11">
      <path clip-path="url(#p28341eeaa1)" d="M 376.663636 448.56 
L 376.663636 60.48 
" style="fill:none;stroke:#b0b0b0;stroke-linecap:square;stroke-width:0.8;"/>
     </g>
     <g id="line2d_12">
      <g>
       <use style="stroke:#000000;stroke-width:0.8;" x="376.663636" xlink:href="#md9de23c1f2" y="448.56"/>
      </g>
     </g>
     <g id="text_6">
      <!-- 250 -->
      <g transform="translate(367.119886 463.158437)scale(0.1 -0.1)">
       <use xlink:href="#DejaVuSans-32"/>
       <use x="63.623047" xlink:href="#DejaVuSans-35"/>
       <use x="127.246094" xlink:href="#DejaVuSans-30"/>
      </g>
     </g>
    </g>
    <g id="xtick_7">
     <g id="line2d_13">
      <path clip-path="url(#p28341eeaa1)" d="M 435.845455 448.56 
L 435.845455 60.48 
" style="fill:none;stroke:#b0b0b0;stroke-linecap:square;stroke-width:0.8;"/>
     </g>
     <g id="line2d_14">
      <g>
       <use style="stroke:#000000;stroke-width:0.8;" x="435.845455" xlink:href="#md9de23c1f2" y="448.56"/>
      </g>
     </g>
     <g id="text_7">
      <!-- 300 -->
      <g transform="translate(426.301705 463.158437)scale(0.1 -0.1)">
       <defs>
        <path d="M 2597 2516 
Q 3050 2419 3304 2112 
Q 3559 1806 3559 1356 
Q 3559 666 3084 287 
Q 2609 -91 1734 -91 
Q 1441 -91 1130 -33 
Q 819 25 488 141 
L 488 750 
Q 750 597 1062 519 
Q 1375 441 1716 441 
Q 2309 441 2620 675 
Q 2931 909 2931 1356 
Q 2931 1769 2642 2001 
Q 2353 2234 1838 2234 
L 1294 2234 
L 1294 2753 
L 1863 2753 
Q 2328 2753 2575 2939 
Q 2822 3125 2822 3475 
Q 2822 3834 2567 4026 
Q 2313 4219 1838 4219 
Q 1578 4219 1281 4162 
Q 984 4106 628 3988 
L 628 4550 
Q 988 4650 1302 4700 
Q 1616 4750 1894 4750 
Q 2613 4750 3031 4423 
Q 3450 4097 3450 3541 
Q 3450 3153 3228 2886 
Q 3006 2619 2597 2516 
z
" id="DejaVuSans-33" transform="scale(0.015625)"/>
       </defs>
       <use xlink:href="#DejaVuSans-33"/>
       <use x="63.623047" xlink:href="#DejaVuSans-30"/>
       <use x="127.246094" xlink:href="#DejaVuSans-30"/>
      </g>
     </g>
    </g>
    <g id="text_8">
     <!-- Iteration -->
     <g transform="translate(237.091406 476.836563)scale(0.1 -0.1)">
      <defs>
       <path d="M 628 4666 
L 1259 4666 
L 1259 0 
L 628 0 
L 628 4666 
z
" id="DejaVuSans-49" transform="scale(0.015625)"/>
       <path d="M 1172 4494 
L 1172 3500 
L 2356 3500 
L 2356 3053 
L 1172 3053 
L 1172 1153 
Q 1172 725 1289 603 
Q 1406 481 1766 481 
L 2356 481 
L 2356 0 
L 1766 0 
Q 1100 0 847 248 
Q 594 497 594 1153 
L 594 3053 
L 172 3053 
L 172 3500 
L 594 3500 
L 594 4494 
L 1172 4494 
z
" id="DejaVuSans-74" transform="scale(0.015625)"/>
       <path d="M 3597 1894 
L 3597 1613 
L 953 1613 
Q 991 1019 1311 708 
Q 1631 397 2203 397 
Q 2534 397 2845 478 
Q 3156 559 3463 722 
L 3463 178 
Q 3153 47 2828 -22 
Q 2503 -91 2169 -91 
Q 1331 -91 842 396 
Q 353 884 353 1716 
Q 353 2575 817 3079 
Q 1281 3584 2069 3584 
Q 2775 3584 3186 3129 
Q 3597 2675 3597 1894 
z
M 3022 2063 
Q 3016 2534 2758 2815 
Q 2500 3097 2075 3097 
Q 1594 3097 1305 2825 
Q 1016 2553 972 2059 
L 3022 2063 
z
" id="DejaVuSans-65" transform="scale(0.015625)"/>
       <path d="M 2631 2963 
Q 2534 3019 2420 3045 
Q 2306 3072 2169 3072 
Q 1681 3072 1420 2755 
Q 1159 2438 1159 1844 
L 1159 0 
L 581 0 
L 581 3500 
L 1159 3500 
L 1159 2956 
Q 1341 3275 1631 3429 
Q 1922 3584 2338 3584 
Q 2397 3584 2469 3576 
Q 2541 3569 2628 3553 
L 2631 2963 
z
" id="DejaVuSans-72" transform="scale(0.015625)"/>
       <path d="M 2194 1759 
Q 1497 1759 1228 1600 
Q 959 1441 959 1056 
Q 959 750 1161 570 
Q 1363 391 1709 391 
Q 2188 391 2477 730 
Q 2766 1069 2766 1631 
L 2766 1759 
L 2194 1759 
z
M 3341 1997 
L 3341 0 
L 2766 0 
L 2766 531 
Q 2569 213 2275 61 
Q 1981 -91 1556 -91 
Q 1019 -91 701 211 
Q 384 513 384 1019 
Q 384 1609 779 1909 
Q 1175 2209 1959 2209 
L 2766 2209 
L 2766 2266 
Q 2766 2663 2505 2880 
Q 2244 3097 1772 3097 
Q 1472 3097 1187 3025 
Q 903 2953 641 2809 
L 641 3341 
Q 956 3463 1253 3523 
Q 1550 3584 1831 3584 
Q 2591 3584 2966 3190 
Q 3341 2797 3341 1997 
z
" id="DejaVuSans-61" transform="scale(0.015625)"/>
       <path d="M 603 3500 
L 1178 3500 
L 1178 0 
L 603 0 
L 603 3500 
z
M 603 4863 
L 1178 4863 
L 1178 4134 
L 603 4134 
L 603 4863 
z
" id="DejaVuSans-69" transform="scale(0.015625)"/>
       <path d="M 1959 3097 
Q 1497 3097 1228 2736 
Q 959 2375 959 1747 
Q 959 1119 1226 758 
Q 1494 397 1959 397 
Q 2419 397 2687 759 
Q 2956 1122 2956 1747 
Q 2956 2369 2687 2733 
Q 2419 3097 1959 3097 
z
M 1959 3584 
Q 2709 3584 3137 3096 
Q 3566 2609 3566 1747 
Q 3566 888 3137 398 
Q 2709 -91 1959 -91 
Q 1206 -91 779 398 
Q 353 888 353 1747 
Q 353 2609 779 3096 
Q 1206 3584 1959 3584 
z
" id="DejaVuSans-6f" transform="scale(0.015625)"/>
       <path d="M 3513 2113 
L 3513 0 
L 2938 0 
L 2938 2094 
Q 2938 2591 2744 2837 
Q 2550 3084 2163 3084 
Q 1697 3084 1428 2787 
Q 1159 2491 1159 1978 
L 1159 0 
L 581 0 
L 581 3500 
L 1159 3500 
L 1159 2956 
Q 1366 3272 1645 3428 
Q 1925 3584 2291 3584 
Q 2894 3584 3203 3211 
Q 3513 2838 3513 2113 
z
" id="DejaVuSans-6e" transform="scale(0.015625)"/>
      </defs>
      <use xlink:href="#DejaVuSans-49"/>
      <use x="29.492188" xlink:href="#DejaVuSans-74"/>
      <use x="68.701172" xlink:href="#DejaVuSans-65"/>
      <use x="130.224609" xlink:href="#DejaVuSans-72"/>
      <use x="171.337891" xlink:href="#DejaVuSans-61"/>
      <use x="232.617188" xlink:href="#DejaVuSans-74"/>
      <use x="271.826172" xlink:href="#DejaVuSans-69"/>
      <use x="299.609375" xlink:href="#DejaVuSans-6f"/>
      <use x="360.791016" xlink:href="#DejaVuSans-6e"/>
     </g>
    </g>
   </g>
   <g id="matplotlib.axis_2">
    <g id="ytick_1">
     <g id="line2d_15">
      <path clip-path="url(#p28341eeaa1)" d="M 63 430.92 
L 453.6 430.92 
" style="fill:none;stroke:#b0b0b0;stroke-linecap:square;stroke-width:0.8;"/>
     </g>
     <g id="line2d_16">
      <defs>
       <path d="M 0 0 
L -3.5 0 
" id="mc5763d747c" style="stroke:#000000;stroke-width:0.8;"/>
      </defs>
      <g>
       <use style="stroke:#000000;stroke-width:0.8;" x="63" xlink:href="#mc5763d747c" y="430.92"/>
      </g>
     </g>
     <g id="text_9">
      <!-- 0 -->
      <g transform="translate(49.6375 434.719219)scale(0.1 -0.1)">
       <use xlink:href="#DejaVuSans-30"/>
      </g>
     </g>
    </g>
    <g id="ytick_2">
     <g id="line2d_17">
      <path clip-path="url(#p28341eeaa1)" d="M 63 352.52 
L 453.6 352.52 
" style="fill:none;stroke:#b0b0b0;stroke-linecap:square;stroke-width:0.8;"/>
     </g>
     <g id="line2d_18">
      <g>
       <use style="stroke:#000000;stroke-width:0.8;" x="63" xlink:href="#mc5763d747c" y="352.52"/>
      </g>
     </g>
     <g id="text_10">
      <!-- 200 -->
      <g transform="translate(36.9125 356.319219)scale(0.1 -0.1)">
       <use xlink:href="#DejaVuSans-32"/>
       <use x="63.623047" xlink:href="#DejaVuSans-30"/>
       <use x="127.246094" xlink:href="#DejaVuSans-30"/>
      </g>
     </g>
    </g>
    <g id="ytick_3">
     <g id="line2d_19">
      <path clip-path="url(#p28341eeaa1)" d="M 63 274.12 
L 453.6 274.12 
" style="fill:none;stroke:#b0b0b0;stroke-linecap:square;stroke-width:0.8;"/>
     </g>
     <g id="line2d_20">
      <g>
       <use style="stroke:#000000;stroke-width:0.8;" x="63" xlink:href="#mc5763d747c" y="274.12"/>
      </g>
     </g>
     <g id="text_11">
      <!-- 400 -->
      <g transform="translate(36.9125 277.919219)scale(0.1 -0.1)">
       <defs>
        <path d="M 2419 4116 
L 825 1625 
L 2419 1625 
L 2419 4116 
z
M 2253 4666 
L 3047 4666 
L 3047 1625 
L 3713 1625 
L 3713 1100 
L 3047 1100 
L 3047 0 
L 2419 0 
L 2419 1100 
L 313 1100 
L 313 1709 
L 2253 4666 
z
" id="DejaVuSans-34" transform="scale(0.015625)"/>
       </defs>
       <use xlink:href="#DejaVuSans-34"/>
       <use x="63.623047" xlink:href="#DejaVuSans-30"/>
       <use x="127.246094" xlink:href="#DejaVuSans-30"/>
      </g>
     </g>
    </g>
    <g id="ytick_4">
     <g id="line2d_21">
      <path clip-path="url(#p28341eeaa1)" d="M 63 195.72 
L 453.6 195.72 
" style="fill:none;stroke:#b0b0b0;stroke-linecap:square;stroke-width:0.8;"/>
     </g>
     <g id="line2d_22">
      <g>
       <use style="stroke:#000000;stroke-width:0.8;" x="63" xlink:href="#mc5763d747c" y="195.72"/>
      </g>
     </g>
     <g id="text_12">
      <!-- 600 -->
      <g transform="translate(36.9125 199.519219)scale(0.1 -0.1)">
       <defs>
        <path d="M 2113 2584 
Q 1688 2584 1439 2293 
Q 1191 2003 1191 1497 
Q 1191 994 1439 701 
Q 1688 409 2113 409 
Q 2538 409 2786 701 
Q 3034 994 3034 1497 
Q 3034 2003 2786 2293 
Q 2538 2584 2113 2584 
z
M 3366 4563 
L 3366 3988 
Q 3128 4100 2886 4159 
Q 2644 4219 2406 4219 
Q 1781 4219 1451 3797 
Q 1122 3375 1075 2522 
Q 1259 2794 1537 2939 
Q 1816 3084 2150 3084 
Q 2853 3084 3261 2657 
Q 3669 2231 3669 1497 
Q 3669 778 3244 343 
Q 2819 -91 2113 -91 
Q 1303 -91 875 529 
Q 447 1150 447 2328 
Q 447 3434 972 4092 
Q 1497 4750 2381 4750 
Q 2619 4750 2861 4703 
Q 3103 4656 3366 4563 
z
" id="DejaVuSans-36" transform="scale(0.015625)"/>
       </defs>
       <use xlink:href="#DejaVuSans-36"/>
       <use x="63.623047" xlink:href="#DejaVuSans-30"/>
       <use x="127.246094" xlink:href="#DejaVuSans-30"/>
      </g>
     </g>
    </g>
    <g id="ytick_5">
     <g id="line2d_23">
      <path clip-path="url(#p28341eeaa1)" d="M 63 117.32 
L 453.6 117.32 
" style="fill:none;stroke:#b0b0b0;stroke-linecap:square;stroke-width:0.8;"/>
     </g>
     <g id="line2d_24">
      <g>
       <use style="stroke:#000000;stroke-width:0.8;" x="63" xlink:href="#mc5763d747c" y="117.32"/>
      </g>
     </g>
     <g id="text_13">
      <!-- 800 -->
      <g transform="translate(36.9125 121.119219)scale(0.1 -0.1)">
       <defs>
        <path d="M 2034 2216 
Q 1584 2216 1326 1975 
Q 1069 1734 1069 1313 
Q 1069 891 1326 650 
Q 1584 409 2034 409 
Q 2484 409 2743 651 
Q 3003 894 3003 1313 
Q 3003 1734 2745 1975 
Q 2488 2216 2034 2216 
z
M 1403 2484 
Q 997 2584 770 2862 
Q 544 3141 544 3541 
Q 544 4100 942 4425 
Q 1341 4750 2034 4750 
Q 2731 4750 3128 4425 
Q 3525 4100 3525 3541 
Q 3525 3141 3298 2862 
Q 3072 2584 2669 2484 
Q 3125 2378 3379 2068 
Q 3634 1759 3634 1313 
Q 3634 634 3220 271 
Q 2806 -91 2034 -91 
Q 1263 -91 848 271 
Q 434 634 434 1313 
Q 434 1759 690 2068 
Q 947 2378 1403 2484 
z
M 1172 3481 
Q 1172 3119 1398 2916 
Q 1625 2713 2034 2713 
Q 2441 2713 2670 2916 
Q 2900 3119 2900 3481 
Q 2900 3844 2670 4047 
Q 2441 4250 2034 4250 
Q 1625 4250 1398 4047 
Q 1172 3844 1172 3481 
z
" id="DejaVuSans-38" transform="scale(0.015625)"/>
       </defs>
       <use xlink:href="#DejaVuSans-38"/>
       <use x="63.623047" xlink:href="#DejaVuSans-30"/>
       <use x="127.246094" xlink:href="#DejaVuSans-30"/>
      </g>
     </g>
    </g>
    <g id="text_14">
     <!-- Node count -->
     <g transform="translate(30.832812 283.266094)rotate(-90)scale(0.1 -0.1)">
      <defs>
       <path d="M 628 4666 
L 1478 4666 
L 3547 763 
L 3547 4666 
L 4159 4666 
L 4159 0 
L 3309 0 
L 1241 3903 
L 1241 0 
L 628 0 
L 628 4666 
z
" id="DejaVuSans-4e" transform="scale(0.015625)"/>
       <path d="M 2906 2969 
L 2906 4863 
L 3481 4863 
L 3481 0 
L 2906 0 
L 2906 525 
Q 2725 213 2448 61 
Q 2172 -91 1784 -91 
Q 1150 -91 751 415 
Q 353 922 353 1747 
Q 353 2572 751 3078 
Q 1150 3584 1784 3584 
Q 2172 3584 2448 3432 
Q 2725 3281 2906 2969 
z
M 947 1747 
Q 947 1113 1208 752 
Q 1469 391 1925 391 
Q 2381 391 2643 752 
Q 2906 1113 2906 1747 
Q 2906 2381 2643 2742 
Q 2381 3103 1925 3103 
Q 1469 3103 1208 2742 
Q 947 2381 947 1747 
z
" id="DejaVuSans-64" transform="scale(0.015625)"/>
       <path id="DejaVuSans-20" transform="scale(0.015625)"/>
       <path d="M 3122 3366 
L 3122 2828 
Q 2878 2963 2633 3030 
Q 2388 3097 2138 3097 
Q 1578 3097 1268 2742 
Q 959 2388 959 1747 
Q 959 1106 1268 751 
Q 1578 397 2138 397 
Q 2388 397 2633 464 
Q 2878 531 3122 666 
L 3122 134 
Q 2881 22 2623 -34 
Q 2366 -91 2075 -91 
Q 1284 -91 818 406 
Q 353 903 353 1747 
Q 353 2603 823 3093 
Q 1294 3584 2113 3584 
Q 2378 3584 2631 3529 
Q 2884 3475 3122 3366 
z
" id="DejaVuSans-63" transform="scale(0.015625)"/>
       <path d="M 544 1381 
L 544 3500 
L 1119 3500 
L 1119 1403 
Q 1119 906 1312 657 
Q 1506 409 1894 409 
Q 2359 409 2629 706 
Q 2900 1003 2900 1516 
L 2900 3500 
L 3475 3500 
L 3475 0 
L 2900 0 
L 2900 538 
Q 2691 219 2414 64 
Q 2138 -91 1772 -91 
Q 1169 -91 856 284 
Q 544 659 544 1381 
z
M 1991 3584 
L 1991 3584 
z
" id="DejaVuSans-75" transform="scale(0.015625)"/>
      </defs>
      <use xlink:href="#DejaVuSans-4e"/>
      <use x="74.804688" xlink:href="#DejaVuSans-6f"/>
      <use x="135.986328" xlink:href="#DejaVuSans-64"/>
      <use x="199.462891" xlink:href="#DejaVuSans-65"/>
      <use x="260.986328" xlink:href="#DejaVuSans-20"/>
      <use x="292.773438" xlink:href="#DejaVuSans-63"/>
      <use x="347.753906" xlink:href="#DejaVuSans-6f"/>
      <use x="408.935547" xlink:href="#DejaVuSans-75"/>
      <use x="472.314453" xlink:href="#DejaVuSans-6e"/>
      <use x="535.693359" xlink:href="#DejaVuSans-74"/>
     </g>
    </g>
   </g>
   <g id="line2d_25">
    <path clip-path="url(#p28341eeaa1)" d="M 80.754545 78.12 
L 81.938182 148.68 
L 84.305455 324.296 
L 85.489091 386.232 
L 86.672727 414.456 
L 87.856364 425.432 
L 90.223636 430.136 
L 91.407273 430.92 
L 435.845455 430.92 
L 435.845455 430.92 
" style="fill:none;stroke:#1f77b4;stroke-linecap:square;stroke-width:1.5;"/>
   </g>
   <g id="line2d_26">
    <path clip-path="url(#p28341eeaa1)" d="M 80.754545 411.32 
L 81.938182 381.92 
L 83.121818 358.4 
L 84.305455 322.728 
L 85.489091 325.472 
L 86.672727 308.616 
L 87.856364 309.792 
L 89.04 312.536 
L 90.223636 310.576 
L 91.407273 310.184 
L 92.590909 311.36 
L 93.774545 317.24 
L 94.958182 300.776 
L 96.141818 306.264 
L 97.325455 309.008 
L 98.509091 310.184 
L 99.692727 303.912 
L 100.876364 304.696 
L 102.06 298.816 
L 103.243636 311.36 
L 104.427273 303.128 
L 105.610909 303.128 
L 106.794545 294.504 
L 107.978182 284.704 
L 109.161818 283.528 
L 110.345455 287.448 
L 111.529091 280.784 
L 112.712727 279.216 
L 113.896364 293.72 
L 115.08 287.84 
L 116.263636 299.992 
L 117.447273 290.192 
L 118.630909 295.288 
L 119.814545 286.664 
L 120.998182 292.544 
L 122.181818 292.544 
L 123.365455 286.664 
L 124.549091 303.52 
L 125.732727 306.264 
L 126.916364 307.048 
L 128.1 308.616 
L 129.283636 312.536 
L 130.467273 310.184 
L 131.650909 310.576 
L 132.834545 306.656 
L 134.018182 302.344 
L 135.201818 305.088 
L 136.385455 310.968 
L 137.569091 304.696 
L 138.752727 308.616 
L 139.936364 313.32 
L 141.12 316.064 
L 142.303636 310.576 
L 143.487273 307.832 
L 144.670909 315.28 
L 145.854545 309.4 
L 147.038182 312.536 
L 148.221818 308.224 
L 149.405455 323.512 
L 150.589091 321.552 
L 151.772727 321.944 
L 152.956364 317.632 
L 154.14 330.176 
L 155.323636 325.864 
L 156.507273 324.688 
L 157.690909 330.176 
L 158.874545 331.352 
L 160.058182 329.784 
L 161.241818 333.312 
L 162.425455 315.28 
L 163.609091 313.712 
L 164.792727 313.32 
L 165.976364 309.008 
L 167.16 313.32 
L 168.343636 312.144 
L 169.527273 318.024 
L 170.710909 312.928 
L 171.894545 311.752 
L 173.078182 305.088 
L 174.261818 303.912 
L 175.445455 298.816 
L 176.629091 294.896 
L 177.812727 296.856 
L 178.996364 290.192 
L 180.18 301.168 
L 181.363636 290.584 
L 182.547273 294.112 
L 183.730909 299.208 
L 184.914545 291.76 
L 186.098182 294.896 
L 187.281818 294.504 
L 188.465455 295.68 
L 189.649091 297.248 
L 190.832727 311.36 
L 192.016364 309.008 
L 193.2 301.56 
L 194.383636 305.088 
L 195.567273 307.832 
L 196.750909 309.4 
L 197.934545 294.112 
L 199.118182 304.304 
L 200.301818 302.736 
L 201.485455 315.672 
L 202.669091 318.416 
L 203.852727 312.928 
L 205.036364 314.496 
L 206.22 303.128 
L 207.403636 305.48 
L 208.587273 303.52 
L 209.770909 302.736 
L 212.138182 305.088 
L 213.321818 310.184 
L 214.505455 302.736 
L 215.689091 305.48 
L 216.872727 306.264 
L 218.056364 294.504 
L 219.24 292.544 
L 220.423636 292.544 
L 221.607273 297.64 
L 222.790909 292.544 
L 223.974545 296.464 
L 225.158182 296.072 
L 226.341818 291.368 
L 227.525455 288.232 
L 228.709091 293.328 
L 229.892727 292.544 
L 231.076364 291.368 
L 232.26 303.128 
L 233.443636 302.344 
L 234.627273 298.032 
L 235.810909 301.56 
L 236.994545 303.52 
L 238.178182 301.168 
L 239.361818 302.736 
L 240.545455 309.008 
L 241.729091 307.048 
L 242.912727 309.008 
L 244.096364 308.616 
L 245.28 306.264 
L 246.463636 297.248 
L 247.647273 303.912 
L 248.830909 312.928 
L 250.014545 316.064 
L 251.198182 309.4 
L 252.381818 321.552 
L 253.565455 320.768 
L 254.749091 321.944 
L 255.932727 331.352 
L 257.116364 323.904 
L 258.3 319.592 
L 259.483636 313.712 
L 260.667273 311.752 
L 261.850909 307.44 
L 263.034545 309.792 
L 264.218182 295.288 
L 265.401818 294.112 
L 266.585455 296.464 
L 267.769091 293.328 
L 268.952727 294.896 
L 270.136364 291.368 
L 271.32 294.504 
L 272.503636 296.464 
L 273.687273 303.128 
L 274.870909 302.344 
L 276.054545 302.344 
L 277.238182 299.208 
L 278.421818 300.776 
L 279.605455 303.128 
L 280.789091 306.264 
L 281.972727 305.872 
L 283.156364 311.36 
L 285.523636 300.776 
L 286.707273 299.208 
L 287.890909 298.424 
L 289.074545 296.464 
L 290.258182 300.384 
L 292.625455 316.848 
L 293.809091 305.088 
L 294.992727 303.128 
L 296.176364 299.992 
L 297.36 299.208 
L 298.543636 292.936 
L 299.727273 283.92 
L 300.910909 283.92 
L 302.094545 292.936 
L 303.278182 290.976 
L 304.461818 292.936 
L 305.645455 294.504 
L 306.829091 309.792 
L 308.012727 306.656 
L 309.196364 301.952 
L 310.38 300.776 
L 311.563636 293.72 
L 312.747273 296.072 
L 313.930909 299.208 
L 315.114545 301.952 
L 316.298182 294.504 
L 317.481818 280 
L 318.665455 292.936 
L 319.849091 298.816 
L 322.216364 298.816 
L 323.4 294.504 
L 324.583636 297.248 
L 325.767273 298.424 
L 326.950909 294.504 
L 328.134545 298.816 
L 329.318182 301.952 
L 330.501818 296.856 
L 331.685455 300.776 
L 332.869091 290.976 
L 334.052727 294.896 
L 335.236364 296.072 
L 336.42 291.368 
L 337.603636 302.736 
L 338.787273 300.776 
L 339.970909 298.032 
L 341.154545 296.856 
L 342.338182 306.656 
L 343.521818 301.952 
L 344.705455 301.56 
L 345.889091 302.344 
L 347.072727 304.304 
L 348.256364 306.656 
L 349.44 299.208 
L 350.623636 303.912 
L 351.807273 299.208 
L 352.990909 301.168 
L 354.174545 299.992 
L 355.358182 297.64 
L 356.541818 301.952 
L 357.725455 296.464 
L 358.909091 299.208 
L 360.092727 295.68 
L 361.276364 305.48 
L 363.643636 311.752 
L 364.827273 318.024 
L 366.010909 312.144 
L 367.194545 319.592 
L 368.378182 317.632 
L 369.561818 309.792 
L 370.745455 309.008 
L 371.929091 303.52 
L 373.112727 304.696 
L 374.296364 304.304 
L 375.48 308.224 
L 376.663636 309.4 
L 377.847273 312.536 
L 379.030909 313.32 
L 380.214545 319.2 
L 381.398182 313.712 
L 382.581818 313.712 
L 383.765455 311.752 
L 384.949091 311.752 
L 386.132727 301.56 
L 387.316364 297.64 
L 388.5 294.112 
L 389.683636 303.52 
L 390.867273 289.408 
L 392.050909 289.016 
L 393.234545 283.136 
L 394.418182 285.88 
L 395.601818 287.448 
L 396.785455 290.192 
L 397.969091 285.88 
L 399.152727 285.88 
L 400.336364 282.744 
L 401.52 285.488 
L 402.703636 285.488 
L 403.887273 294.504 
L 405.070909 284.312 
L 406.254545 287.448 
L 407.438182 291.368 
L 408.621818 296.072 
L 409.805455 293.328 
L 410.989091 278.04 
L 412.172727 283.92 
L 413.356364 284.312 
L 414.54 275.688 
L 415.723636 274.12 
L 416.907273 287.84 
L 418.090909 287.84 
L 419.274545 292.544 
L 420.458182 292.936 
L 421.641818 287.84 
L 422.825455 275.296 
L 424.009091 284.312 
L 425.192727 294.504 
L 427.56 288.232 
L 428.743636 294.112 
L 429.927273 300.776 
L 431.110909 298.424 
L 432.294545 296.464 
L 433.478182 297.248 
L 434.661818 296.464 
L 435.845455 300.776 
L 435.845455 300.776 
" style="fill:none;stroke:#ff7f0e;stroke-linecap:square;stroke-width:1.5;"/>
   </g>
   <g id="line2d_27">
    <path clip-path="url(#p28341eeaa1)" d="M 80.754545 411.32 
L 81.938182 389.368 
L 83.121818 356.832 
L 84.305455 328.216 
L 85.489091 312.144 
L 86.672727 303.128 
L 87.856364 301.56 
L 89.04 288.232 
L 90.223636 298.032 
L 91.407273 289.8 
L 92.590909 291.368 
L 93.774545 294.896 
L 94.958182 295.68 
L 96.141818 290.976 
L 97.325455 298.424 
L 98.509091 300.384 
L 99.692727 303.128 
L 100.876364 304.304 
L 102.06 298.424 
L 103.243636 299.208 
L 104.427273 298.816 
L 105.610909 297.248 
L 106.794545 307.832 
L 107.978182 312.144 
L 109.161818 320.768 
L 110.345455 314.888 
L 111.529091 315.672 
L 112.712727 317.632 
L 113.896364 319.2 
L 115.08 315.672 
L 116.263636 307.44 
L 117.447273 305.088 
L 118.630909 305.872 
L 119.814545 309.4 
L 120.998182 305.088 
L 122.181818 311.36 
L 123.365455 316.064 
L 124.549091 312.536 
L 125.732727 308.616 
L 126.916364 301.168 
L 128.1 299.6 
L 129.283636 294.896 
L 130.467273 293.72 
L 131.650909 296.464 
L 132.834545 292.152 
L 134.018182 291.368 
L 135.201818 288.232 
L 136.385455 291.368 
L 137.569091 294.896 
L 138.752727 283.92 
L 139.936364 287.84 
L 141.12 289.408 
L 142.303636 299.208 
L 143.487273 296.072 
L 144.670909 295.68 
L 145.854545 299.992 
L 147.038182 293.72 
L 148.221818 284.312 
L 149.405455 283.528 
L 150.589091 285.096 
L 151.772727 283.528 
L 152.956364 282.744 
L 154.14 278.04 
L 155.323636 270.592 
L 156.507273 278.04 
L 157.690909 275.688 
L 158.874545 278.432 
L 160.058182 280.784 
L 161.241818 286.664 
L 162.425455 285.096 
L 163.609091 300.384 
L 164.792727 280.784 
L 165.976364 296.464 
L 167.16 284.704 
L 168.343636 288.232 
L 169.527273 281.96 
L 170.710909 284.312 
L 173.078182 307.048 
L 174.261818 305.48 
L 175.445455 315.672 
L 176.629091 309.792 
L 177.812727 308.616 
L 178.996364 317.24 
L 180.18 305.088 
L 181.363636 304.696 
L 182.547273 310.184 
L 183.730909 314.888 
L 184.914545 308.224 
L 186.098182 306.656 
L 187.281818 301.168 
L 188.465455 303.52 
L 189.649091 292.936 
L 190.832727 288.624 
L 192.016364 291.76 
L 193.2 293.72 
L 194.383636 296.072 
L 195.567273 301.952 
L 196.750909 301.168 
L 197.934545 298.032 
L 199.118182 292.544 
L 200.301818 292.152 
L 201.485455 287.84 
L 202.669091 287.84 
L 203.852727 289.016 
L 205.036364 298.816 
L 206.22 295.288 
L 207.403636 293.328 
L 208.587273 301.168 
L 209.770909 305.088 
L 210.954545 299.208 
L 212.138182 299.992 
L 213.321818 303.912 
L 214.505455 301.952 
L 215.689091 299.6 
L 218.056364 313.32 
L 219.24 301.952 
L 220.423636 304.304 
L 221.607273 307.44 
L 222.790909 308.224 
L 223.974545 295.288 
L 225.158182 308.224 
L 226.341818 304.304 
L 227.525455 311.752 
L 228.709091 309.792 
L 229.892727 303.128 
L 231.076364 303.912 
L 233.443636 295.288 
L 234.627273 299.6 
L 235.810909 301.952 
L 236.994545 297.248 
L 238.178182 304.304 
L 239.361818 297.248 
L 240.545455 294.112 
L 241.729091 291.368 
L 242.912727 292.544 
L 244.096364 301.168 
L 245.28 299.6 
L 246.463636 302.736 
L 247.647273 294.112 
L 248.830909 291.368 
L 250.014545 292.152 
L 251.198182 289.016 
L 252.381818 274.904 
L 253.565455 268.24 
L 254.749091 275.296 
L 255.932727 281.176 
L 257.116364 291.76 
L 258.3 286.664 
L 259.483636 288.232 
L 260.667273 289.408 
L 261.850909 295.68 
L 263.034545 303.52 
L 264.218182 292.544 
L 265.401818 295.68 
L 266.585455 303.128 
L 267.769091 307.832 
L 268.952727 310.184 
L 270.136364 316.064 
L 271.32 305.872 
L 272.503636 304.304 
L 273.687273 300.384 
L 274.870909 309.4 
L 276.054545 306.264 
L 277.238182 301.56 
L 278.421818 298.032 
L 279.605455 302.344 
L 280.789091 299.6 
L 281.972727 294.504 
L 283.156364 293.328 
L 284.34 296.856 
L 285.523636 293.328 
L 286.707273 303.52 
L 287.890909 301.56 
L 289.074545 290.584 
L 290.258182 293.328 
L 291.441818 287.448 
L 292.625455 279.608 
L 293.809091 300.384 
L 294.992727 290.584 
L 296.176364 307.44 
L 297.36 310.576 
L 298.543636 312.144 
L 299.727273 314.888 
L 300.910909 311.752 
L 302.094545 303.912 
L 303.278182 304.304 
L 304.461818 301.56 
L 305.645455 295.68 
L 306.829091 294.112 
L 308.012727 289.8 
L 309.196364 298.424 
L 310.38 298.816 
L 311.563636 310.184 
L 312.747273 301.952 
L 313.930909 307.832 
L 315.114545 314.888 
L 316.298182 307.44 
L 317.481818 309.008 
L 318.665455 311.752 
L 319.849091 295.68 
L 321.032727 302.344 
L 322.216364 305.872 
L 323.4 308.224 
L 324.583636 300.776 
L 325.767273 299.6 
L 326.950909 308.616 
L 328.134545 311.36 
L 329.318182 310.184 
L 330.501818 317.632 
L 331.685455 308.616 
L 332.869091 306.656 
L 334.052727 308.616 
L 335.236364 311.752 
L 336.42 309.792 
L 337.603636 303.52 
L 338.787273 301.168 
L 339.970909 305.872 
L 341.154545 303.912 
L 342.338182 307.832 
L 343.521818 292.544 
L 344.705455 290.192 
L 345.889091 292.152 
L 347.072727 295.68 
L 348.256364 304.304 
L 349.44 294.896 
L 350.623636 293.328 
L 351.807273 296.464 
L 352.990909 303.912 
L 354.174545 301.168 
L 355.358182 310.184 
L 356.541818 307.048 
L 357.725455 310.968 
L 358.909091 302.736 
L 360.092727 304.696 
L 361.276364 293.328 
L 362.46 300.776 
L 363.643636 285.096 
L 364.827273 280.392 
L 366.010909 288.232 
L 367.194545 287.056 
L 368.378182 289.016 
L 369.561818 293.72 
L 370.745455 302.344 
L 371.929091 297.64 
L 373.112727 300.384 
L 374.296364 295.288 
L 375.48 295.68 
L 376.663636 300.384 
L 377.847273 295.288 
L 379.030909 285.488 
L 380.214545 272.552 
L 381.398182 290.192 
L 382.581818 286.664 
L 383.765455 298.032 
L 384.949091 305.872 
L 386.132727 303.912 
L 387.316364 308.616 
L 388.5 306.264 
L 389.683636 317.24 
L 390.867273 316.456 
L 392.050909 320.376 
L 393.234545 314.496 
L 394.418182 313.712 
L 395.601818 309.792 
L 396.785455 309.792 
L 397.969091 320.768 
L 399.152727 315.672 
L 400.336364 314.104 
L 401.52 318.024 
L 402.703636 312.536 
L 403.887273 312.536 
L 405.070909 309.792 
L 406.254545 314.104 
L 407.438182 310.184 
L 408.621818 312.928 
L 409.805455 320.768 
L 410.989091 320.768 
L 412.172727 319.592 
L 413.356364 316.456 
L 414.54 319.984 
L 415.723636 313.32 
L 416.907273 312.928 
L 418.090909 312.144 
L 419.274545 312.928 
L 420.458182 320.768 
L 421.641818 307.832 
L 422.825455 314.104 
L 424.009091 316.456 
L 425.192727 313.32 
L 426.376364 309.4 
L 427.56 307.44 
L 429.927273 305.088 
L 431.110909 311.36 
L 432.294545 302.736 
L 433.478182 309.008 
L 434.661818 309.792 
L 435.845455 304.696 
L 435.845455 304.696 
" style="fill:none;stroke:#2ca02c;stroke-linecap:square;stroke-width:1.5;"/>
   </g>
   <g id="line2d_28">
    <path clip-path="url(#p28341eeaa1)" d="M 80.754545 430.92 
L 81.938182 411.712 
L 83.121818 376.824 
L 84.305455 356.44 
L 85.489091 307.832 
L 86.672727 305.48 
L 87.856364 294.896 
L 89.04 303.128 
L 90.223636 292.936 
L 91.407273 300.776 
L 92.590909 298.032 
L 93.774545 288.624 
L 94.958182 304.304 
L 96.141818 303.52 
L 97.325455 293.328 
L 98.509091 290.192 
L 99.692727 293.72 
L 100.876364 291.76 
L 102.06 303.52 
L 103.243636 290.192 
L 104.427273 298.816 
L 105.610909 300.384 
L 106.794545 298.424 
L 107.978182 303.912 
L 109.161818 296.464 
L 110.345455 298.424 
L 111.529091 304.304 
L 112.712727 303.912 
L 113.896364 287.84 
L 115.08 297.248 
L 116.263636 293.328 
L 117.447273 305.48 
L 118.630909 299.6 
L 119.814545 304.696 
L 120.998182 303.128 
L 122.181818 296.856 
L 123.365455 298.032 
L 124.549091 284.704 
L 125.732727 285.88 
L 126.916364 292.544 
L 128.1 292.544 
L 129.283636 293.328 
L 130.467273 296.856 
L 131.650909 293.72 
L 132.834545 301.952 
L 134.018182 307.048 
L 135.201818 307.44 
L 136.385455 298.424 
L 137.569091 301.168 
L 138.752727 308.224 
L 139.936364 299.6 
L 142.303636 290.976 
L 143.487273 296.856 
L 144.670909 289.8 
L 145.854545 291.368 
L 147.038182 294.504 
L 148.221818 308.224 
L 149.405455 293.72 
L 150.589091 294.112 
L 151.772727 295.288 
L 152.956364 300.384 
L 154.14 292.544 
L 155.323636 304.304 
L 156.507273 298.032 
L 157.690909 294.896 
L 158.874545 290.976 
L 160.058182 290.192 
L 161.241818 280.784 
L 162.425455 300.384 
L 163.609091 286.664 
L 164.792727 306.656 
L 165.976364 295.288 
L 167.16 302.736 
L 168.343636 300.384 
L 169.527273 300.776 
L 170.710909 303.52 
L 171.894545 292.936 
L 173.078182 288.624 
L 174.261818 291.368 
L 175.445455 286.272 
L 176.629091 296.072 
L 177.812727 295.288 
L 178.996364 293.328 
L 180.18 294.504 
L 181.363636 305.48 
L 183.730909 286.664 
L 184.914545 300.776 
L 186.098182 299.208 
L 187.281818 305.088 
L 188.465455 301.56 
L 189.649091 310.576 
L 190.832727 300.776 
L 192.016364 299.992 
L 193.2 305.48 
L 194.383636 299.6 
L 195.567273 290.976 
L 196.750909 290.192 
L 197.934545 308.616 
L 199.118182 303.912 
L 200.301818 305.872 
L 201.485455 297.248 
L 202.669091 294.504 
L 203.852727 298.816 
L 205.036364 287.448 
L 206.22 302.344 
L 207.403636 301.952 
L 208.587273 296.072 
L 209.770909 292.936 
L 210.954545 297.64 
L 212.138182 295.68 
L 213.321818 286.664 
L 214.505455 296.072 
L 215.689091 295.68 
L 216.872727 287.84 
L 218.056364 292.936 
L 219.24 306.264 
L 220.423636 303.912 
L 221.607273 295.68 
L 222.790909 299.992 
L 223.974545 309.008 
L 225.158182 296.464 
L 226.341818 305.088 
L 227.525455 300.776 
L 228.709091 297.64 
L 229.892727 305.088 
L 231.076364 305.48 
L 232.26 298.032 
L 233.443636 303.128 
L 234.627273 303.128 
L 235.810909 297.248 
L 236.994545 299.992 
L 238.178182 295.288 
L 239.361818 300.776 
L 240.545455 297.64 
L 241.729091 302.344 
L 242.912727 299.208 
L 244.096364 290.976 
L 245.28 294.896 
L 246.463636 300.776 
L 247.647273 302.736 
L 248.830909 296.464 
L 250.014545 292.544 
L 251.198182 302.344 
L 252.381818 304.304 
L 253.565455 311.752 
L 254.749091 303.52 
L 255.932727 288.232 
L 257.116364 285.096 
L 258.3 294.504 
L 259.483636 298.816 
L 260.667273 299.6 
L 261.850909 297.64 
L 263.034545 287.448 
L 264.218182 312.928 
L 265.401818 310.968 
L 266.585455 301.168 
L 267.769091 299.6 
L 268.952727 295.68 
L 270.136364 293.328 
L 271.32 300.384 
L 272.503636 299.992 
L 273.687273 297.248 
L 274.870909 289.016 
L 276.054545 292.152 
L 277.238182 299.992 
L 278.421818 301.952 
L 279.605455 295.288 
L 280.789091 294.896 
L 281.972727 300.384 
L 283.156364 296.072 
L 284.34 297.64 
L 285.523636 306.656 
L 286.707273 298.032 
L 287.890909 300.776 
L 289.074545 313.712 
L 290.258182 307.048 
L 291.441818 304.304 
L 292.625455 304.304 
L 293.809091 295.288 
L 294.992727 307.048 
L 296.176364 293.328 
L 297.36 290.976 
L 298.543636 295.68 
L 299.727273 301.952 
L 300.910909 305.088 
L 302.094545 303.912 
L 303.278182 305.48 
L 304.461818 306.264 
L 305.645455 310.576 
L 306.829091 296.856 
L 308.012727 304.304 
L 309.196364 300.384 
L 310.38 301.168 
L 311.563636 296.856 
L 312.747273 302.736 
L 315.114545 283.92 
L 316.298182 298.816 
L 317.481818 311.752 
L 318.665455 296.072 
L 319.849091 306.264 
L 321.032727 299.6 
L 322.216364 296.072 
L 323.4 298.032 
L 324.583636 302.736 
L 325.767273 302.736 
L 326.950909 297.64 
L 328.134545 290.584 
L 329.318182 288.624 
L 330.501818 286.272 
L 331.685455 291.368 
L 332.869091 303.128 
L 334.052727 297.248 
L 335.236364 292.936 
L 336.42 299.6 
L 337.603636 294.504 
L 338.787273 298.816 
L 339.970909 296.856 
L 341.154545 299.992 
L 342.338182 286.272 
L 343.521818 306.264 
L 344.705455 309.008 
L 345.889091 306.264 
L 347.072727 300.776 
L 348.256364 289.8 
L 349.44 306.656 
L 350.623636 303.52 
L 351.807273 305.088 
L 352.990909 295.68 
L 354.174545 299.6 
L 355.358182 292.936 
L 356.541818 291.76 
L 357.725455 293.328 
L 358.909091 298.816 
L 361.276364 301.952 
L 362.46 291.368 
L 363.643636 303.912 
L 364.827273 302.344 
L 366.010909 300.384 
L 367.194545 294.112 
L 368.378182 294.112 
L 369.561818 297.248 
L 370.745455 289.408 
L 371.929091 299.6 
L 373.112727 295.68 
L 374.296364 301.168 
L 375.48 296.856 
L 376.663636 290.976 
L 377.847273 292.936 
L 379.030909 301.952 
L 380.214545 309.008 
L 381.398182 296.856 
L 382.581818 300.384 
L 383.765455 290.976 
L 384.949091 283.136 
L 386.132727 295.288 
L 387.316364 294.504 
L 388.5 300.384 
L 389.683636 280 
L 390.867273 294.896 
L 392.050909 291.368 
L 393.234545 303.128 
L 394.418182 301.168 
L 395.601818 303.52 
L 396.785455 300.776 
L 397.969091 294.112 
L 400.336364 303.912 
L 401.52 297.248 
L 402.703636 302.736 
L 403.887273 293.72 
L 405.070909 306.656 
L 406.254545 299.208 
L 407.438182 299.208 
L 408.621818 291.76 
L 409.805455 286.664 
L 410.989091 301.952 
L 412.172727 297.248 
L 413.356364 299.992 
L 414.54 305.088 
L 415.723636 313.32 
L 416.907273 299.992 
L 418.090909 300.776 
L 419.274545 295.288 
L 420.458182 287.056 
L 421.641818 305.088 
L 422.825455 311.36 
L 424.009091 299.992 
L 425.192727 292.936 
L 426.376364 299.992 
L 427.56 305.088 
L 428.743636 300.384 
L 429.927273 294.896 
L 431.110909 290.976 
L 432.294545 301.56 
L 433.478182 294.504 
L 434.661818 294.504 
L 435.845455 295.288 
L 435.845455 295.288 
" style="fill:none;stroke:#d62728;stroke-linecap:square;stroke-width:1.5;"/>
   </g>
   <g id="patch_3">
    <path d="M 63 448.56 
L 63 60.48 
" style="fill:none;stroke:#000000;stroke-linecap:square;stroke-linejoin:miter;stroke-width:0.8;"/>
   </g>
   <g id="patch_4">
    <path d="M 453.6 448.56 
L 453.6 60.48 
" style="fill:none;stroke:#000000;stroke-linecap:square;stroke-linejoin:miter;stroke-width:0.8;"/>
   </g>
   <g id="patch_5">
    <path d="M 63 448.56 
L 453.6 448.56 
" style="fill:none;stroke:#000000;stroke-linecap:square;stroke-linejoin:miter;stroke-width:0.8;"/>
   </g>
   <g id="patch_6">
    <path d="M 63 60.48 
L 453.6 60.48 
" style="fill:none;stroke:#000000;stroke-linecap:square;stroke-linejoin:miter;stroke-width:0.8;"/>
   </g>
   <g id="legend_1">
    <g id="patch_7">
     <path d="M 405.459375 127.1925 
L 446.6 127.1925 
Q 448.6 127.1925 448.6 125.1925 
L 448.6 67.48 
Q 448.6 65.48 446.6 65.48 
L 405.459375 65.48 
Q 403.459375 65.48 403.459375 67.48 
L 403.459375 125.1925 
Q 403.459375 127.1925 405.459375 127.1925 
z
" style="fill:#ffffff;opacity:0.8;stroke:#cccccc;stroke-linejoin:miter;"/>
    </g>
    <g id="line2d_29">
     <path d="M 407.459375 73.578438 
L 427.459375 73.578438 
" style="fill:none;stroke:#1f77b4;stroke-linecap:square;stroke-width:1.5;"/>
    </g>
    <g id="line2d_30"/>
    <g id="text_15">
     <!-- s -->
     <g transform="translate(435.459375 77.078438)scale(0.1 -0.1)">
      <defs>
       <path d="M 2834 3397 
L 2834 2853 
Q 2591 2978 2328 3040 
Q 2066 3103 1784 3103 
Q 1356 3103 1142 2972 
Q 928 2841 928 2578 
Q 928 2378 1081 2264 
Q 1234 2150 1697 2047 
L 1894 2003 
Q 2506 1872 2764 1633 
Q 3022 1394 3022 966 
Q 3022 478 2636 193 
Q 2250 -91 1575 -91 
Q 1294 -91 989 -36 
Q 684 19 347 128 
L 347 722 
Q 666 556 975 473 
Q 1284 391 1588 391 
Q 1994 391 2212 530 
Q 2431 669 2431 922 
Q 2431 1156 2273 1281 
Q 2116 1406 1581 1522 
L 1381 1569 
Q 847 1681 609 1914 
Q 372 2147 372 2553 
Q 372 3047 722 3315 
Q 1072 3584 1716 3584 
Q 2034 3584 2315 3537 
Q 2597 3491 2834 3397 
z
" id="DejaVuSans-73" transform="scale(0.015625)"/>
      </defs>
      <use xlink:href="#DejaVuSans-73"/>
     </g>
    </g>
    <g id="line2d_31">
     <path d="M 407.459375 88.256563 
L 427.459375 88.256563 
" style="fill:none;stroke:#ff7f0e;stroke-linecap:square;stroke-width:1.5;"/>
    </g>
    <g id="line2d_32"/>
    <g id="text_16">
     <!-- i1 -->
     <g transform="translate(435.459375 91.756563)scale(0.1 -0.1)">
      <use xlink:href="#DejaVuSans-69"/>
      <use x="27.783203" xlink:href="#DejaVuSans-31"/>
     </g>
    </g>
    <g id="line2d_33">
     <path d="M 407.459375 102.934688 
L 427.459375 102.934688 
" style="fill:none;stroke:#2ca02c;stroke-linecap:square;stroke-width:1.5;"/>
    </g>
    <g id="line2d_34"/>
    <g id="text_17">
     <!-- i2 -->
     <g transform="translate(435.459375 106.434688)scale(0.1 -0.1)">
      <use xlink:href="#DejaVuSans-69"/>
      <use x="27.783203" xlink:href="#DejaVuSans-32"/>
     </g>
    </g>
    <g id="line2d_35">
     <path d="M 407.459375 117.612813 
L 427.459375 117.612813 
" style="fill:none;stroke:#d62728;stroke-linecap:square;stroke-width:1.5;"/>
    </g>
    <g id="line2d_36"/>
    <g id="text_18">
     <!-- r -->
     <g transform="translate(435.459375 121.112813)scale(0.1 -0.1)">
      <use xlink:href="#DejaVuSans-72"/>
     </g>
    </g>
   </g>
  </g>
 </g>
 <defs>
  <clipPath id="p28341eeaa1">
   <rect height="388.08" width="390.6" x="63" y="60.48"/>
  </clipPath>
 </defs>
</svg>
