<?xml version="1.0" encoding="utf-8" standalone="no"?>
<!DOCTYPE svg PUBLIC "-//W3C//DTD SVG 1.1//EN"
  "http://www.w3.org/Graphics/SVG/1.1/DTD/svg11.dtd">
<svg height="864pt" version="1.1" viewBox="0 0 864 864" width="864pt" xmlns="http://www.w3.org/2000/svg" xmlns:xlink="http://www.w3.org/1999/xlink">
 <metadata>
  <rdf:RDF xmlns:cc="http://creativecommons.org/ns#" xmlns:dc="http://purl.org/dc/elements/1.1/" xmlns:rdf="http://www.w3.org/1999/02/22-rdf-syntax-ns#">
   <cc:Work>
    <dc:type rdf:resource="http://purl.org/dc/dcmitype/StillImage"/>
    <dc:date>2021-07-04T21:49:30.534544</dc:date>
    <dc:format>image/svg+xml</dc:format>
    <dc:creator>
     <cc:Agent>
      <dc:title>Matplotlib v3.4.2, https://matplotlib.org/</dc:title>
     </cc:Agent>
    </dc:creator>
   </cc:Work>
  </rdf:RDF>
 </metadata>
 <defs>
  <style type="text/css">*{stroke-linecap:butt;stroke-linejoin:round;}</style>
 </defs>
 <g id="figure_1">
  <g id="patch_1">
   <path d="M 0 864 
L 864 864 
L 864 0 
L 0 0 
z
" style="fill:#ffffff;"/>
  </g>
  <g id="axes_1">
   <g id="LineCollection_1">
    <path clip-path="url(#p2bc08ad997)" d="M 39.272727 432.000034 
L 58.494182 310.64056 
" style="fill:none;stroke:#000000;"/>
    <path clip-path="url(#p2bc08ad997)" d="M 39.272727 432.000034 
L 114.276982 662.839319 
" style="fill:none;stroke:#000000;"/>
    <path clip-path="url(#p2bc08ad997)" d="M 39.272727 432.000034 
L 114.277029 201.160611 
" style="fill:none;stroke:#000000;"/>
    <path clip-path="url(#p2bc08ad997)" d="M 39.272727 432.000034 
L 662.839389 749.722971 
" style="fill:none;stroke:#000000;"/>
    <path clip-path="url(#p2bc08ad997)" d="M 39.272727 432.000034 
L 662.839272 114.276936 
" style="fill:none;stroke:#000000;"/>
    <path clip-path="url(#p2bc08ad997)" d="M 58.494159 553.359393 
L 114.276982 662.839319 
" style="fill:none;stroke:#000000;"/>
    <path clip-path="url(#p2bc08ad997)" d="M 58.494159 553.359393 
L 201.160774 749.723088 
" style="fill:none;stroke:#000000;"/>
    <path clip-path="url(#p2bc08ad997)" d="M 58.494159 553.359393 
L 201.160798 114.276889 
" style="fill:none;stroke:#000000;"/>
    <path clip-path="url(#p2bc08ad997)" d="M 114.276982 662.839319 
L 201.160774 749.723088 
" style="fill:none;stroke:#000000;"/>
    <path clip-path="url(#p2bc08ad997)" d="M 114.276982 662.839319 
L 310.640431 58.494229 
" style="fill:none;stroke:#000000;"/>
    <path clip-path="url(#p2bc08ad997)" d="M 201.160774 749.723088 
L 662.839272 114.276936 
" style="fill:none;stroke:#000000;"/>
    <path clip-path="url(#p2bc08ad997)" d="M 201.160774 749.723088 
L 553.359323 58.494135 
" style="fill:none;stroke:#000000;"/>
    <path clip-path="url(#p2bc08ad997)" d="M 201.160774 749.723088 
L 58.494182 310.64056 
" style="fill:none;stroke:#000000;"/>
    <path clip-path="url(#p2bc08ad997)" d="M 310.640549 805.505818 
L 432.000005 824.727273 
" style="fill:none;stroke:#000000;"/>
    <path clip-path="url(#p2bc08ad997)" d="M 310.640549 805.505818 
L 553.359451 805.505818 
" style="fill:none;stroke:#000000;"/>
    <path clip-path="url(#p2bc08ad997)" d="M 432.000005 824.727273 
L 553.359451 805.505818 
" style="fill:none;stroke:#000000;"/>
    <path clip-path="url(#p2bc08ad997)" d="M 432.000005 824.727273 
L 662.839389 749.722971 
" style="fill:none;stroke:#000000;"/>
    <path clip-path="url(#p2bc08ad997)" d="M 553.359451 805.505818 
L 662.839389 749.722971 
" style="fill:none;stroke:#000000;"/>
    <path clip-path="url(#p2bc08ad997)" d="M 553.359451 805.505818 
L 662.839272 114.276936 
" style="fill:none;stroke:#000000;"/>
    <path clip-path="url(#p2bc08ad997)" d="M 662.839389 749.722971 
L 58.494182 310.64056 
" style="fill:none;stroke:#000000;"/>
    <path clip-path="url(#p2bc08ad997)" d="M 662.839389 749.722971 
L 431.999867 39.272727 
" style="fill:none;stroke:#000000;"/>
    <path clip-path="url(#p2bc08ad997)" d="M 749.723135 662.839179 
L 805.505841 553.359381 
" style="fill:none;stroke:#000000;"/>
    <path clip-path="url(#p2bc08ad997)" d="M 749.723135 662.839179 
L 114.277029 201.160611 
" style="fill:none;stroke:#000000;"/>
    <path clip-path="url(#p2bc08ad997)" d="M 805.505841 553.359381 
L 805.505865 310.640666 
" style="fill:none;stroke:#000000;"/>
    <path clip-path="url(#p2bc08ad997)" d="M 805.505841 553.359381 
L 431.999867 39.272727 
" style="fill:none;stroke:#000000;"/>
    <path clip-path="url(#p2bc08ad997)" d="M 824.727273 431.999931 
L 749.723041 201.160704 
" style="fill:none;stroke:#000000;"/>
    <path clip-path="url(#p2bc08ad997)" d="M 824.727273 431.999931 
L 58.494182 310.64056 
" style="fill:none;stroke:#000000;"/>
    <path clip-path="url(#p2bc08ad997)" d="M 805.505865 310.640666 
L 749.723041 201.160704 
" style="fill:none;stroke:#000000;"/>
    <path clip-path="url(#p2bc08ad997)" d="M 805.505865 310.640666 
L 662.839272 114.276936 
" style="fill:none;stroke:#000000;"/>
    <path clip-path="url(#p2bc08ad997)" d="M 749.723041 201.160704 
L 662.839272 114.276936 
" style="fill:none;stroke:#000000;"/>
    <path clip-path="url(#p2bc08ad997)" d="M 749.723041 201.160704 
L 553.359323 58.494135 
" style="fill:none;stroke:#000000;"/>
    <path clip-path="url(#p2bc08ad997)" d="M 662.839272 114.276936 
L 553.359323 58.494135 
" style="fill:none;stroke:#000000;"/>
    <path clip-path="url(#p2bc08ad997)" d="M 553.359323 58.494135 
L 431.999867 39.272727 
" style="fill:none;stroke:#000000;"/>
    <path clip-path="url(#p2bc08ad997)" d="M 553.359323 58.494135 
L 310.640431 58.494229 
" style="fill:none;stroke:#000000;"/>
    <path clip-path="url(#p2bc08ad997)" d="M 431.999867 39.272727 
L 310.640431 58.494229 
" style="fill:none;stroke:#000000;"/>
    <path clip-path="url(#p2bc08ad997)" d="M 431.999867 39.272727 
L 201.160798 114.276889 
" style="fill:none;stroke:#000000;"/>
    <path clip-path="url(#p2bc08ad997)" d="M 310.640431 58.494229 
L 201.160798 114.276889 
" style="fill:none;stroke:#000000;"/>
    <path clip-path="url(#p2bc08ad997)" d="M 310.640431 58.494229 
L 114.277029 201.160611 
" style="fill:none;stroke:#000000;"/>
    <path clip-path="url(#p2bc08ad997)" d="M 201.160798 114.276889 
L 114.277029 201.160611 
" style="fill:none;stroke:#000000;"/>
    <path clip-path="url(#p2bc08ad997)" d="M 114.277029 201.160611 
L 58.494182 310.64056 
" style="fill:none;stroke:#000000;"/>
   </g>
   <g id="PathCollection_1">
    <defs>
     <path d="M 0 8.660254 
C 2.296726 8.660254 4.499694 7.747755 6.123724 6.123724 
C 7.747755 4.499694 8.660254 2.296726 8.660254 -0 
C 8.660254 -2.296726 7.747755 -4.499694 6.123724 -6.123724 
C 4.499694 -7.747755 2.296726 -8.660254 0 -8.660254 
C -2.296726 -8.660254 -4.499694 -7.747755 -6.123724 -6.123724 
C -7.747755 -4.499694 -8.660254 -2.296726 -8.660254 0 
C -8.660254 2.296726 -7.747755 4.499694 -6.123724 6.123724 
C -4.499694 7.747755 -2.296726 8.660254 0 8.660254 
z
" id="C0_0_44d8c2bb68"/>
    </defs>
    <g clip-path="url(#p2bc08ad997)">
     <use style="fill:#ff0000;stroke:#ff0000;" x="39.272727" xlink:href="#C0_0_44d8c2bb68" y="432.000034"/>
    </g>
    <g clip-path="url(#p2bc08ad997)">
     <use style="fill:#0000ff;stroke:#0000ff;" x="58.494159" xlink:href="#C0_0_44d8c2bb68" y="553.359393"/>
    </g>
    <g clip-path="url(#p2bc08ad997)">
     <use style="fill:#0000ff;stroke:#0000ff;" x="114.276982" xlink:href="#C0_0_44d8c2bb68" y="662.839319"/>
    </g>
    <g clip-path="url(#p2bc08ad997)">
     <use style="fill:#0000ff;stroke:#0000ff;" x="201.160774" xlink:href="#C0_0_44d8c2bb68" y="749.723088"/>
    </g>
    <g clip-path="url(#p2bc08ad997)">
     <use style="fill:#ff0000;stroke:#ff0000;" x="310.640549" xlink:href="#C0_0_44d8c2bb68" y="805.505818"/>
    </g>
    <g clip-path="url(#p2bc08ad997)">
     <use style="fill:#ff0000;stroke:#ff0000;" x="432.000005" xlink:href="#C0_0_44d8c2bb68" y="824.727273"/>
    </g>
    <g clip-path="url(#p2bc08ad997)">
     <use style="fill:#ff0000;stroke:#ff0000;" x="553.359451" xlink:href="#C0_0_44d8c2bb68" y="805.505818"/>
    </g>
    <g clip-path="url(#p2bc08ad997)">
     <use style="fill:#ff0000;stroke:#ff0000;" x="662.839389" xlink:href="#C0_0_44d8c2bb68" y="749.722971"/>
    </g>
    <g clip-path="url(#p2bc08ad997)">
     <use style="fill:#0000ff;stroke:#0000ff;" x="749.723135" xlink:href="#C0_0_44d8c2bb68" y="662.839179"/>
    </g>
    <g clip-path="url(#p2bc08ad997)">
     <use style="fill:#0000ff;stroke:#0000ff;" x="805.505841" xlink:href="#C0_0_44d8c2bb68" y="553.359381"/>
    </g>
    <g clip-path="url(#p2bc08ad997)">
     <use style="fill:#ff0000;stroke:#ff0000;" x="824.727273" xlink:href="#C0_0_44d8c2bb68" y="431.999931"/>
    </g>
    <g clip-path="url(#p2bc08ad997)">
     <use style="fill:#0000ff;stroke:#0000ff;" x="805.505865" xlink:href="#C0_0_44d8c2bb68" y="310.640666"/>
    </g>
    <g clip-path="url(#p2bc08ad997)">
     <use style="fill:#0000ff;stroke:#0000ff;" x="749.723041" xlink:href="#C0_0_44d8c2bb68" y="201.160704"/>
    </g>
    <g clip-path="url(#p2bc08ad997)">
     <use style="fill:#ff0000;stroke:#ff0000;" x="662.839272" xlink:href="#C0_0_44d8c2bb68" y="114.276936"/>
    </g>
    <g clip-path="url(#p2bc08ad997)">
     <use style="fill:#0000ff;stroke:#0000ff;" x="553.359323" xlink:href="#C0_0_44d8c2bb68" y="58.494135"/>
    </g>
    <g clip-path="url(#p2bc08ad997)">
     <use style="fill:#0000ff;stroke:#0000ff;" x="431.999867" xlink:href="#C0_0_44d8c2bb68" y="39.272727"/>
    </g>
    <g clip-path="url(#p2bc08ad997)">
     <use style="fill:#0000ff;stroke:#0000ff;" x="310.640431" xlink:href="#C0_0_44d8c2bb68" y="58.494229"/>
    </g>
    <g clip-path="url(#p2bc08ad997)">
     <use style="fill:#0000ff;stroke:#0000ff;" x="201.160798" xlink:href="#C0_0_44d8c2bb68" y="114.276889"/>
    </g>
    <g clip-path="url(#p2bc08ad997)">
     <use style="fill:#ff0000;stroke:#ff0000;" x="114.277029" xlink:href="#C0_0_44d8c2bb68" y="201.160611"/>
    </g>
    <g clip-path="url(#p2bc08ad997)">
     <use style="fill:#ff0000;stroke:#ff0000;" x="58.494182" xlink:href="#C0_0_44d8c2bb68" y="310.64056"/>
    </g>
   </g>
   <g id="text_1">
    <g clip-path="url(#p2bc08ad997)">
     <!-- 0 -->
     <g transform="translate(36.727727 434.207534)scale(0.08 -0.08)">
      <defs>
       <path d="M 2034 4250 
Q 1547 4250 1301 3770 
Q 1056 3291 1056 2328 
Q 1056 1369 1301 889 
Q 1547 409 2034 409 
Q 2525 409 2770 889 
Q 3016 1369 3016 2328 
Q 3016 3291 2770 3770 
Q 2525 4250 2034 4250 
z
M 2034 4750 
Q 2819 4750 3233 4129 
Q 3647 3509 3647 2328 
Q 3647 1150 3233 529 
Q 2819 -91 2034 -91 
Q 1250 -91 836 529 
Q 422 1150 422 2328 
Q 422 3509 836 4129 
Q 1250 4750 2034 4750 
z
" id="DejaVuSans-30" transform="scale(0.015625)"/>
      </defs>
      <use xlink:href="#DejaVuSans-30"/>
     </g>
    </g>
   </g>
   <g id="text_2">
    <g clip-path="url(#p2bc08ad997)">
     <!-- 1 -->
     <g transform="translate(55.949159 555.566893)scale(0.08 -0.08)">
      <defs>
       <path d="M 794 531 
L 1825 531 
L 1825 4091 
L 703 3866 
L 703 4441 
L 1819 4666 
L 2450 4666 
L 2450 531 
L 3481 531 
L 3481 0 
L 794 0 
L 794 531 
z
" id="DejaVuSans-31" transform="scale(0.015625)"/>
      </defs>
      <use xlink:href="#DejaVuSans-31"/>
     </g>
    </g>
   </g>
   <g id="text_3">
    <g clip-path="url(#p2bc08ad997)">
     <!-- 2 -->
     <g transform="translate(111.731982 665.046819)scale(0.08 -0.08)">
      <defs>
       <path d="M 1228 531 
L 3431 531 
L 3431 0 
L 469 0 
L 469 531 
Q 828 903 1448 1529 
Q 2069 2156 2228 2338 
Q 2531 2678 2651 2914 
Q 2772 3150 2772 3378 
Q 2772 3750 2511 3984 
Q 2250 4219 1831 4219 
Q 1534 4219 1204 4116 
Q 875 4013 500 3803 
L 500 4441 
Q 881 4594 1212 4672 
Q 1544 4750 1819 4750 
Q 2544 4750 2975 4387 
Q 3406 4025 3406 3419 
Q 3406 3131 3298 2873 
Q 3191 2616 2906 2266 
Q 2828 2175 2409 1742 
Q 1991 1309 1228 531 
z
" id="DejaVuSans-32" transform="scale(0.015625)"/>
      </defs>
      <use xlink:href="#DejaVuSans-32"/>
     </g>
    </g>
   </g>
   <g id="text_4">
    <g clip-path="url(#p2bc08ad997)">
     <!-- 3 -->
     <g transform="translate(198.615774 751.930588)scale(0.08 -0.08)">
      <defs>
       <path d="M 2597 2516 
Q 3050 2419 3304 2112 
Q 3559 1806 3559 1356 
Q 3559 666 3084 287 
Q 2609 -91 1734 -91 
Q 1441 -91 1130 -33 
Q 819 25 488 141 
L 488 750 
Q 750 597 1062 519 
Q 1375 441 1716 441 
Q 2309 441 2620 675 
Q 2931 909 2931 1356 
Q 2931 1769 2642 2001 
Q 2353 2234 1838 2234 
L 1294 2234 
L 1294 2753 
L 1863 2753 
Q 2328 2753 2575 2939 
Q 2822 3125 2822 3475 
Q 2822 3834 2567 4026 
Q 2313 4219 1838 4219 
Q 1578 4219 1281 4162 
Q 984 4106 628 3988 
L 628 4550 
Q 988 4650 1302 4700 
Q 1616 4750 1894 4750 
Q 2613 4750 3031 4423 
Q 3450 4097 3450 3541 
Q 3450 3153 3228 2886 
Q 3006 2619 2597 2516 
z
" id="DejaVuSans-33" transform="scale(0.015625)"/>
      </defs>
      <use xlink:href="#DejaVuSans-33"/>
     </g>
    </g>
   </g>
   <g id="text_5">
    <g clip-path="url(#p2bc08ad997)">
     <!-- 4 -->
     <g transform="translate(308.095549 807.713318)scale(0.08 -0.08)">
      <defs>
       <path d="M 2419 4116 
L 825 1625 
L 2419 1625 
L 2419 4116 
z
M 2253 4666 
L 3047 4666 
L 3047 1625 
L 3713 1625 
L 3713 1100 
L 3047 1100 
L 3047 0 
L 2419 0 
L 2419 1100 
L 313 1100 
L 313 1709 
L 2253 4666 
z
" id="DejaVuSans-34" transform="scale(0.015625)"/>
      </defs>
      <use xlink:href="#DejaVuSans-34"/>
     </g>
    </g>
   </g>
   <g id="text_6">
    <g clip-path="url(#p2bc08ad997)">
     <!-- 5 -->
     <g transform="translate(429.455005 826.934773)scale(0.08 -0.08)">
      <defs>
       <path d="M 691 4666 
L 3169 4666 
L 3169 4134 
L 1269 4134 
L 1269 2991 
Q 1406 3038 1543 3061 
Q 1681 3084 1819 3084 
Q 2600 3084 3056 2656 
Q 3513 2228 3513 1497 
Q 3513 744 3044 326 
Q 2575 -91 1722 -91 
Q 1428 -91 1123 -41 
Q 819 9 494 109 
L 494 744 
Q 775 591 1075 516 
Q 1375 441 1709 441 
Q 2250 441 2565 725 
Q 2881 1009 2881 1497 
Q 2881 1984 2565 2268 
Q 2250 2553 1709 2553 
Q 1456 2553 1204 2497 
Q 953 2441 691 2322 
L 691 4666 
z
" id="DejaVuSans-35" transform="scale(0.015625)"/>
      </defs>
      <use xlink:href="#DejaVuSans-35"/>
     </g>
    </g>
   </g>
   <g id="text_7">
    <g clip-path="url(#p2bc08ad997)">
     <!-- 6 -->
     <g transform="translate(550.814451 807.713318)scale(0.08 -0.08)">
      <defs>
       <path d="M 2113 2584 
Q 1688 2584 1439 2293 
Q 1191 2003 1191 1497 
Q 1191 994 1439 701 
Q 1688 409 2113 409 
Q 2538 409 2786 701 
Q 3034 994 3034 1497 
Q 3034 2003 2786 2293 
Q 2538 2584 2113 2584 
z
M 3366 4563 
L 3366 3988 
Q 3128 4100 2886 4159 
Q 2644 4219 2406 4219 
Q 1781 4219 1451 3797 
Q 1122 3375 1075 2522 
Q 1259 2794 1537 2939 
Q 1816 3084 2150 3084 
Q 2853 3084 3261 2657 
Q 3669 2231 3669 1497 
Q 3669 778 3244 343 
Q 2819 -91 2113 -91 
Q 1303 -91 875 529 
Q 447 1150 447 2328 
Q 447 3434 972 4092 
Q 1497 4750 2381 4750 
Q 2619 4750 2861 4703 
Q 3103 4656 3366 4563 
z
" id="DejaVuSans-36" transform="scale(0.015625)"/>
      </defs>
      <use xlink:href="#DejaVuSans-36"/>
     </g>
    </g>
   </g>
   <g id="text_8">
    <g clip-path="url(#p2bc08ad997)">
     <!-- 7 -->
     <g transform="translate(660.294389 751.930471)scale(0.08 -0.08)">
      <defs>
       <path d="M 525 4666 
L 3525 4666 
L 3525 4397 
L 1831 0 
L 1172 0 
L 2766 4134 
L 525 4134 
L 525 4666 
z
" id="DejaVuSans-37" transform="scale(0.015625)"/>
      </defs>
      <use xlink:href="#DejaVuSans-37"/>
     </g>
    </g>
   </g>
   <g id="text_9">
    <g clip-path="url(#p2bc08ad997)">
     <!-- 8 -->
     <g transform="translate(747.178135 665.046679)scale(0.08 -0.08)">
      <defs>
       <path d="M 2034 2216 
Q 1584 2216 1326 1975 
Q 1069 1734 1069 1313 
Q 1069 891 1326 650 
Q 1584 409 2034 409 
Q 2484 409 2743 651 
Q 3003 894 3003 1313 
Q 3003 1734 2745 1975 
Q 2488 2216 2034 2216 
z
M 1403 2484 
Q 997 2584 770 2862 
Q 544 3141 544 3541 
Q 544 4100 942 4425 
Q 1341 4750 2034 4750 
Q 2731 4750 3128 4425 
Q 3525 4100 3525 3541 
Q 3525 3141 3298 2862 
Q 3072 2584 2669 2484 
Q 3125 2378 3379 2068 
Q 3634 1759 3634 1313 
Q 3634 634 3220 271 
Q 2806 -91 2034 -91 
Q 1263 -91 848 271 
Q 434 634 434 1313 
Q 434 1759 690 2068 
Q 947 2378 1403 2484 
z
M 1172 3481 
Q 1172 3119 1398 2916 
Q 1625 2713 2034 2713 
Q 2441 2713 2670 2916 
Q 2900 3119 2900 3481 
Q 2900 3844 2670 4047 
Q 2441 4250 2034 4250 
Q 1625 4250 1398 4047 
Q 1172 3844 1172 3481 
z
" id="DejaVuSans-38" transform="scale(0.015625)"/>
      </defs>
      <use xlink:href="#DejaVuSans-38"/>
     </g>
    </g>
   </g>
   <g id="text_10">
    <g clip-path="url(#p2bc08ad997)">
     <!-- 9 -->
     <g transform="translate(802.960841 555.566881)scale(0.08 -0.08)">
      <defs>
       <path d="M 703 97 
L 703 672 
Q 941 559 1184 500 
Q 1428 441 1663 441 
Q 2288 441 2617 861 
Q 2947 1281 2994 2138 
Q 2813 1869 2534 1725 
Q 2256 1581 1919 1581 
Q 1219 1581 811 2004 
Q 403 2428 403 3163 
Q 403 3881 828 4315 
Q 1253 4750 1959 4750 
Q 2769 4750 3195 4129 
Q 3622 3509 3622 2328 
Q 3622 1225 3098 567 
Q 2575 -91 1691 -91 
Q 1453 -91 1209 -44 
Q 966 3 703 97 
z
M 1959 2075 
Q 2384 2075 2632 2365 
Q 2881 2656 2881 3163 
Q 2881 3666 2632 3958 
Q 2384 4250 1959 4250 
Q 1534 4250 1286 3958 
Q 1038 3666 1038 3163 
Q 1038 2656 1286 2365 
Q 1534 2075 1959 2075 
z
" id="DejaVuSans-39" transform="scale(0.015625)"/>
      </defs>
      <use xlink:href="#DejaVuSans-39"/>
     </g>
    </g>
   </g>
   <g id="text_11">
    <g clip-path="url(#p2bc08ad997)">
     <!-- 10 -->
     <g transform="translate(819.637273 434.207431)scale(0.08 -0.08)">
      <use xlink:href="#DejaVuSans-31"/>
      <use x="63.623047" xlink:href="#DejaVuSans-30"/>
     </g>
    </g>
   </g>
   <g id="text_12">
    <g clip-path="url(#p2bc08ad997)">
     <!-- 11 -->
     <g transform="translate(800.415865 312.848166)scale(0.08 -0.08)">
      <use xlink:href="#DejaVuSans-31"/>
      <use x="63.623047" xlink:href="#DejaVuSans-31"/>
     </g>
    </g>
   </g>
   <g id="text_13">
    <g clip-path="url(#p2bc08ad997)">
     <!-- 12 -->
     <g transform="translate(744.633041 203.368204)scale(0.08 -0.08)">
      <use xlink:href="#DejaVuSans-31"/>
      <use x="63.623047" xlink:href="#DejaVuSans-32"/>
     </g>
    </g>
   </g>
   <g id="text_14">
    <g clip-path="url(#p2bc08ad997)">
     <!-- 13 -->
     <g transform="translate(657.749272 116.484436)scale(0.08 -0.08)">
      <use xlink:href="#DejaVuSans-31"/>
      <use x="63.623047" xlink:href="#DejaVuSans-33"/>
     </g>
    </g>
   </g>
   <g id="text_15">
    <g clip-path="url(#p2bc08ad997)">
     <!-- 14 -->
     <g transform="translate(548.269323 60.701635)scale(0.08 -0.08)">
      <use xlink:href="#DejaVuSans-31"/>
      <use x="63.623047" xlink:href="#DejaVuSans-34"/>
     </g>
    </g>
   </g>
   <g id="text_16">
    <g clip-path="url(#p2bc08ad997)">
     <!-- 15 -->
     <g transform="translate(426.909867 41.480227)scale(0.08 -0.08)">
      <use xlink:href="#DejaVuSans-31"/>
      <use x="63.623047" xlink:href="#DejaVuSans-35"/>
     </g>
    </g>
   </g>
   <g id="text_17">
    <g clip-path="url(#p2bc08ad997)">
     <!-- 16 -->
     <g transform="translate(305.550431 60.701729)scale(0.08 -0.08)">
      <use xlink:href="#DejaVuSans-31"/>
      <use x="63.623047" xlink:href="#DejaVuSans-36"/>
     </g>
    </g>
   </g>
   <g id="text_18">
    <g clip-path="url(#p2bc08ad997)">
     <!-- 17 -->
     <g transform="translate(196.070798 116.484389)scale(0.08 -0.08)">
      <use xlink:href="#DejaVuSans-31"/>
      <use x="63.623047" xlink:href="#DejaVuSans-37"/>
     </g>
    </g>
   </g>
   <g id="text_19">
    <g clip-path="url(#p2bc08ad997)">
     <!-- 18 -->
     <g transform="translate(109.187029 203.368111)scale(0.08 -0.08)">
      <use xlink:href="#DejaVuSans-31"/>
      <use x="63.623047" xlink:href="#DejaVuSans-38"/>
     </g>
    </g>
   </g>
   <g id="text_20">
    <g clip-path="url(#p2bc08ad997)">
     <!-- 19 -->
     <g transform="translate(53.404182 312.84806)scale(0.08 -0.08)">
      <use xlink:href="#DejaVuSans-31"/>
      <use x="63.623047" xlink:href="#DejaVuSans-39"/>
     </g>
    </g>
   </g>
  </g>
 </g>
 <defs>
  <clipPath id="p2bc08ad997">
   <rect height="864" width="864" x="0" y="0"/>
  </clipPath>
 </defs>
</svg>
