<?xml version="1.0" encoding="utf-8" standalone="no"?>
<!DOCTYPE svg PUBLIC "-//W3C//DTD SVG 1.1//EN"
  "http://www.w3.org/Graphics/SVG/1.1/DTD/svg11.dtd">
<svg height="504pt" version="1.1" viewBox="0 0 504 504" width="504pt" xmlns="http://www.w3.org/2000/svg" xmlns:xlink="http://www.w3.org/1999/xlink">
 <metadata>
  <rdf:RDF xmlns:cc="http://creativecommons.org/ns#" xmlns:dc="http://purl.org/dc/elements/1.1/" xmlns:rdf="http://www.w3.org/1999/02/22-rdf-syntax-ns#">
   <cc:Work>
    <dc:type rdf:resource="http://purl.org/dc/dcmitype/StillImage"/>
    <dc:date>2021-07-05T02:29:43.915842</dc:date>
    <dc:format>image/svg+xml</dc:format>
    <dc:creator>
     <cc:Agent>
      <dc:title>Matplotlib v3.4.2, https://matplotlib.org/</dc:title>
     </cc:Agent>
    </dc:creator>
   </cc:Work>
  </rdf:RDF>
 </metadata>
 <defs>
  <style type="text/css">*{stroke-linecap:butt;stroke-linejoin:round;}</style>
 </defs>
 <g id="figure_1">
  <g id="patch_1">
   <path d="M 0 504 
L 504 504 
L 504 0 
L 0 0 
z
" style="fill:#ffffff;"/>
  </g>
  <g id="axes_1">
   <g id="patch_2">
    <path d="M 63 448.56 
L 453.6 448.56 
L 453.6 60.48 
L 63 60.48 
z
" style="fill:#ffffff;"/>
   </g>
   <g id="matplotlib.axis_1">
    <g id="xtick_1">
     <g id="line2d_1">
      <path clip-path="url(#pc6f6f69761)" d="M 80.754545 448.56 
L 80.754545 60.48 
" style="fill:none;stroke:#b0b0b0;stroke-linecap:square;stroke-width:0.8;"/>
     </g>
     <g id="line2d_2">
      <defs>
       <path d="M 0 0 
L 0 3.5 
" id="mbfbb870446" style="stroke:#000000;stroke-width:0.8;"/>
      </defs>
      <g>
       <use style="stroke:#000000;stroke-width:0.8;" x="80.754545" xlink:href="#mbfbb870446" y="448.56"/>
      </g>
     </g>
     <g id="text_1">
      <!-- 0 -->
      <g transform="translate(77.573295 463.158437)scale(0.1 -0.1)">
       <defs>
        <path d="M 2034 4250 
Q 1547 4250 1301 3770 
Q 1056 3291 1056 2328 
Q 1056 1369 1301 889 
Q 1547 409 2034 409 
Q 2525 409 2770 889 
Q 3016 1369 3016 2328 
Q 3016 3291 2770 3770 
Q 2525 4250 2034 4250 
z
M 2034 4750 
Q 2819 4750 3233 4129 
Q 3647 3509 3647 2328 
Q 3647 1150 3233 529 
Q 2819 -91 2034 -91 
Q 1250 -91 836 529 
Q 422 1150 422 2328 
Q 422 3509 836 4129 
Q 1250 4750 2034 4750 
z
" id="DejaVuSans-30" transform="scale(0.015625)"/>
       </defs>
       <use xlink:href="#DejaVuSans-30"/>
      </g>
     </g>
    </g>
    <g id="xtick_2">
     <g id="line2d_3">
      <path clip-path="url(#pc6f6f69761)" d="M 139.936364 448.56 
L 139.936364 60.48 
" style="fill:none;stroke:#b0b0b0;stroke-linecap:square;stroke-width:0.8;"/>
     </g>
     <g id="line2d_4">
      <g>
       <use style="stroke:#000000;stroke-width:0.8;" x="139.936364" xlink:href="#mbfbb870446" y="448.56"/>
      </g>
     </g>
     <g id="text_2">
      <!-- 50 -->
      <g transform="translate(133.573864 463.158437)scale(0.1 -0.1)">
       <defs>
        <path d="M 691 4666 
L 3169 4666 
L 3169 4134 
L 1269 4134 
L 1269 2991 
Q 1406 3038 1543 3061 
Q 1681 3084 1819 3084 
Q 2600 3084 3056 2656 
Q 3513 2228 3513 1497 
Q 3513 744 3044 326 
Q 2575 -91 1722 -91 
Q 1428 -91 1123 -41 
Q 819 9 494 109 
L 494 744 
Q 775 591 1075 516 
Q 1375 441 1709 441 
Q 2250 441 2565 725 
Q 2881 1009 2881 1497 
Q 2881 1984 2565 2268 
Q 2250 2553 1709 2553 
Q 1456 2553 1204 2497 
Q 953 2441 691 2322 
L 691 4666 
z
" id="DejaVuSans-35" transform="scale(0.015625)"/>
       </defs>
       <use xlink:href="#DejaVuSans-35"/>
       <use x="63.623047" xlink:href="#DejaVuSans-30"/>
      </g>
     </g>
    </g>
    <g id="xtick_3">
     <g id="line2d_5">
      <path clip-path="url(#pc6f6f69761)" d="M 199.118182 448.56 
L 199.118182 60.48 
" style="fill:none;stroke:#b0b0b0;stroke-linecap:square;stroke-width:0.8;"/>
     </g>
     <g id="line2d_6">
      <g>
       <use style="stroke:#000000;stroke-width:0.8;" x="199.118182" xlink:href="#mbfbb870446" y="448.56"/>
      </g>
     </g>
     <g id="text_3">
      <!-- 100 -->
      <g transform="translate(189.574432 463.158437)scale(0.1 -0.1)">
       <defs>
        <path d="M 794 531 
L 1825 531 
L 1825 4091 
L 703 3866 
L 703 4441 
L 1819 4666 
L 2450 4666 
L 2450 531 
L 3481 531 
L 3481 0 
L 794 0 
L 794 531 
z
" id="DejaVuSans-31" transform="scale(0.015625)"/>
       </defs>
       <use xlink:href="#DejaVuSans-31"/>
       <use x="63.623047" xlink:href="#DejaVuSans-30"/>
       <use x="127.246094" xlink:href="#DejaVuSans-30"/>
      </g>
     </g>
    </g>
    <g id="xtick_4">
     <g id="line2d_7">
      <path clip-path="url(#pc6f6f69761)" d="M 258.3 448.56 
L 258.3 60.48 
" style="fill:none;stroke:#b0b0b0;stroke-linecap:square;stroke-width:0.8;"/>
     </g>
     <g id="line2d_8">
      <g>
       <use style="stroke:#000000;stroke-width:0.8;" x="258.3" xlink:href="#mbfbb870446" y="448.56"/>
      </g>
     </g>
     <g id="text_4">
      <!-- 150 -->
      <g transform="translate(248.75625 463.158437)scale(0.1 -0.1)">
       <use xlink:href="#DejaVuSans-31"/>
       <use x="63.623047" xlink:href="#DejaVuSans-35"/>
       <use x="127.246094" xlink:href="#DejaVuSans-30"/>
      </g>
     </g>
    </g>
    <g id="xtick_5">
     <g id="line2d_9">
      <path clip-path="url(#pc6f6f69761)" d="M 317.481818 448.56 
L 317.481818 60.48 
" style="fill:none;stroke:#b0b0b0;stroke-linecap:square;stroke-width:0.8;"/>
     </g>
     <g id="line2d_10">
      <g>
       <use style="stroke:#000000;stroke-width:0.8;" x="317.481818" xlink:href="#mbfbb870446" y="448.56"/>
      </g>
     </g>
     <g id="text_5">
      <!-- 200 -->
      <g transform="translate(307.938068 463.158437)scale(0.1 -0.1)">
       <defs>
        <path d="M 1228 531 
L 3431 531 
L 3431 0 
L 469 0 
L 469 531 
Q 828 903 1448 1529 
Q 2069 2156 2228 2338 
Q 2531 2678 2651 2914 
Q 2772 3150 2772 3378 
Q 2772 3750 2511 3984 
Q 2250 4219 1831 4219 
Q 1534 4219 1204 4116 
Q 875 4013 500 3803 
L 500 4441 
Q 881 4594 1212 4672 
Q 1544 4750 1819 4750 
Q 2544 4750 2975 4387 
Q 3406 4025 3406 3419 
Q 3406 3131 3298 2873 
Q 3191 2616 2906 2266 
Q 2828 2175 2409 1742 
Q 1991 1309 1228 531 
z
" id="DejaVuSans-32" transform="scale(0.015625)"/>
       </defs>
       <use xlink:href="#DejaVuSans-32"/>
       <use x="63.623047" xlink:href="#DejaVuSans-30"/>
       <use x="127.246094" xlink:href="#DejaVuSans-30"/>
      </g>
     </g>
    </g>
    <g id="xtick_6">
     <g id="line2d_11">
      <path clip-path="url(#pc6f6f69761)" d="M 376.663636 448.56 
L 376.663636 60.48 
" style="fill:none;stroke:#b0b0b0;stroke-linecap:square;stroke-width:0.8;"/>
     </g>
     <g id="line2d_12">
      <g>
       <use style="stroke:#000000;stroke-width:0.8;" x="376.663636" xlink:href="#mbfbb870446" y="448.56"/>
      </g>
     </g>
     <g id="text_6">
      <!-- 250 -->
      <g transform="translate(367.119886 463.158437)scale(0.1 -0.1)">
       <use xlink:href="#DejaVuSans-32"/>
       <use x="63.623047" xlink:href="#DejaVuSans-35"/>
       <use x="127.246094" xlink:href="#DejaVuSans-30"/>
      </g>
     </g>
    </g>
    <g id="xtick_7">
     <g id="line2d_13">
      <path clip-path="url(#pc6f6f69761)" d="M 435.845455 448.56 
L 435.845455 60.48 
" style="fill:none;stroke:#b0b0b0;stroke-linecap:square;stroke-width:0.8;"/>
     </g>
     <g id="line2d_14">
      <g>
       <use style="stroke:#000000;stroke-width:0.8;" x="435.845455" xlink:href="#mbfbb870446" y="448.56"/>
      </g>
     </g>
     <g id="text_7">
      <!-- 300 -->
      <g transform="translate(426.301705 463.158437)scale(0.1 -0.1)">
       <defs>
        <path d="M 2597 2516 
Q 3050 2419 3304 2112 
Q 3559 1806 3559 1356 
Q 3559 666 3084 287 
Q 2609 -91 1734 -91 
Q 1441 -91 1130 -33 
Q 819 25 488 141 
L 488 750 
Q 750 597 1062 519 
Q 1375 441 1716 441 
Q 2309 441 2620 675 
Q 2931 909 2931 1356 
Q 2931 1769 2642 2001 
Q 2353 2234 1838 2234 
L 1294 2234 
L 1294 2753 
L 1863 2753 
Q 2328 2753 2575 2939 
Q 2822 3125 2822 3475 
Q 2822 3834 2567 4026 
Q 2313 4219 1838 4219 
Q 1578 4219 1281 4162 
Q 984 4106 628 3988 
L 628 4550 
Q 988 4650 1302 4700 
Q 1616 4750 1894 4750 
Q 2613 4750 3031 4423 
Q 3450 4097 3450 3541 
Q 3450 3153 3228 2886 
Q 3006 2619 2597 2516 
z
" id="DejaVuSans-33" transform="scale(0.015625)"/>
       </defs>
       <use xlink:href="#DejaVuSans-33"/>
       <use x="63.623047" xlink:href="#DejaVuSans-30"/>
       <use x="127.246094" xlink:href="#DejaVuSans-30"/>
      </g>
     </g>
    </g>
    <g id="text_8">
     <!-- Iteration -->
     <g transform="translate(237.091406 476.836563)scale(0.1 -0.1)">
      <defs>
       <path d="M 628 4666 
L 1259 4666 
L 1259 0 
L 628 0 
L 628 4666 
z
" id="DejaVuSans-49" transform="scale(0.015625)"/>
       <path d="M 1172 4494 
L 1172 3500 
L 2356 3500 
L 2356 3053 
L 1172 3053 
L 1172 1153 
Q 1172 725 1289 603 
Q 1406 481 1766 481 
L 2356 481 
L 2356 0 
L 1766 0 
Q 1100 0 847 248 
Q 594 497 594 1153 
L 594 3053 
L 172 3053 
L 172 3500 
L 594 3500 
L 594 4494 
L 1172 4494 
z
" id="DejaVuSans-74" transform="scale(0.015625)"/>
       <path d="M 3597 1894 
L 3597 1613 
L 953 1613 
Q 991 1019 1311 708 
Q 1631 397 2203 397 
Q 2534 397 2845 478 
Q 3156 559 3463 722 
L 3463 178 
Q 3153 47 2828 -22 
Q 2503 -91 2169 -91 
Q 1331 -91 842 396 
Q 353 884 353 1716 
Q 353 2575 817 3079 
Q 1281 3584 2069 3584 
Q 2775 3584 3186 3129 
Q 3597 2675 3597 1894 
z
M 3022 2063 
Q 3016 2534 2758 2815 
Q 2500 3097 2075 3097 
Q 1594 3097 1305 2825 
Q 1016 2553 972 2059 
L 3022 2063 
z
" id="DejaVuSans-65" transform="scale(0.015625)"/>
       <path d="M 2631 2963 
Q 2534 3019 2420 3045 
Q 2306 3072 2169 3072 
Q 1681 3072 1420 2755 
Q 1159 2438 1159 1844 
L 1159 0 
L 581 0 
L 581 3500 
L 1159 3500 
L 1159 2956 
Q 1341 3275 1631 3429 
Q 1922 3584 2338 3584 
Q 2397 3584 2469 3576 
Q 2541 3569 2628 3553 
L 2631 2963 
z
" id="DejaVuSans-72" transform="scale(0.015625)"/>
       <path d="M 2194 1759 
Q 1497 1759 1228 1600 
Q 959 1441 959 1056 
Q 959 750 1161 570 
Q 1363 391 1709 391 
Q 2188 391 2477 730 
Q 2766 1069 2766 1631 
L 2766 1759 
L 2194 1759 
z
M 3341 1997 
L 3341 0 
L 2766 0 
L 2766 531 
Q 2569 213 2275 61 
Q 1981 -91 1556 -91 
Q 1019 -91 701 211 
Q 384 513 384 1019 
Q 384 1609 779 1909 
Q 1175 2209 1959 2209 
L 2766 2209 
L 2766 2266 
Q 2766 2663 2505 2880 
Q 2244 3097 1772 3097 
Q 1472 3097 1187 3025 
Q 903 2953 641 2809 
L 641 3341 
Q 956 3463 1253 3523 
Q 1550 3584 1831 3584 
Q 2591 3584 2966 3190 
Q 3341 2797 3341 1997 
z
" id="DejaVuSans-61" transform="scale(0.015625)"/>
       <path d="M 603 3500 
L 1178 3500 
L 1178 0 
L 603 0 
L 603 3500 
z
M 603 4863 
L 1178 4863 
L 1178 4134 
L 603 4134 
L 603 4863 
z
" id="DejaVuSans-69" transform="scale(0.015625)"/>
       <path d="M 1959 3097 
Q 1497 3097 1228 2736 
Q 959 2375 959 1747 
Q 959 1119 1226 758 
Q 1494 397 1959 397 
Q 2419 397 2687 759 
Q 2956 1122 2956 1747 
Q 2956 2369 2687 2733 
Q 2419 3097 1959 3097 
z
M 1959 3584 
Q 2709 3584 3137 3096 
Q 3566 2609 3566 1747 
Q 3566 888 3137 398 
Q 2709 -91 1959 -91 
Q 1206 -91 779 398 
Q 353 888 353 1747 
Q 353 2609 779 3096 
Q 1206 3584 1959 3584 
z
" id="DejaVuSans-6f" transform="scale(0.015625)"/>
       <path d="M 3513 2113 
L 3513 0 
L 2938 0 
L 2938 2094 
Q 2938 2591 2744 2837 
Q 2550 3084 2163 3084 
Q 1697 3084 1428 2787 
Q 1159 2491 1159 1978 
L 1159 0 
L 581 0 
L 581 3500 
L 1159 3500 
L 1159 2956 
Q 1366 3272 1645 3428 
Q 1925 3584 2291 3584 
Q 2894 3584 3203 3211 
Q 3513 2838 3513 2113 
z
" id="DejaVuSans-6e" transform="scale(0.015625)"/>
      </defs>
      <use xlink:href="#DejaVuSans-49"/>
      <use x="29.492188" xlink:href="#DejaVuSans-74"/>
      <use x="68.701172" xlink:href="#DejaVuSans-65"/>
      <use x="130.224609" xlink:href="#DejaVuSans-72"/>
      <use x="171.337891" xlink:href="#DejaVuSans-61"/>
      <use x="232.617188" xlink:href="#DejaVuSans-74"/>
      <use x="271.826172" xlink:href="#DejaVuSans-69"/>
      <use x="299.609375" xlink:href="#DejaVuSans-6f"/>
      <use x="360.791016" xlink:href="#DejaVuSans-6e"/>
     </g>
    </g>
   </g>
   <g id="matplotlib.axis_2">
    <g id="ytick_1">
     <g id="line2d_15">
      <path clip-path="url(#pc6f6f69761)" d="M 63 430.92 
L 453.6 430.92 
" style="fill:none;stroke:#b0b0b0;stroke-linecap:square;stroke-width:0.8;"/>
     </g>
     <g id="line2d_16">
      <defs>
       <path d="M 0 0 
L -3.5 0 
" id="me3ac37db5a" style="stroke:#000000;stroke-width:0.8;"/>
      </defs>
      <g>
       <use style="stroke:#000000;stroke-width:0.8;" x="63" xlink:href="#me3ac37db5a" y="430.92"/>
      </g>
     </g>
     <g id="text_9">
      <!-- 0 -->
      <g transform="translate(49.6375 434.719219)scale(0.1 -0.1)">
       <use xlink:href="#DejaVuSans-30"/>
      </g>
     </g>
    </g>
    <g id="ytick_2">
     <g id="line2d_17">
      <path clip-path="url(#pc6f6f69761)" d="M 63 352.52 
L 453.6 352.52 
" style="fill:none;stroke:#b0b0b0;stroke-linecap:square;stroke-width:0.8;"/>
     </g>
     <g id="line2d_18">
      <g>
       <use style="stroke:#000000;stroke-width:0.8;" x="63" xlink:href="#me3ac37db5a" y="352.52"/>
      </g>
     </g>
     <g id="text_10">
      <!-- 200 -->
      <g transform="translate(36.9125 356.319219)scale(0.1 -0.1)">
       <use xlink:href="#DejaVuSans-32"/>
       <use x="63.623047" xlink:href="#DejaVuSans-30"/>
       <use x="127.246094" xlink:href="#DejaVuSans-30"/>
      </g>
     </g>
    </g>
    <g id="ytick_3">
     <g id="line2d_19">
      <path clip-path="url(#pc6f6f69761)" d="M 63 274.12 
L 453.6 274.12 
" style="fill:none;stroke:#b0b0b0;stroke-linecap:square;stroke-width:0.8;"/>
     </g>
     <g id="line2d_20">
      <g>
       <use style="stroke:#000000;stroke-width:0.8;" x="63" xlink:href="#me3ac37db5a" y="274.12"/>
      </g>
     </g>
     <g id="text_11">
      <!-- 400 -->
      <g transform="translate(36.9125 277.919219)scale(0.1 -0.1)">
       <defs>
        <path d="M 2419 4116 
L 825 1625 
L 2419 1625 
L 2419 4116 
z
M 2253 4666 
L 3047 4666 
L 3047 1625 
L 3713 1625 
L 3713 1100 
L 3047 1100 
L 3047 0 
L 2419 0 
L 2419 1100 
L 313 1100 
L 313 1709 
L 2253 4666 
z
" id="DejaVuSans-34" transform="scale(0.015625)"/>
       </defs>
       <use xlink:href="#DejaVuSans-34"/>
       <use x="63.623047" xlink:href="#DejaVuSans-30"/>
       <use x="127.246094" xlink:href="#DejaVuSans-30"/>
      </g>
     </g>
    </g>
    <g id="ytick_4">
     <g id="line2d_21">
      <path clip-path="url(#pc6f6f69761)" d="M 63 195.72 
L 453.6 195.72 
" style="fill:none;stroke:#b0b0b0;stroke-linecap:square;stroke-width:0.8;"/>
     </g>
     <g id="line2d_22">
      <g>
       <use style="stroke:#000000;stroke-width:0.8;" x="63" xlink:href="#me3ac37db5a" y="195.72"/>
      </g>
     </g>
     <g id="text_12">
      <!-- 600 -->
      <g transform="translate(36.9125 199.519219)scale(0.1 -0.1)">
       <defs>
        <path d="M 2113 2584 
Q 1688 2584 1439 2293 
Q 1191 2003 1191 1497 
Q 1191 994 1439 701 
Q 1688 409 2113 409 
Q 2538 409 2786 701 
Q 3034 994 3034 1497 
Q 3034 2003 2786 2293 
Q 2538 2584 2113 2584 
z
M 3366 4563 
L 3366 3988 
Q 3128 4100 2886 4159 
Q 2644 4219 2406 4219 
Q 1781 4219 1451 3797 
Q 1122 3375 1075 2522 
Q 1259 2794 1537 2939 
Q 1816 3084 2150 3084 
Q 2853 3084 3261 2657 
Q 3669 2231 3669 1497 
Q 3669 778 3244 343 
Q 2819 -91 2113 -91 
Q 1303 -91 875 529 
Q 447 1150 447 2328 
Q 447 3434 972 4092 
Q 1497 4750 2381 4750 
Q 2619 4750 2861 4703 
Q 3103 4656 3366 4563 
z
" id="DejaVuSans-36" transform="scale(0.015625)"/>
       </defs>
       <use xlink:href="#DejaVuSans-36"/>
       <use x="63.623047" xlink:href="#DejaVuSans-30"/>
       <use x="127.246094" xlink:href="#DejaVuSans-30"/>
      </g>
     </g>
    </g>
    <g id="ytick_5">
     <g id="line2d_23">
      <path clip-path="url(#pc6f6f69761)" d="M 63 117.32 
L 453.6 117.32 
" style="fill:none;stroke:#b0b0b0;stroke-linecap:square;stroke-width:0.8;"/>
     </g>
     <g id="line2d_24">
      <g>
       <use style="stroke:#000000;stroke-width:0.8;" x="63" xlink:href="#me3ac37db5a" y="117.32"/>
      </g>
     </g>
     <g id="text_13">
      <!-- 800 -->
      <g transform="translate(36.9125 121.119219)scale(0.1 -0.1)">
       <defs>
        <path d="M 2034 2216 
Q 1584 2216 1326 1975 
Q 1069 1734 1069 1313 
Q 1069 891 1326 650 
Q 1584 409 2034 409 
Q 2484 409 2743 651 
Q 3003 894 3003 1313 
Q 3003 1734 2745 1975 
Q 2488 2216 2034 2216 
z
M 1403 2484 
Q 997 2584 770 2862 
Q 544 3141 544 3541 
Q 544 4100 942 4425 
Q 1341 4750 2034 4750 
Q 2731 4750 3128 4425 
Q 3525 4100 3525 3541 
Q 3525 3141 3298 2862 
Q 3072 2584 2669 2484 
Q 3125 2378 3379 2068 
Q 3634 1759 3634 1313 
Q 3634 634 3220 271 
Q 2806 -91 2034 -91 
Q 1263 -91 848 271 
Q 434 634 434 1313 
Q 434 1759 690 2068 
Q 947 2378 1403 2484 
z
M 1172 3481 
Q 1172 3119 1398 2916 
Q 1625 2713 2034 2713 
Q 2441 2713 2670 2916 
Q 2900 3119 2900 3481 
Q 2900 3844 2670 4047 
Q 2441 4250 2034 4250 
Q 1625 4250 1398 4047 
Q 1172 3844 1172 3481 
z
" id="DejaVuSans-38" transform="scale(0.015625)"/>
       </defs>
       <use xlink:href="#DejaVuSans-38"/>
       <use x="63.623047" xlink:href="#DejaVuSans-30"/>
       <use x="127.246094" xlink:href="#DejaVuSans-30"/>
      </g>
     </g>
    </g>
    <g id="text_14">
     <!-- Node count -->
     <g transform="translate(30.832812 283.266094)rotate(-90)scale(0.1 -0.1)">
      <defs>
       <path d="M 628 4666 
L 1478 4666 
L 3547 763 
L 3547 4666 
L 4159 4666 
L 4159 0 
L 3309 0 
L 1241 3903 
L 1241 0 
L 628 0 
L 628 4666 
z
" id="DejaVuSans-4e" transform="scale(0.015625)"/>
       <path d="M 2906 2969 
L 2906 4863 
L 3481 4863 
L 3481 0 
L 2906 0 
L 2906 525 
Q 2725 213 2448 61 
Q 2172 -91 1784 -91 
Q 1150 -91 751 415 
Q 353 922 353 1747 
Q 353 2572 751 3078 
Q 1150 3584 1784 3584 
Q 2172 3584 2448 3432 
Q 2725 3281 2906 2969 
z
M 947 1747 
Q 947 1113 1208 752 
Q 1469 391 1925 391 
Q 2381 391 2643 752 
Q 2906 1113 2906 1747 
Q 2906 2381 2643 2742 
Q 2381 3103 1925 3103 
Q 1469 3103 1208 2742 
Q 947 2381 947 1747 
z
" id="DejaVuSans-64" transform="scale(0.015625)"/>
       <path id="DejaVuSans-20" transform="scale(0.015625)"/>
       <path d="M 3122 3366 
L 3122 2828 
Q 2878 2963 2633 3030 
Q 2388 3097 2138 3097 
Q 1578 3097 1268 2742 
Q 959 2388 959 1747 
Q 959 1106 1268 751 
Q 1578 397 2138 397 
Q 2388 397 2633 464 
Q 2878 531 3122 666 
L 3122 134 
Q 2881 22 2623 -34 
Q 2366 -91 2075 -91 
Q 1284 -91 818 406 
Q 353 903 353 1747 
Q 353 2603 823 3093 
Q 1294 3584 2113 3584 
Q 2378 3584 2631 3529 
Q 2884 3475 3122 3366 
z
" id="DejaVuSans-63" transform="scale(0.015625)"/>
       <path d="M 544 1381 
L 544 3500 
L 1119 3500 
L 1119 1403 
Q 1119 906 1312 657 
Q 1506 409 1894 409 
Q 2359 409 2629 706 
Q 2900 1003 2900 1516 
L 2900 3500 
L 3475 3500 
L 3475 0 
L 2900 0 
L 2900 538 
Q 2691 219 2414 64 
Q 2138 -91 1772 -91 
Q 1169 -91 856 284 
Q 544 659 544 1381 
z
M 1991 3584 
L 1991 3584 
z
" id="DejaVuSans-75" transform="scale(0.015625)"/>
      </defs>
      <use xlink:href="#DejaVuSans-4e"/>
      <use x="74.804688" xlink:href="#DejaVuSans-6f"/>
      <use x="135.986328" xlink:href="#DejaVuSans-64"/>
      <use x="199.462891" xlink:href="#DejaVuSans-65"/>
      <use x="260.986328" xlink:href="#DejaVuSans-20"/>
      <use x="292.773438" xlink:href="#DejaVuSans-63"/>
      <use x="347.753906" xlink:href="#DejaVuSans-6f"/>
      <use x="408.935547" xlink:href="#DejaVuSans-75"/>
      <use x="472.314453" xlink:href="#DejaVuSans-6e"/>
      <use x="535.693359" xlink:href="#DejaVuSans-74"/>
     </g>
    </g>
   </g>
   <g id="line2d_25">
    <path clip-path="url(#pc6f6f69761)" d="M 80.754545 78.12 
L 83.121818 142.016 
L 84.305455 175.728 
L 85.489091 203.952 
L 87.856364 275.688 
L 89.04 301.56 
L 90.223636 336.448 
L 91.407273 355.264 
L 92.590909 377.216 
L 93.774545 390.936 
L 96.141818 407.4 
L 97.325455 412.104 
L 98.509091 417.984 
L 99.692727 423.08 
L 100.876364 425.824 
L 103.243636 428.96 
L 104.427273 429.352 
L 105.610909 430.136 
L 106.794545 430.528 
L 110.345455 430.528 
L 111.529091 430.92 
L 435.845455 430.92 
L 435.845455 430.92 
" style="fill:none;stroke:#1f77b4;stroke-linecap:square;stroke-width:1.5;"/>
   </g>
   <g id="line2d_26">
    <path clip-path="url(#pc6f6f69761)" d="M 80.754545 411.32 
L 81.938182 408.576 
L 83.121818 405.44 
L 84.305455 400.736 
L 86.672727 396.816 
L 87.856364 385.84 
L 89.04 386.624 
L 90.223636 374.864 
L 91.407273 381.92 
L 92.590909 378.784 
L 93.774545 376.04 
L 94.958182 377.608 
L 96.141818 376.432 
L 97.325455 369.768 
L 98.509091 369.376 
L 99.692727 370.944 
L 100.876364 364.672 
L 102.06 366.632 
L 103.243636 362.712 
L 104.427273 359.968 
L 105.610909 357.616 
L 106.794545 358.4 
L 107.978182 357.616 
L 109.161818 361.928 
L 110.345455 356.832 
L 111.529091 352.52 
L 112.712727 351.344 
L 113.896364 353.696 
L 115.08 354.48 
L 116.263636 346.64 
L 117.447273 355.656 
L 118.630909 356.44 
L 119.814545 351.736 
L 120.998182 350.168 
L 123.365455 343.112 
L 124.549091 346.64 
L 125.732727 356.048 
L 126.916364 364.28 
L 128.1 359.576 
L 129.283636 364.672 
L 130.467273 362.32 
L 131.650909 354.48 
L 132.834545 356.44 
L 134.018182 361.928 
L 135.201818 359.968 
L 136.385455 371.728 
L 137.569091 370.944 
L 138.752727 361.144 
L 139.936364 358.008 
L 141.12 358.792 
L 142.303636 361.928 
L 143.487273 361.928 
L 144.670909 364.28 
L 145.854545 362.32 
L 147.038182 361.536 
L 148.221818 364.28 
L 149.405455 361.144 
L 151.772727 363.496 
L 152.956364 355.264 
L 154.14 361.144 
L 155.323636 360.752 
L 156.507273 354.088 
L 157.690909 349.776 
L 158.874545 350.56 
L 160.058182 351.736 
L 161.241818 352.52 
L 162.425455 351.736 
L 163.609091 358.4 
L 164.792727 363.104 
L 165.976364 361.536 
L 167.16 360.36 
L 168.343636 354.088 
L 169.527273 346.64 
L 170.710909 356.832 
L 171.894545 349.384 
L 173.078182 350.56 
L 174.261818 350.168 
L 175.445455 356.832 
L 176.629091 358.008 
L 177.812727 359.968 
L 178.996364 363.104 
L 180.18 371.728 
L 181.363636 372.12 
L 182.547273 373.688 
L 184.914545 357.616 
L 186.098182 354.48 
L 187.281818 362.32 
L 188.465455 360.752 
L 189.649091 356.832 
L 190.832727 347.816 
L 192.016364 345.856 
L 193.2 343.112 
L 194.383636 347.424 
L 195.567273 355.656 
L 196.750909 360.36 
L 197.934545 359.576 
L 199.118182 353.304 
L 200.301818 351.344 
L 201.485455 346.248 
L 203.852727 338.016 
L 205.036364 338.408 
L 206.22 341.544 
L 207.403636 343.896 
L 209.770909 350.168 
L 210.954545 348.992 
L 212.138182 339.192 
L 213.321818 339.584 
L 214.505455 334.096 
L 215.689091 333.704 
L 216.872727 332.92 
L 218.056364 338.408 
L 219.24 336.448 
L 220.423636 341.152 
L 221.607273 343.112 
L 222.790909 352.912 
L 223.974545 350.952 
L 225.158182 352.912 
L 226.341818 349.384 
L 227.525455 346.248 
L 228.709091 336.84 
L 229.892727 331.352 
L 231.076364 339.584 
L 232.26 345.856 
L 233.443636 343.112 
L 234.627273 343.504 
L 235.810909 350.56 
L 236.994545 347.816 
L 238.178182 337.624 
L 239.361818 339.976 
L 240.545455 341.152 
L 241.729091 340.76 
L 242.912727 334.88 
L 244.096364 336.84 
L 245.28 331.352 
L 246.463636 336.84 
L 247.647273 341.152 
L 248.830909 339.976 
L 250.014545 330.96 
L 251.198182 327.04 
L 252.381818 325.08 
L 253.565455 333.312 
L 254.749091 336.448 
L 255.932727 336.056 
L 257.116364 339.192 
L 258.3 345.856 
L 259.483636 337.232 
L 260.667273 319.2 
L 261.850909 320.376 
L 263.034545 329.784 
L 264.218182 330.176 
L 265.401818 321.16 
L 266.585455 325.472 
L 267.769091 324.688 
L 268.952727 321.16 
L 270.136364 323.512 
L 271.32 335.664 
L 272.503636 332.136 
L 273.687273 337.624 
L 274.870909 334.488 
L 276.054545 334.488 
L 277.238182 342.328 
L 278.421818 343.112 
L 279.605455 342.72 
L 280.789091 346.64 
L 281.972727 350.168 
L 283.156364 350.56 
L 284.34 352.912 
L 285.523636 352.912 
L 286.707273 354.48 
L 287.890909 350.168 
L 289.074545 348.6 
L 290.258182 347.816 
L 291.441818 345.856 
L 292.625455 348.992 
L 293.809091 354.088 
L 294.992727 354.48 
L 296.176364 359.184 
L 297.36 359.576 
L 298.543636 357.224 
L 299.727273 350.56 
L 300.910909 352.912 
L 302.094545 346.64 
L 303.278182 345.856 
L 304.461818 346.64 
L 305.645455 354.48 
L 306.829091 348.208 
L 308.012727 344.68 
L 309.196364 341.936 
L 311.563636 349.776 
L 312.747273 339.192 
L 313.930909 338.408 
L 315.114545 342.72 
L 316.298182 344.288 
L 317.481818 336.448 
L 318.665455 327.04 
L 319.849091 339.192 
L 321.032727 334.488 
L 322.216364 325.472 
L 323.4 321.944 
L 324.583636 325.472 
L 325.767273 316.848 
L 326.950909 314.888 
L 328.134545 320.376 
L 329.318182 326.648 
L 330.501818 316.848 
L 331.685455 324.296 
L 332.869091 317.24 
L 334.052727 324.296 
L 335.236364 320.768 
L 336.42 321.944 
L 337.603636 320.768 
L 338.787273 313.712 
L 339.970909 318.024 
L 341.154545 318.416 
L 342.338182 327.824 
L 343.521818 326.256 
L 344.705455 334.88 
L 345.889091 324.296 
L 347.072727 310.184 
L 348.256364 314.888 
L 349.44 309.008 
L 350.623636 315.672 
L 352.990909 321.16 
L 355.358182 315.672 
L 356.541818 319.984 
L 357.725455 321.944 
L 358.909091 321.944 
L 360.092727 323.904 
L 361.276364 329.392 
L 362.46 330.176 
L 363.643636 329 
L 364.827273 330.176 
L 366.010909 317.632 
L 367.194545 327.04 
L 368.378182 333.704 
L 369.561818 326.648 
L 370.745455 322.728 
L 373.112727 339.584 
L 374.296364 341.152 
L 375.48 336.056 
L 376.663636 334.88 
L 377.847273 335.664 
L 379.030909 350.952 
L 380.214545 352.128 
L 381.398182 346.248 
L 382.581818 351.344 
L 383.765455 352.912 
L 386.132727 347.424 
L 387.316364 361.928 
L 388.5 366.24 
L 389.683636 364.672 
L 390.867273 368.984 
L 392.050909 370.944 
L 393.234545 368.592 
L 394.418182 369.376 
L 395.601818 373.688 
L 396.785455 371.728 
L 397.969091 373.296 
L 399.152727 379.96 
L 400.336364 382.312 
L 401.52 386.232 
L 402.703636 388.976 
L 405.070909 382.704 
L 406.254545 383.88 
L 407.438182 378.784 
L 408.621818 375.256 
L 409.805455 377.216 
L 410.989091 371.336 
L 412.172727 377.216 
L 414.54 374.08 
L 416.907273 367.024 
L 418.090909 371.728 
L 419.274545 372.12 
L 420.458182 376.04 
L 421.641818 380.744 
L 422.825455 388.584 
L 424.009091 386.624 
L 425.192727 384.272 
L 427.56 376.04 
L 428.743636 374.864 
L 429.927273 377.216 
L 431.110909 379.176 
L 432.294545 371.728 
L 433.478182 376.824 
L 434.661818 370.944 
L 435.845455 365.848 
L 435.845455 365.848 
" style="fill:none;stroke:#ff7f0e;stroke-linecap:square;stroke-width:1.5;"/>
   </g>
   <g id="line2d_27">
    <path clip-path="url(#pc6f6f69761)" d="M 80.754545 411.32 
L 84.305455 386.232 
L 85.489091 380.352 
L 86.672727 372.12 
L 87.856364 359.968 
L 89.04 354.872 
L 90.223636 345.856 
L 91.407273 331.744 
L 92.590909 324.688 
L 93.774545 337.624 
L 94.958182 332.528 
L 96.141818 336.448 
L 97.325455 338.016 
L 98.509091 336.448 
L 99.692727 342.328 
L 100.876364 340.76 
L 102.06 341.152 
L 103.243636 341.936 
L 104.427273 338.016 
L 105.610909 341.936 
L 106.794545 336.84 
L 107.978182 339.192 
L 109.161818 332.92 
L 110.345455 336.448 
L 111.529091 338.408 
L 112.712727 333.312 
L 113.896364 334.488 
L 115.08 328.608 
L 116.263636 335.664 
L 117.447273 338.016 
L 118.630909 336.448 
L 119.814545 342.328 
L 120.998182 342.72 
L 122.181818 344.68 
L 123.365455 345.072 
L 124.549091 344.288 
L 125.732727 343.112 
L 126.916364 338.8 
L 128.1 336.056 
L 129.283636 331.352 
L 130.467273 330.176 
L 131.650909 327.432 
L 132.834545 330.96 
L 134.018182 336.448 
L 135.201818 340.76 
L 136.385455 336.056 
L 137.569091 326.256 
L 138.752727 329.392 
L 139.936364 323.904 
L 141.12 323.904 
L 142.303636 327.432 
L 143.487273 330.176 
L 144.670909 332.136 
L 145.854545 328.608 
L 147.038182 329.784 
L 148.221818 329 
L 150.589091 339.192 
L 151.772727 337.232 
L 152.956364 340.76 
L 154.14 340.76 
L 155.323636 338.8 
L 156.507273 336.056 
L 157.690909 336.448 
L 158.874545 340.368 
L 160.058182 339.192 
L 161.241818 332.528 
L 162.425455 334.88 
L 163.609091 338.016 
L 164.792727 329 
L 165.976364 334.096 
L 167.16 337.232 
L 168.343636 334.096 
L 169.527273 341.152 
L 170.710909 344.288 
L 171.894545 343.896 
L 173.078182 342.72 
L 174.261818 345.072 
L 175.445455 341.544 
L 176.629091 338.8 
L 177.812727 329 
L 178.996364 334.488 
L 180.18 339.192 
L 181.363636 343.112 
L 182.547273 337.624 
L 183.730909 348.208 
L 184.914545 348.208 
L 186.098182 336.448 
L 188.465455 324.296 
L 189.649091 339.584 
L 190.832727 330.176 
L 192.016364 333.704 
L 193.2 335.664 
L 194.383636 329.392 
L 196.750909 343.504 
L 197.934545 343.504 
L 199.118182 338.8 
L 200.301818 350.952 
L 202.669091 344.68 
L 203.852727 346.248 
L 205.036364 347.424 
L 206.22 352.912 
L 207.403636 352.52 
L 208.587273 349.384 
L 209.770909 348.6 
L 210.954545 354.48 
L 212.138182 354.48 
L 213.321818 358.4 
L 214.505455 352.912 
L 215.689091 351.736 
L 216.872727 353.696 
L 218.056364 354.872 
L 219.24 350.168 
L 220.423636 354.088 
L 221.607273 348.6 
L 222.790909 354.088 
L 223.974545 354.48 
L 225.158182 352.128 
L 226.341818 356.832 
L 227.525455 352.52 
L 228.709091 352.52 
L 229.892727 348.992 
L 231.076364 346.64 
L 232.26 349.776 
L 233.443636 348.992 
L 234.627273 351.736 
L 235.810909 356.048 
L 236.994545 357.224 
L 238.178182 355.656 
L 239.361818 352.52 
L 240.545455 354.48 
L 241.729091 358.792 
L 242.912727 360.752 
L 244.096364 354.088 
L 245.28 355.264 
L 246.463636 352.52 
L 247.647273 356.832 
L 248.830909 356.44 
L 250.014545 359.576 
L 251.198182 359.184 
L 252.381818 363.888 
L 253.565455 358.792 
L 254.749091 360.752 
L 255.932727 360.36 
L 257.116364 362.32 
L 258.3 352.52 
L 259.483636 353.304 
L 260.667273 351.736 
L 261.850909 358.008 
L 263.034545 359.576 
L 264.218182 371.728 
L 265.401818 365.848 
L 266.585455 374.864 
L 267.769091 365.064 
L 268.952727 358.792 
L 270.136364 363.496 
L 271.32 362.32 
L 272.503636 350.56 
L 273.687273 347.816 
L 274.870909 337.232 
L 276.054545 350.952 
L 277.238182 348.992 
L 278.421818 344.68 
L 279.605455 347.032 
L 280.789091 339.976 
L 281.972727 345.856 
L 284.34 341.152 
L 285.523636 339.192 
L 286.707273 338.408 
L 287.890909 344.68 
L 289.074545 340.76 
L 290.258182 345.072 
L 291.441818 346.64 
L 292.625455 347.816 
L 293.809091 346.64 
L 296.176364 352.912 
L 297.36 356.44 
L 298.543636 353.696 
L 300.910909 345.072 
L 302.094545 347.424 
L 303.278182 345.856 
L 305.645455 353.696 
L 306.829091 346.248 
L 308.012727 346.64 
L 309.196364 346.64 
L 310.38 358.4 
L 311.563636 362.712 
L 312.747273 361.928 
L 313.930909 369.768 
L 315.114545 363.496 
L 316.298182 369.376 
L 317.481818 366.632 
L 318.665455 367.416 
L 319.849091 367.808 
L 321.032727 369.376 
L 322.216364 369.376 
L 323.4 376.824 
L 324.583636 379.176 
L 326.950909 381.528 
L 328.134545 378 
L 329.318182 373.688 
L 330.501818 381.136 
L 331.685455 374.864 
L 332.869091 374.472 
L 334.052727 374.472 
L 335.236364 374.864 
L 337.603636 377.216 
L 338.787273 373.296 
L 339.970909 371.728 
L 341.154545 375.256 
L 342.338182 370.944 
L 343.521818 374.472 
L 344.705455 376.432 
L 345.889091 379.568 
L 347.072727 378 
L 348.256364 379.176 
L 349.44 381.528 
L 350.623636 374.08 
L 351.807273 373.296 
L 352.990909 381.92 
L 355.358182 376.432 
L 356.541818 379.568 
L 357.725455 381.136 
L 358.909091 376.824 
L 360.092727 375.256 
L 361.276364 378 
L 362.46 376.04 
L 363.643636 373.296 
L 364.827273 369.376 
L 366.010909 376.824 
L 367.194545 365.456 
L 368.378182 362.712 
L 369.561818 366.632 
L 370.745455 367.024 
L 371.929091 359.968 
L 373.112727 362.712 
L 374.296364 354.48 
L 376.663636 345.856 
L 377.847273 350.168 
L 379.030909 346.248 
L 380.214545 346.248 
L 381.398182 341.544 
L 382.581818 345.072 
L 383.765455 350.168 
L 384.949091 342.328 
L 386.132727 336.84 
L 387.316364 338.408 
L 388.5 329.784 
L 389.683636 334.096 
L 390.867273 329.784 
L 392.050909 332.136 
L 393.234545 328.608 
L 394.418182 322.728 
L 395.601818 313.32 
L 396.785455 324.296 
L 397.969091 318.024 
L 399.152727 321.944 
L 400.336364 313.712 
L 401.52 318.808 
L 402.703636 321.16 
L 403.887273 316.064 
L 406.254545 313.712 
L 407.438182 323.12 
L 408.621818 325.864 
L 409.805455 319.2 
L 410.989091 327.432 
L 412.172727 324.296 
L 414.54 314.104 
L 415.723636 323.904 
L 416.907273 323.12 
L 418.090909 324.296 
L 419.274545 323.512 
L 420.458182 321.552 
L 421.641818 321.16 
L 422.825455 313.712 
L 424.009091 311.752 
L 425.192727 306.656 
L 426.376364 311.36 
L 427.56 304.304 
L 428.743636 318.416 
L 429.927273 327.824 
L 431.110909 321.552 
L 432.294545 318.416 
L 433.478182 317.632 
L 434.661818 334.488 
L 435.845455 336.84 
L 435.845455 336.84 
" style="fill:none;stroke:#2ca02c;stroke-linecap:square;stroke-width:1.5;"/>
   </g>
   <g id="line2d_28">
    <path clip-path="url(#pc6f6f69761)" d="M 80.754545 430.92 
L 81.938182 411.712 
L 84.305455 368.984 
L 85.489091 348.6 
L 86.672727 324.296 
L 87.856364 310.184 
L 89.04 288.624 
L 90.223636 274.512 
L 92.590909 250.992 
L 93.774545 227.08 
L 94.958182 222.376 
L 96.141818 211.4 
L 97.325455 211.792 
L 98.509091 207.872 
L 99.692727 195.328 
L 100.876364 200.424 
L 102.06 196.504 
L 103.243636 198.072 
L 104.427273 204.344 
L 105.610909 201.992 
L 106.794545 205.912 
L 107.978182 204.344 
L 109.161818 206.304 
L 110.345455 207.872 
L 111.529091 209.832 
L 112.712727 216.104 
L 113.896364 212.576 
L 115.08 217.672 
L 116.263636 218.456 
L 117.447273 207.088 
L 118.630909 207.872 
L 119.814545 206.696 
L 120.998182 207.872 
L 122.181818 209.44 
L 123.365455 212.576 
L 124.549091 209.832 
L 125.732727 201.6 
L 126.916364 197.68 
L 128.1 205.128 
L 129.283636 204.736 
L 130.467273 208.264 
L 131.650909 218.848 
L 132.834545 213.36 
L 134.018182 202.384 
L 135.201818 200.032 
L 136.385455 192.976 
L 137.569091 203.56 
L 138.752727 210.224 
L 139.936364 218.848 
L 141.12 218.064 
L 142.303636 211.4 
L 143.487273 208.656 
L 144.670909 204.344 
L 145.854545 209.832 
L 147.038182 209.44 
L 149.405455 205.52 
L 150.589091 199.248 
L 151.772727 200.032 
L 152.956364 204.736 
L 154.14 198.856 
L 155.323636 201.208 
L 156.507273 210.616 
L 157.690909 214.536 
L 158.874545 209.832 
L 160.058182 209.832 
L 161.241818 215.712 
L 162.425455 214.144 
L 163.609091 204.344 
L 164.792727 208.656 
L 165.976364 205.128 
L 167.16 203.168 
L 168.343636 212.576 
L 169.527273 212.968 
L 170.710909 199.64 
L 171.894545 207.48 
L 173.078182 207.48 
L 174.261818 205.52 
L 175.445455 202.384 
L 176.629091 203.952 
L 177.812727 211.792 
L 178.996364 203.168 
L 180.18 189.84 
L 181.363636 185.528 
L 182.547273 189.448 
L 183.730909 187.096 
L 184.914545 194.936 
L 186.098182 209.832 
L 187.281818 208.264 
L 188.465455 215.712 
L 189.649091 204.344 
L 190.832727 222.768 
L 192.016364 221.2 
L 193.2 221.984 
L 194.383636 223.944 
L 195.567273 208.656 
L 196.750909 196.896 
L 197.934545 197.68 
L 199.118182 208.656 
L 200.301818 198.464 
L 201.485455 206.696 
L 202.669091 214.144 
L 203.852727 216.496 
L 205.036364 214.928 
L 206.22 206.304 
L 207.403636 204.344 
L 208.587273 204.344 
L 209.770909 201.992 
L 210.954545 197.288 
L 212.138182 207.088 
L 213.321818 202.776 
L 214.505455 213.752 
L 215.689091 215.32 
L 216.872727 214.144 
L 218.056364 207.48 
L 219.24 214.144 
L 220.423636 205.52 
L 221.607273 209.048 
L 222.790909 193.76 
L 223.974545 195.328 
L 225.158182 195.72 
L 226.341818 194.544 
L 227.525455 201.992 
L 229.892727 220.416 
L 231.076364 214.536 
L 232.26 205.128 
L 233.443636 208.656 
L 234.627273 205.52 
L 235.810909 194.152 
L 236.994545 195.72 
L 238.178182 207.48 
L 239.361818 208.264 
L 240.545455 205.128 
L 241.729091 201.208 
L 242.912727 205.128 
L 245.28 214.144 
L 246.463636 211.4 
L 247.647273 202.776 
L 248.830909 204.344 
L 250.014545 210.224 
L 251.198182 214.536 
L 252.381818 211.792 
L 253.565455 208.656 
L 254.749091 203.56 
L 255.932727 204.344 
L 257.116364 199.248 
L 258.3 202.384 
L 259.483636 210.224 
L 260.667273 229.824 
L 261.850909 222.376 
L 263.034545 211.4 
L 264.218182 198.856 
L 265.401818 213.752 
L 266.585455 200.424 
L 268.952727 220.808 
L 270.136364 213.752 
L 271.32 202.776 
L 272.503636 218.064 
L 273.687273 215.32 
L 274.870909 229.04 
L 276.054545 215.32 
L 277.238182 209.44 
L 278.421818 212.968 
L 279.605455 211.008 
L 280.789091 214.144 
L 281.972727 204.736 
L 283.156364 206.696 
L 284.34 206.696 
L 285.523636 208.656 
L 286.707273 207.872 
L 287.890909 205.912 
L 289.074545 211.4 
L 290.258182 207.872 
L 291.441818 208.264 
L 293.809091 200.032 
L 294.992727 196.504 
L 296.176364 188.664 
L 297.36 184.744 
L 298.543636 189.84 
L 299.727273 200.816 
L 300.910909 202.776 
L 302.094545 206.696 
L 303.278182 209.048 
L 304.461818 204.344 
L 305.645455 192.584 
L 306.829091 206.304 
L 308.012727 209.44 
L 309.196364 212.184 
L 310.38 196.504 
L 311.563636 188.272 
L 312.747273 199.64 
L 313.930909 192.584 
L 315.114545 194.544 
L 316.298182 187.096 
L 317.481818 197.68 
L 318.665455 206.304 
L 319.849091 193.76 
L 321.032727 196.896 
L 322.216364 205.912 
L 323.4 201.992 
L 324.583636 196.112 
L 325.767273 203.56 
L 326.950909 204.344 
L 329.318182 200.424 
L 330.501818 202.776 
L 331.685455 201.6 
L 332.869091 209.048 
L 334.052727 201.992 
L 335.236364 205.128 
L 336.42 202.776 
L 337.603636 202.776 
L 338.787273 213.752 
L 339.970909 211.008 
L 341.154545 207.088 
L 342.338182 201.992 
L 343.521818 200.032 
L 344.705455 189.448 
L 345.889091 196.896 
L 347.072727 212.576 
L 348.256364 206.696 
L 349.44 210.224 
L 350.623636 211.008 
L 351.807273 209.048 
L 352.990909 197.68 
L 355.358182 208.656 
L 356.541818 201.208 
L 357.725455 197.68 
L 358.909091 201.992 
L 360.092727 201.6 
L 361.276364 193.368 
L 362.46 194.544 
L 363.643636 198.464 
L 364.827273 201.208 
L 366.010909 206.304 
L 367.194545 208.264 
L 368.378182 204.344 
L 369.561818 207.48 
L 370.745455 211.008 
L 371.929091 209.44 
L 373.112727 198.464 
L 374.296364 205.128 
L 375.48 214.536 
L 376.663636 220.024 
L 377.847273 214.928 
L 379.030909 203.56 
L 380.214545 202.384 
L 381.398182 212.968 
L 382.581818 204.344 
L 383.765455 197.68 
L 384.949091 208.264 
L 386.132727 216.496 
L 387.316364 200.424 
L 388.5 204.736 
L 389.683636 201.992 
L 390.867273 201.992 
L 392.050909 197.68 
L 393.234545 203.56 
L 395.601818 213.752 
L 396.785455 204.736 
L 397.969091 209.44 
L 399.152727 198.856 
L 400.336364 204.736 
L 401.52 195.72 
L 402.703636 190.624 
L 403.887273 198.856 
L 405.070909 203.168 
L 406.254545 203.168 
L 407.438182 198.856 
L 408.621818 199.64 
L 409.805455 204.344 
L 410.989091 201.992 
L 412.172727 199.248 
L 414.54 212.576 
L 415.723636 206.304 
L 416.907273 210.616 
L 418.090909 204.736 
L 419.274545 205.128 
L 420.458182 203.168 
L 421.641818 198.856 
L 422.825455 198.464 
L 424.009091 202.384 
L 425.192727 209.832 
L 426.376364 209.44 
L 427.56 220.416 
L 429.927273 195.72 
L 431.110909 200.032 
L 432.294545 210.616 
L 433.478182 206.304 
L 434.661818 195.328 
L 435.845455 198.072 
L 435.845455 198.072 
" style="fill:none;stroke:#d62728;stroke-linecap:square;stroke-width:1.5;"/>
   </g>
   <g id="patch_3">
    <path d="M 63 448.56 
L 63 60.48 
" style="fill:none;stroke:#000000;stroke-linecap:square;stroke-linejoin:miter;stroke-width:0.8;"/>
   </g>
   <g id="patch_4">
    <path d="M 453.6 448.56 
L 453.6 60.48 
" style="fill:none;stroke:#000000;stroke-linecap:square;stroke-linejoin:miter;stroke-width:0.8;"/>
   </g>
   <g id="patch_5">
    <path d="M 63 448.56 
L 453.6 448.56 
" style="fill:none;stroke:#000000;stroke-linecap:square;stroke-linejoin:miter;stroke-width:0.8;"/>
   </g>
   <g id="patch_6">
    <path d="M 63 60.48 
L 453.6 60.48 
" style="fill:none;stroke:#000000;stroke-linecap:square;stroke-linejoin:miter;stroke-width:0.8;"/>
   </g>
   <g id="legend_1">
    <g id="patch_7">
     <path d="M 405.459375 127.1925 
L 446.6 127.1925 
Q 448.6 127.1925 448.6 125.1925 
L 448.6 67.48 
Q 448.6 65.48 446.6 65.48 
L 405.459375 65.48 
Q 403.459375 65.48 403.459375 67.48 
L 403.459375 125.1925 
Q 403.459375 127.1925 405.459375 127.1925 
z
" style="fill:#ffffff;opacity:0.8;stroke:#cccccc;stroke-linejoin:miter;"/>
    </g>
    <g id="line2d_29">
     <path d="M 407.459375 73.578438 
L 427.459375 73.578438 
" style="fill:none;stroke:#1f77b4;stroke-linecap:square;stroke-width:1.5;"/>
    </g>
    <g id="line2d_30"/>
    <g id="text_15">
     <!-- s -->
     <g transform="translate(435.459375 77.078438)scale(0.1 -0.1)">
      <defs>
       <path d="M 2834 3397 
L 2834 2853 
Q 2591 2978 2328 3040 
Q 2066 3103 1784 3103 
Q 1356 3103 1142 2972 
Q 928 2841 928 2578 
Q 928 2378 1081 2264 
Q 1234 2150 1697 2047 
L 1894 2003 
Q 2506 1872 2764 1633 
Q 3022 1394 3022 966 
Q 3022 478 2636 193 
Q 2250 -91 1575 -91 
Q 1294 -91 989 -36 
Q 684 19 347 128 
L 347 722 
Q 666 556 975 473 
Q 1284 391 1588 391 
Q 1994 391 2212 530 
Q 2431 669 2431 922 
Q 2431 1156 2273 1281 
Q 2116 1406 1581 1522 
L 1381 1569 
Q 847 1681 609 1914 
Q 372 2147 372 2553 
Q 372 3047 722 3315 
Q 1072 3584 1716 3584 
Q 2034 3584 2315 3537 
Q 2597 3491 2834 3397 
z
" id="DejaVuSans-73" transform="scale(0.015625)"/>
      </defs>
      <use xlink:href="#DejaVuSans-73"/>
     </g>
    </g>
    <g id="line2d_31">
     <path d="M 407.459375 88.256563 
L 427.459375 88.256563 
" style="fill:none;stroke:#ff7f0e;stroke-linecap:square;stroke-width:1.5;"/>
    </g>
    <g id="line2d_32"/>
    <g id="text_16">
     <!-- i1 -->
     <g transform="translate(435.459375 91.756563)scale(0.1 -0.1)">
      <use xlink:href="#DejaVuSans-69"/>
      <use x="27.783203" xlink:href="#DejaVuSans-31"/>
     </g>
    </g>
    <g id="line2d_33">
     <path d="M 407.459375 102.934688 
L 427.459375 102.934688 
" style="fill:none;stroke:#2ca02c;stroke-linecap:square;stroke-width:1.5;"/>
    </g>
    <g id="line2d_34"/>
    <g id="text_17">
     <!-- i2 -->
     <g transform="translate(435.459375 106.434688)scale(0.1 -0.1)">
      <use xlink:href="#DejaVuSans-69"/>
      <use x="27.783203" xlink:href="#DejaVuSans-32"/>
     </g>
    </g>
    <g id="line2d_35">
     <path d="M 407.459375 117.612813 
L 427.459375 117.612813 
" style="fill:none;stroke:#d62728;stroke-linecap:square;stroke-width:1.5;"/>
    </g>
    <g id="line2d_36"/>
    <g id="text_18">
     <!-- r -->
     <g transform="translate(435.459375 121.112813)scale(0.1 -0.1)">
      <use xlink:href="#DejaVuSans-72"/>
     </g>
    </g>
   </g>
  </g>
 </g>
 <defs>
  <clipPath id="pc6f6f69761">
   <rect height="388.08" width="390.6" x="63" y="60.48"/>
  </clipPath>
 </defs>
</svg>
