<?xml version="1.0" encoding="utf-8" standalone="no"?>
<!DOCTYPE svg PUBLIC "-//W3C//DTD SVG 1.1//EN"
  "http://www.w3.org/Graphics/SVG/1.1/DTD/svg11.dtd">
<svg height="504pt" version="1.1" viewBox="0 0 504 504" width="504pt" xmlns="http://www.w3.org/2000/svg" xmlns:xlink="http://www.w3.org/1999/xlink">
 <metadata>
  <rdf:RDF xmlns:cc="http://creativecommons.org/ns#" xmlns:dc="http://purl.org/dc/elements/1.1/" xmlns:rdf="http://www.w3.org/1999/02/22-rdf-syntax-ns#">
   <cc:Work>
    <dc:type rdf:resource="http://purl.org/dc/dcmitype/StillImage"/>
    <dc:date>2021-07-05T00:30:49.092383</dc:date>
    <dc:format>image/svg+xml</dc:format>
    <dc:creator>
     <cc:Agent>
      <dc:title>Matplotlib v3.4.2, https://matplotlib.org/</dc:title>
     </cc:Agent>
    </dc:creator>
   </cc:Work>
  </rdf:RDF>
 </metadata>
 <defs>
  <style type="text/css">*{stroke-linecap:butt;stroke-linejoin:round;}</style>
 </defs>
 <g id="figure_1">
  <g id="patch_1">
   <path d="M 0 504 
L 504 504 
L 504 0 
L 0 0 
z
" style="fill:#ffffff;"/>
  </g>
  <g id="axes_1">
   <g id="patch_2">
    <path d="M 63 448.56 
L 453.6 448.56 
L 453.6 60.48 
L 63 60.48 
z
" style="fill:#ffffff;"/>
   </g>
   <g id="matplotlib.axis_1">
    <g id="xtick_1">
     <g id="line2d_1">
      <path clip-path="url(#pc0a1b4f2d9)" d="M 80.754545 448.56 
L 80.754545 60.48 
" style="fill:none;stroke:#b0b0b0;stroke-linecap:square;stroke-width:0.8;"/>
     </g>
     <g id="line2d_2">
      <defs>
       <path d="M 0 0 
L 0 3.5 
" id="m795d4f5cc0" style="stroke:#000000;stroke-width:0.8;"/>
      </defs>
      <g>
       <use style="stroke:#000000;stroke-width:0.8;" x="80.754545" xlink:href="#m795d4f5cc0" y="448.56"/>
      </g>
     </g>
     <g id="text_1">
      <!-- 0 -->
      <g transform="translate(77.573295 463.158437)scale(0.1 -0.1)">
       <defs>
        <path d="M 2034 4250 
Q 1547 4250 1301 3770 
Q 1056 3291 1056 2328 
Q 1056 1369 1301 889 
Q 1547 409 2034 409 
Q 2525 409 2770 889 
Q 3016 1369 3016 2328 
Q 3016 3291 2770 3770 
Q 2525 4250 2034 4250 
z
M 2034 4750 
Q 2819 4750 3233 4129 
Q 3647 3509 3647 2328 
Q 3647 1150 3233 529 
Q 2819 -91 2034 -91 
Q 1250 -91 836 529 
Q 422 1150 422 2328 
Q 422 3509 836 4129 
Q 1250 4750 2034 4750 
z
" id="DejaVuSans-30" transform="scale(0.015625)"/>
       </defs>
       <use xlink:href="#DejaVuSans-30"/>
      </g>
     </g>
    </g>
    <g id="xtick_2">
     <g id="line2d_3">
      <path clip-path="url(#pc0a1b4f2d9)" d="M 136.2375 448.56 
L 136.2375 60.48 
" style="fill:none;stroke:#b0b0b0;stroke-linecap:square;stroke-width:0.8;"/>
     </g>
     <g id="line2d_4">
      <g>
       <use style="stroke:#000000;stroke-width:0.8;" x="136.2375" xlink:href="#m795d4f5cc0" y="448.56"/>
      </g>
     </g>
     <g id="text_2">
      <!-- 50 -->
      <g transform="translate(129.875 463.158437)scale(0.1 -0.1)">
       <defs>
        <path d="M 691 4666 
L 3169 4666 
L 3169 4134 
L 1269 4134 
L 1269 2991 
Q 1406 3038 1543 3061 
Q 1681 3084 1819 3084 
Q 2600 3084 3056 2656 
Q 3513 2228 3513 1497 
Q 3513 744 3044 326 
Q 2575 -91 1722 -91 
Q 1428 -91 1123 -41 
Q 819 9 494 109 
L 494 744 
Q 775 591 1075 516 
Q 1375 441 1709 441 
Q 2250 441 2565 725 
Q 2881 1009 2881 1497 
Q 2881 1984 2565 2268 
Q 2250 2553 1709 2553 
Q 1456 2553 1204 2497 
Q 953 2441 691 2322 
L 691 4666 
z
" id="DejaVuSans-35" transform="scale(0.015625)"/>
       </defs>
       <use xlink:href="#DejaVuSans-35"/>
       <use x="63.623047" xlink:href="#DejaVuSans-30"/>
      </g>
     </g>
    </g>
    <g id="xtick_3">
     <g id="line2d_5">
      <path clip-path="url(#pc0a1b4f2d9)" d="M 191.720455 448.56 
L 191.720455 60.48 
" style="fill:none;stroke:#b0b0b0;stroke-linecap:square;stroke-width:0.8;"/>
     </g>
     <g id="line2d_6">
      <g>
       <use style="stroke:#000000;stroke-width:0.8;" x="191.720455" xlink:href="#m795d4f5cc0" y="448.56"/>
      </g>
     </g>
     <g id="text_3">
      <!-- 100 -->
      <g transform="translate(182.176705 463.158437)scale(0.1 -0.1)">
       <defs>
        <path d="M 794 531 
L 1825 531 
L 1825 4091 
L 703 3866 
L 703 4441 
L 1819 4666 
L 2450 4666 
L 2450 531 
L 3481 531 
L 3481 0 
L 794 0 
L 794 531 
z
" id="DejaVuSans-31" transform="scale(0.015625)"/>
       </defs>
       <use xlink:href="#DejaVuSans-31"/>
       <use x="63.623047" xlink:href="#DejaVuSans-30"/>
       <use x="127.246094" xlink:href="#DejaVuSans-30"/>
      </g>
     </g>
    </g>
    <g id="xtick_4">
     <g id="line2d_7">
      <path clip-path="url(#pc0a1b4f2d9)" d="M 247.203409 448.56 
L 247.203409 60.48 
" style="fill:none;stroke:#b0b0b0;stroke-linecap:square;stroke-width:0.8;"/>
     </g>
     <g id="line2d_8">
      <g>
       <use style="stroke:#000000;stroke-width:0.8;" x="247.203409" xlink:href="#m795d4f5cc0" y="448.56"/>
      </g>
     </g>
     <g id="text_4">
      <!-- 150 -->
      <g transform="translate(237.659659 463.158437)scale(0.1 -0.1)">
       <use xlink:href="#DejaVuSans-31"/>
       <use x="63.623047" xlink:href="#DejaVuSans-35"/>
       <use x="127.246094" xlink:href="#DejaVuSans-30"/>
      </g>
     </g>
    </g>
    <g id="xtick_5">
     <g id="line2d_9">
      <path clip-path="url(#pc0a1b4f2d9)" d="M 302.686364 448.56 
L 302.686364 60.48 
" style="fill:none;stroke:#b0b0b0;stroke-linecap:square;stroke-width:0.8;"/>
     </g>
     <g id="line2d_10">
      <g>
       <use style="stroke:#000000;stroke-width:0.8;" x="302.686364" xlink:href="#m795d4f5cc0" y="448.56"/>
      </g>
     </g>
     <g id="text_5">
      <!-- 200 -->
      <g transform="translate(293.142614 463.158437)scale(0.1 -0.1)">
       <defs>
        <path d="M 1228 531 
L 3431 531 
L 3431 0 
L 469 0 
L 469 531 
Q 828 903 1448 1529 
Q 2069 2156 2228 2338 
Q 2531 2678 2651 2914 
Q 2772 3150 2772 3378 
Q 2772 3750 2511 3984 
Q 2250 4219 1831 4219 
Q 1534 4219 1204 4116 
Q 875 4013 500 3803 
L 500 4441 
Q 881 4594 1212 4672 
Q 1544 4750 1819 4750 
Q 2544 4750 2975 4387 
Q 3406 4025 3406 3419 
Q 3406 3131 3298 2873 
Q 3191 2616 2906 2266 
Q 2828 2175 2409 1742 
Q 1991 1309 1228 531 
z
" id="DejaVuSans-32" transform="scale(0.015625)"/>
       </defs>
       <use xlink:href="#DejaVuSans-32"/>
       <use x="63.623047" xlink:href="#DejaVuSans-30"/>
       <use x="127.246094" xlink:href="#DejaVuSans-30"/>
      </g>
     </g>
    </g>
    <g id="xtick_6">
     <g id="line2d_11">
      <path clip-path="url(#pc0a1b4f2d9)" d="M 358.169318 448.56 
L 358.169318 60.48 
" style="fill:none;stroke:#b0b0b0;stroke-linecap:square;stroke-width:0.8;"/>
     </g>
     <g id="line2d_12">
      <g>
       <use style="stroke:#000000;stroke-width:0.8;" x="358.169318" xlink:href="#m795d4f5cc0" y="448.56"/>
      </g>
     </g>
     <g id="text_6">
      <!-- 250 -->
      <g transform="translate(348.625568 463.158437)scale(0.1 -0.1)">
       <use xlink:href="#DejaVuSans-32"/>
       <use x="63.623047" xlink:href="#DejaVuSans-35"/>
       <use x="127.246094" xlink:href="#DejaVuSans-30"/>
      </g>
     </g>
    </g>
    <g id="xtick_7">
     <g id="line2d_13">
      <path clip-path="url(#pc0a1b4f2d9)" d="M 413.652273 448.56 
L 413.652273 60.48 
" style="fill:none;stroke:#b0b0b0;stroke-linecap:square;stroke-width:0.8;"/>
     </g>
     <g id="line2d_14">
      <g>
       <use style="stroke:#000000;stroke-width:0.8;" x="413.652273" xlink:href="#m795d4f5cc0" y="448.56"/>
      </g>
     </g>
     <g id="text_7">
      <!-- 300 -->
      <g transform="translate(404.108523 463.158437)scale(0.1 -0.1)">
       <defs>
        <path d="M 2597 2516 
Q 3050 2419 3304 2112 
Q 3559 1806 3559 1356 
Q 3559 666 3084 287 
Q 2609 -91 1734 -91 
Q 1441 -91 1130 -33 
Q 819 25 488 141 
L 488 750 
Q 750 597 1062 519 
Q 1375 441 1716 441 
Q 2309 441 2620 675 
Q 2931 909 2931 1356 
Q 2931 1769 2642 2001 
Q 2353 2234 1838 2234 
L 1294 2234 
L 1294 2753 
L 1863 2753 
Q 2328 2753 2575 2939 
Q 2822 3125 2822 3475 
Q 2822 3834 2567 4026 
Q 2313 4219 1838 4219 
Q 1578 4219 1281 4162 
Q 984 4106 628 3988 
L 628 4550 
Q 988 4650 1302 4700 
Q 1616 4750 1894 4750 
Q 2613 4750 3031 4423 
Q 3450 4097 3450 3541 
Q 3450 3153 3228 2886 
Q 3006 2619 2597 2516 
z
" id="DejaVuSans-33" transform="scale(0.015625)"/>
       </defs>
       <use xlink:href="#DejaVuSans-33"/>
       <use x="63.623047" xlink:href="#DejaVuSans-30"/>
       <use x="127.246094" xlink:href="#DejaVuSans-30"/>
      </g>
     </g>
    </g>
    <g id="text_8">
     <!-- Iteration -->
     <g transform="translate(237.091406 476.836563)scale(0.1 -0.1)">
      <defs>
       <path d="M 628 4666 
L 1259 4666 
L 1259 0 
L 628 0 
L 628 4666 
z
" id="DejaVuSans-49" transform="scale(0.015625)"/>
       <path d="M 1172 4494 
L 1172 3500 
L 2356 3500 
L 2356 3053 
L 1172 3053 
L 1172 1153 
Q 1172 725 1289 603 
Q 1406 481 1766 481 
L 2356 481 
L 2356 0 
L 1766 0 
Q 1100 0 847 248 
Q 594 497 594 1153 
L 594 3053 
L 172 3053 
L 172 3500 
L 594 3500 
L 594 4494 
L 1172 4494 
z
" id="DejaVuSans-74" transform="scale(0.015625)"/>
       <path d="M 3597 1894 
L 3597 1613 
L 953 1613 
Q 991 1019 1311 708 
Q 1631 397 2203 397 
Q 2534 397 2845 478 
Q 3156 559 3463 722 
L 3463 178 
Q 3153 47 2828 -22 
Q 2503 -91 2169 -91 
Q 1331 -91 842 396 
Q 353 884 353 1716 
Q 353 2575 817 3079 
Q 1281 3584 2069 3584 
Q 2775 3584 3186 3129 
Q 3597 2675 3597 1894 
z
M 3022 2063 
Q 3016 2534 2758 2815 
Q 2500 3097 2075 3097 
Q 1594 3097 1305 2825 
Q 1016 2553 972 2059 
L 3022 2063 
z
" id="DejaVuSans-65" transform="scale(0.015625)"/>
       <path d="M 2631 2963 
Q 2534 3019 2420 3045 
Q 2306 3072 2169 3072 
Q 1681 3072 1420 2755 
Q 1159 2438 1159 1844 
L 1159 0 
L 581 0 
L 581 3500 
L 1159 3500 
L 1159 2956 
Q 1341 3275 1631 3429 
Q 1922 3584 2338 3584 
Q 2397 3584 2469 3576 
Q 2541 3569 2628 3553 
L 2631 2963 
z
" id="DejaVuSans-72" transform="scale(0.015625)"/>
       <path d="M 2194 1759 
Q 1497 1759 1228 1600 
Q 959 1441 959 1056 
Q 959 750 1161 570 
Q 1363 391 1709 391 
Q 2188 391 2477 730 
Q 2766 1069 2766 1631 
L 2766 1759 
L 2194 1759 
z
M 3341 1997 
L 3341 0 
L 2766 0 
L 2766 531 
Q 2569 213 2275 61 
Q 1981 -91 1556 -91 
Q 1019 -91 701 211 
Q 384 513 384 1019 
Q 384 1609 779 1909 
Q 1175 2209 1959 2209 
L 2766 2209 
L 2766 2266 
Q 2766 2663 2505 2880 
Q 2244 3097 1772 3097 
Q 1472 3097 1187 3025 
Q 903 2953 641 2809 
L 641 3341 
Q 956 3463 1253 3523 
Q 1550 3584 1831 3584 
Q 2591 3584 2966 3190 
Q 3341 2797 3341 1997 
z
" id="DejaVuSans-61" transform="scale(0.015625)"/>
       <path d="M 603 3500 
L 1178 3500 
L 1178 0 
L 603 0 
L 603 3500 
z
M 603 4863 
L 1178 4863 
L 1178 4134 
L 603 4134 
L 603 4863 
z
" id="DejaVuSans-69" transform="scale(0.015625)"/>
       <path d="M 1959 3097 
Q 1497 3097 1228 2736 
Q 959 2375 959 1747 
Q 959 1119 1226 758 
Q 1494 397 1959 397 
Q 2419 397 2687 759 
Q 2956 1122 2956 1747 
Q 2956 2369 2687 2733 
Q 2419 3097 1959 3097 
z
M 1959 3584 
Q 2709 3584 3137 3096 
Q 3566 2609 3566 1747 
Q 3566 888 3137 398 
Q 2709 -91 1959 -91 
Q 1206 -91 779 398 
Q 353 888 353 1747 
Q 353 2609 779 3096 
Q 1206 3584 1959 3584 
z
" id="DejaVuSans-6f" transform="scale(0.015625)"/>
       <path d="M 3513 2113 
L 3513 0 
L 2938 0 
L 2938 2094 
Q 2938 2591 2744 2837 
Q 2550 3084 2163 3084 
Q 1697 3084 1428 2787 
Q 1159 2491 1159 1978 
L 1159 0 
L 581 0 
L 581 3500 
L 1159 3500 
L 1159 2956 
Q 1366 3272 1645 3428 
Q 1925 3584 2291 3584 
Q 2894 3584 3203 3211 
Q 3513 2838 3513 2113 
z
" id="DejaVuSans-6e" transform="scale(0.015625)"/>
      </defs>
      <use xlink:href="#DejaVuSans-49"/>
      <use x="29.492188" xlink:href="#DejaVuSans-74"/>
      <use x="68.701172" xlink:href="#DejaVuSans-65"/>
      <use x="130.224609" xlink:href="#DejaVuSans-72"/>
      <use x="171.337891" xlink:href="#DejaVuSans-61"/>
      <use x="232.617188" xlink:href="#DejaVuSans-74"/>
      <use x="271.826172" xlink:href="#DejaVuSans-69"/>
      <use x="299.609375" xlink:href="#DejaVuSans-6f"/>
      <use x="360.791016" xlink:href="#DejaVuSans-6e"/>
     </g>
    </g>
   </g>
   <g id="matplotlib.axis_2">
    <g id="ytick_1">
     <g id="line2d_15">
      <path clip-path="url(#pc0a1b4f2d9)" d="M 63 430.92 
L 453.6 430.92 
" style="fill:none;stroke:#b0b0b0;stroke-linecap:square;stroke-width:0.8;"/>
     </g>
     <g id="line2d_16">
      <defs>
       <path d="M 0 0 
L -3.5 0 
" id="m075284203f" style="stroke:#000000;stroke-width:0.8;"/>
      </defs>
      <g>
       <use style="stroke:#000000;stroke-width:0.8;" x="63" xlink:href="#m075284203f" y="430.92"/>
      </g>
     </g>
     <g id="text_9">
      <!-- 0 -->
      <g transform="translate(49.6375 434.719219)scale(0.1 -0.1)">
       <use xlink:href="#DejaVuSans-30"/>
      </g>
     </g>
    </g>
    <g id="ytick_2">
     <g id="line2d_17">
      <path clip-path="url(#pc0a1b4f2d9)" d="M 63 352.52 
L 453.6 352.52 
" style="fill:none;stroke:#b0b0b0;stroke-linecap:square;stroke-width:0.8;"/>
     </g>
     <g id="line2d_18">
      <g>
       <use style="stroke:#000000;stroke-width:0.8;" x="63" xlink:href="#m075284203f" y="352.52"/>
      </g>
     </g>
     <g id="text_10">
      <!-- 200 -->
      <g transform="translate(36.9125 356.319219)scale(0.1 -0.1)">
       <use xlink:href="#DejaVuSans-32"/>
       <use x="63.623047" xlink:href="#DejaVuSans-30"/>
       <use x="127.246094" xlink:href="#DejaVuSans-30"/>
      </g>
     </g>
    </g>
    <g id="ytick_3">
     <g id="line2d_19">
      <path clip-path="url(#pc0a1b4f2d9)" d="M 63 274.12 
L 453.6 274.12 
" style="fill:none;stroke:#b0b0b0;stroke-linecap:square;stroke-width:0.8;"/>
     </g>
     <g id="line2d_20">
      <g>
       <use style="stroke:#000000;stroke-width:0.8;" x="63" xlink:href="#m075284203f" y="274.12"/>
      </g>
     </g>
     <g id="text_11">
      <!-- 400 -->
      <g transform="translate(36.9125 277.919219)scale(0.1 -0.1)">
       <defs>
        <path d="M 2419 4116 
L 825 1625 
L 2419 1625 
L 2419 4116 
z
M 2253 4666 
L 3047 4666 
L 3047 1625 
L 3713 1625 
L 3713 1100 
L 3047 1100 
L 3047 0 
L 2419 0 
L 2419 1100 
L 313 1100 
L 313 1709 
L 2253 4666 
z
" id="DejaVuSans-34" transform="scale(0.015625)"/>
       </defs>
       <use xlink:href="#DejaVuSans-34"/>
       <use x="63.623047" xlink:href="#DejaVuSans-30"/>
       <use x="127.246094" xlink:href="#DejaVuSans-30"/>
      </g>
     </g>
    </g>
    <g id="ytick_4">
     <g id="line2d_21">
      <path clip-path="url(#pc0a1b4f2d9)" d="M 63 195.72 
L 453.6 195.72 
" style="fill:none;stroke:#b0b0b0;stroke-linecap:square;stroke-width:0.8;"/>
     </g>
     <g id="line2d_22">
      <g>
       <use style="stroke:#000000;stroke-width:0.8;" x="63" xlink:href="#m075284203f" y="195.72"/>
      </g>
     </g>
     <g id="text_12">
      <!-- 600 -->
      <g transform="translate(36.9125 199.519219)scale(0.1 -0.1)">
       <defs>
        <path d="M 2113 2584 
Q 1688 2584 1439 2293 
Q 1191 2003 1191 1497 
Q 1191 994 1439 701 
Q 1688 409 2113 409 
Q 2538 409 2786 701 
Q 3034 994 3034 1497 
Q 3034 2003 2786 2293 
Q 2538 2584 2113 2584 
z
M 3366 4563 
L 3366 3988 
Q 3128 4100 2886 4159 
Q 2644 4219 2406 4219 
Q 1781 4219 1451 3797 
Q 1122 3375 1075 2522 
Q 1259 2794 1537 2939 
Q 1816 3084 2150 3084 
Q 2853 3084 3261 2657 
Q 3669 2231 3669 1497 
Q 3669 778 3244 343 
Q 2819 -91 2113 -91 
Q 1303 -91 875 529 
Q 447 1150 447 2328 
Q 447 3434 972 4092 
Q 1497 4750 2381 4750 
Q 2619 4750 2861 4703 
Q 3103 4656 3366 4563 
z
" id="DejaVuSans-36" transform="scale(0.015625)"/>
       </defs>
       <use xlink:href="#DejaVuSans-36"/>
       <use x="63.623047" xlink:href="#DejaVuSans-30"/>
       <use x="127.246094" xlink:href="#DejaVuSans-30"/>
      </g>
     </g>
    </g>
    <g id="ytick_5">
     <g id="line2d_23">
      <path clip-path="url(#pc0a1b4f2d9)" d="M 63 117.32 
L 453.6 117.32 
" style="fill:none;stroke:#b0b0b0;stroke-linecap:square;stroke-width:0.8;"/>
     </g>
     <g id="line2d_24">
      <g>
       <use style="stroke:#000000;stroke-width:0.8;" x="63" xlink:href="#m075284203f" y="117.32"/>
      </g>
     </g>
     <g id="text_13">
      <!-- 800 -->
      <g transform="translate(36.9125 121.119219)scale(0.1 -0.1)">
       <defs>
        <path d="M 2034 2216 
Q 1584 2216 1326 1975 
Q 1069 1734 1069 1313 
Q 1069 891 1326 650 
Q 1584 409 2034 409 
Q 2484 409 2743 651 
Q 3003 894 3003 1313 
Q 3003 1734 2745 1975 
Q 2488 2216 2034 2216 
z
M 1403 2484 
Q 997 2584 770 2862 
Q 544 3141 544 3541 
Q 544 4100 942 4425 
Q 1341 4750 2034 4750 
Q 2731 4750 3128 4425 
Q 3525 4100 3525 3541 
Q 3525 3141 3298 2862 
Q 3072 2584 2669 2484 
Q 3125 2378 3379 2068 
Q 3634 1759 3634 1313 
Q 3634 634 3220 271 
Q 2806 -91 2034 -91 
Q 1263 -91 848 271 
Q 434 634 434 1313 
Q 434 1759 690 2068 
Q 947 2378 1403 2484 
z
M 1172 3481 
Q 1172 3119 1398 2916 
Q 1625 2713 2034 2713 
Q 2441 2713 2670 2916 
Q 2900 3119 2900 3481 
Q 2900 3844 2670 4047 
Q 2441 4250 2034 4250 
Q 1625 4250 1398 4047 
Q 1172 3844 1172 3481 
z
" id="DejaVuSans-38" transform="scale(0.015625)"/>
       </defs>
       <use xlink:href="#DejaVuSans-38"/>
       <use x="63.623047" xlink:href="#DejaVuSans-30"/>
       <use x="127.246094" xlink:href="#DejaVuSans-30"/>
      </g>
     </g>
    </g>
    <g id="text_14">
     <!-- Node count -->
     <g transform="translate(30.832812 283.266094)rotate(-90)scale(0.1 -0.1)">
      <defs>
       <path d="M 628 4666 
L 1478 4666 
L 3547 763 
L 3547 4666 
L 4159 4666 
L 4159 0 
L 3309 0 
L 1241 3903 
L 1241 0 
L 628 0 
L 628 4666 
z
" id="DejaVuSans-4e" transform="scale(0.015625)"/>
       <path d="M 2906 2969 
L 2906 4863 
L 3481 4863 
L 3481 0 
L 2906 0 
L 2906 525 
Q 2725 213 2448 61 
Q 2172 -91 1784 -91 
Q 1150 -91 751 415 
Q 353 922 353 1747 
Q 353 2572 751 3078 
Q 1150 3584 1784 3584 
Q 2172 3584 2448 3432 
Q 2725 3281 2906 2969 
z
M 947 1747 
Q 947 1113 1208 752 
Q 1469 391 1925 391 
Q 2381 391 2643 752 
Q 2906 1113 2906 1747 
Q 2906 2381 2643 2742 
Q 2381 3103 1925 3103 
Q 1469 3103 1208 2742 
Q 947 2381 947 1747 
z
" id="DejaVuSans-64" transform="scale(0.015625)"/>
       <path id="DejaVuSans-20" transform="scale(0.015625)"/>
       <path d="M 3122 3366 
L 3122 2828 
Q 2878 2963 2633 3030 
Q 2388 3097 2138 3097 
Q 1578 3097 1268 2742 
Q 959 2388 959 1747 
Q 959 1106 1268 751 
Q 1578 397 2138 397 
Q 2388 397 2633 464 
Q 2878 531 3122 666 
L 3122 134 
Q 2881 22 2623 -34 
Q 2366 -91 2075 -91 
Q 1284 -91 818 406 
Q 353 903 353 1747 
Q 353 2603 823 3093 
Q 1294 3584 2113 3584 
Q 2378 3584 2631 3529 
Q 2884 3475 3122 3366 
z
" id="DejaVuSans-63" transform="scale(0.015625)"/>
       <path d="M 544 1381 
L 544 3500 
L 1119 3500 
L 1119 1403 
Q 1119 906 1312 657 
Q 1506 409 1894 409 
Q 2359 409 2629 706 
Q 2900 1003 2900 1516 
L 2900 3500 
L 3475 3500 
L 3475 0 
L 2900 0 
L 2900 538 
Q 2691 219 2414 64 
Q 2138 -91 1772 -91 
Q 1169 -91 856 284 
Q 544 659 544 1381 
z
M 1991 3584 
L 1991 3584 
z
" id="DejaVuSans-75" transform="scale(0.015625)"/>
      </defs>
      <use xlink:href="#DejaVuSans-4e"/>
      <use x="74.804688" xlink:href="#DejaVuSans-6f"/>
      <use x="135.986328" xlink:href="#DejaVuSans-64"/>
      <use x="199.462891" xlink:href="#DejaVuSans-65"/>
      <use x="260.986328" xlink:href="#DejaVuSans-20"/>
      <use x="292.773438" xlink:href="#DejaVuSans-63"/>
      <use x="347.753906" xlink:href="#DejaVuSans-6f"/>
      <use x="408.935547" xlink:href="#DejaVuSans-75"/>
      <use x="472.314453" xlink:href="#DejaVuSans-6e"/>
      <use x="535.693359" xlink:href="#DejaVuSans-74"/>
     </g>
    </g>
   </g>
   <g id="line2d_25">
    <path clip-path="url(#pc0a1b4f2d9)" d="M 80.754545 78.12 
L 81.864205 80.08 
L 82.973864 83.608 
L 84.083523 85.176 
L 86.302841 89.096 
L 89.631818 100.464 
L 90.741477 103.992 
L 91.851136 106.736 
L 92.960795 110.264 
L 94.070455 113.4 
L 95.180114 116.144 
L 96.289773 116.928 
L 97.399432 120.456 
L 98.509091 123.2 
L 99.61875 125.16 
L 100.728409 126.728 
L 101.838068 130.256 
L 102.947727 131.432 
L 107.386364 140.84 
L 108.496023 141.624 
L 109.605682 144.368 
L 110.715341 146.328 
L 111.825 148.68 
L 112.934659 150.64 
L 114.044318 154.168 
L 115.153977 155.344 
L 116.263636 157.696 
L 117.373295 160.44 
L 118.482955 161.616 
L 119.592614 162.4 
L 120.702273 163.576 
L 121.811932 166.712 
L 122.921591 167.888 
L 124.03125 170.24 
L 125.140909 171.808 
L 126.250568 172.984 
L 127.360227 174.944 
L 128.469886 175.336 
L 129.579545 176.12 
L 130.689205 176.512 
L 132.908523 178.864 
L 134.018182 180.432 
L 135.127841 180.432 
L 136.2375 181.216 
L 137.347159 182.784 
L 139.566477 183.568 
L 140.676136 184.744 
L 141.785795 186.704 
L 142.895455 187.488 
L 144.005114 188.664 
L 145.114773 189.448 
L 146.224432 191.408 
L 147.334091 192.192 
L 148.44375 192.192 
L 150.663068 194.544 
L 152.882386 195.328 
L 153.992045 195.328 
L 155.101705 195.72 
L 156.211364 196.896 
L 160.65 198.464 
L 161.759659 199.248 
L 162.869318 199.64 
L 163.978977 200.816 
L 165.088636 200.816 
L 166.198295 201.6 
L 167.307955 201.992 
L 169.527273 203.56 
L 170.636932 203.952 
L 171.746591 205.128 
L 173.965909 206.696 
L 175.075568 207.872 
L 177.294886 209.44 
L 178.404545 209.44 
L 179.514205 210.224 
L 180.623864 210.616 
L 183.952841 210.616 
L 185.0625 211.4 
L 186.172159 212.576 
L 187.281818 214.144 
L 189.501136 214.928 
L 191.720455 214.928 
L 192.830114 215.712 
L 193.939773 215.712 
L 195.049432 216.888 
L 196.159091 217.28 
L 197.26875 218.064 
L 198.378409 218.064 
L 201.707386 219.24 
L 202.817045 220.024 
L 205.036364 220.808 
L 206.146023 222.376 
L 207.255682 223.16 
L 208.365341 223.16 
L 211.694318 224.336 
L 215.023295 224.336 
L 216.132955 224.728 
L 217.242614 224.728 
L 218.352273 225.904 
L 219.461932 225.904 
L 220.571591 226.296 
L 222.790909 228.648 
L 223.900568 230.216 
L 225.010227 230.608 
L 226.119886 231.392 
L 228.339205 231.392 
L 229.448864 232.176 
L 230.558523 232.176 
L 231.668182 232.96 
L 232.777841 233.352 
L 233.8875 233.352 
L 234.997159 233.744 
L 237.216477 233.744 
L 238.326136 234.136 
L 239.435795 234.136 
L 240.545455 234.92 
L 243.874432 234.92 
L 246.09375 235.704 
L 247.203409 235.704 
L 248.313068 236.096 
L 249.422727 236.88 
L 251.642045 237.664 
L 252.751705 237.664 
L 256.080682 240.016 
L 259.409659 240.016 
L 260.519318 240.408 
L 262.738636 240.408 
L 263.848295 240.8 
L 267.177273 240.8 
L 269.396591 241.584 
L 271.615909 241.584 
L 272.725568 242.368 
L 281.602841 242.368 
L 282.7125 243.152 
L 284.931818 243.152 
L 286.041477 243.544 
L 291.589773 243.544 
L 294.91875 244.72 
L 296.028409 244.72 
L 297.138068 245.112 
L 298.247727 245.896 
L 300.467045 245.896 
L 301.576705 246.288 
L 302.686364 246.288 
L 303.796023 246.68 
L 310.453977 246.68 
L 311.563636 247.072 
L 322.660227 247.072 
L 323.769886 247.464 
L 330.427841 247.464 
L 331.5375 249.032 
L 335.976136 249.032 
L 337.085795 249.424 
L 354.840341 249.424 
L 355.95 249.816 
L 358.169318 249.816 
L 359.278977 250.208 
L 372.594886 250.208 
L 373.704545 250.992 
L 374.814205 251.384 
L 392.56875 251.384 
L 393.678409 251.776 
L 395.897727 251.776 
L 397.007386 252.168 
L 401.446023 252.168 
L 402.555682 252.56 
L 405.884659 252.56 
L 406.994318 252.952 
L 435.845455 252.952 
L 435.845455 252.952 
" style="fill:none;stroke:#1f77b4;stroke-linecap:square;stroke-width:1.5;"/>
   </g>
   <g id="line2d_26">
    <path clip-path="url(#pc0a1b4f2d9)" d="M 80.754545 391.72 
L 81.864205 390.936 
L 82.973864 389.76 
L 84.083523 391.72 
L 86.302841 390.152 
L 87.4125 388.192 
L 88.522159 387.8 
L 89.631818 386.232 
L 91.851136 384.664 
L 92.960795 383.096 
L 95.180114 380.744 
L 96.289773 381.92 
L 97.399432 380.744 
L 98.509091 379.96 
L 99.61875 380.352 
L 100.728409 381.528 
L 101.838068 381.528 
L 102.947727 383.88 
L 104.057386 384.272 
L 105.167045 383.88 
L 106.276705 385.056 
L 107.386364 383.88 
L 109.605682 383.096 
L 110.715341 383.096 
L 111.825 383.488 
L 112.934659 384.664 
L 114.044318 383.488 
L 115.153977 386.624 
L 116.263636 387.8 
L 117.373295 387.016 
L 118.482955 388.976 
L 119.592614 390.544 
L 120.702273 390.936 
L 121.811932 389.76 
L 122.921591 390.936 
L 124.03125 390.936 
L 125.140909 391.72 
L 126.250568 393.68 
L 128.469886 396.816 
L 129.579545 397.992 
L 130.689205 398.776 
L 131.798864 397.992 
L 132.908523 398.776 
L 134.018182 399.952 
L 135.127841 401.52 
L 136.2375 401.912 
L 137.347159 401.52 
L 138.456818 403.48 
L 139.566477 404.264 
L 140.676136 404.656 
L 141.785795 404.264 
L 142.895455 404.264 
L 144.005114 405.048 
L 145.114773 405.048 
L 146.224432 404.264 
L 147.334091 405.44 
L 148.44375 406.224 
L 150.663068 406.224 
L 151.772727 406.616 
L 152.882386 407.792 
L 153.992045 408.576 
L 155.101705 410.928 
L 156.211364 410.144 
L 157.321023 410.144 
L 158.430682 409.752 
L 159.540341 410.928 
L 160.65 411.32 
L 162.869318 410.536 
L 163.978977 411.32 
L 165.088636 412.496 
L 166.198295 412.496 
L 167.307955 413.28 
L 169.527273 414.064 
L 172.85625 414.064 
L 173.965909 413.672 
L 176.185227 413.672 
L 177.294886 414.064 
L 178.404545 414.848 
L 179.514205 414.064 
L 180.623864 414.848 
L 182.843182 414.848 
L 183.952841 415.632 
L 185.0625 414.848 
L 186.172159 414.848 
L 187.281818 414.456 
L 188.391477 414.848 
L 189.501136 414.848 
L 190.610795 415.24 
L 191.720455 417.984 
L 192.830114 418.376 
L 193.939773 418.376 
L 195.049432 417.592 
L 197.26875 416.808 
L 198.378409 417.984 
L 199.488068 418.768 
L 200.597727 419.16 
L 202.817045 419.16 
L 203.926705 419.944 
L 205.036364 419.944 
L 206.146023 418.768 
L 207.255682 418.376 
L 208.365341 418.768 
L 209.475 419.552 
L 210.584659 419.944 
L 212.803977 419.944 
L 213.913636 420.336 
L 216.132955 420.336 
L 217.242614 421.12 
L 218.352273 419.944 
L 220.571591 420.728 
L 223.900568 417.2 
L 226.119886 416.416 
L 227.229545 416.416 
L 228.339205 417.2 
L 229.448864 417.592 
L 230.558523 419.552 
L 232.777841 420.336 
L 233.8875 421.12 
L 234.997159 421.12 
L 237.216477 421.904 
L 238.326136 421.512 
L 239.435795 422.688 
L 240.545455 421.904 
L 241.655114 421.904 
L 244.984091 423.08 
L 246.09375 422.688 
L 250.532386 422.688 
L 251.642045 422.296 
L 252.751705 423.864 
L 253.861364 423.864 
L 254.971023 423.08 
L 256.080682 422.688 
L 259.409659 425.04 
L 260.519318 425.04 
L 261.628977 425.824 
L 262.738636 426.216 
L 263.848295 425.824 
L 266.067614 425.824 
L 267.177273 426.216 
L 268.286932 426.216 
L 269.396591 425.824 
L 270.50625 425.824 
L 271.615909 426.216 
L 272.725568 425.824 
L 273.835227 425.824 
L 274.944886 426.608 
L 276.054545 426.608 
L 277.164205 427 
L 281.602841 427 
L 282.7125 426.216 
L 284.931818 426.216 
L 286.041477 425.824 
L 288.260795 426.608 
L 289.370455 426.608 
L 290.480114 427 
L 296.028409 427 
L 297.138068 427.392 
L 298.247727 426.608 
L 300.467045 426.608 
L 301.576705 426.216 
L 302.686364 426.216 
L 303.796023 425.824 
L 304.905682 426.608 
L 306.015341 427 
L 307.125 427 
L 308.234659 427.392 
L 310.453977 427.392 
L 311.563636 427 
L 312.673295 427 
L 314.892614 427.784 
L 317.111932 427.784 
L 319.33125 428.568 
L 322.660227 428.568 
L 323.769886 428.176 
L 325.989205 428.176 
L 327.098864 428.568 
L 328.208523 428.568 
L 330.427841 429.352 
L 331.5375 428.176 
L 332.647159 428.176 
L 333.756818 428.568 
L 335.976136 428.568 
L 337.085795 428.176 
L 338.195455 428.176 
L 339.305114 428.568 
L 341.524432 428.568 
L 343.74375 429.352 
L 344.853409 429.352 
L 345.963068 429.744 
L 358.169318 429.744 
L 359.278977 429.352 
L 372.594886 429.352 
L 373.704545 428.568 
L 377.033523 428.568 
L 378.143182 428.96 
L 379.252841 428.96 
L 380.3625 429.352 
L 385.910795 429.352 
L 387.020455 429.744 
L 392.56875 429.744 
L 393.678409 429.352 
L 395.897727 429.352 
L 397.007386 428.96 
L 398.117045 428.96 
L 399.226705 429.352 
L 401.446023 429.352 
L 402.555682 428.96 
L 403.665341 429.352 
L 405.884659 429.352 
L 406.994318 428.96 
L 411.432955 428.96 
L 412.542614 429.352 
L 415.871591 429.352 
L 416.98125 429.744 
L 422.529545 429.744 
L 423.639205 430.136 
L 424.748864 430.136 
L 425.858523 430.528 
L 434.735795 430.528 
L 435.845455 430.92 
L 435.845455 430.92 
" style="fill:none;stroke:#ff7f0e;stroke-linecap:square;stroke-width:1.5;"/>
   </g>
   <g id="line2d_27">
    <path clip-path="url(#pc0a1b4f2d9)" d="M 80.754545 430.92 
L 81.864205 429.744 
L 82.973864 427.392 
L 84.083523 423.864 
L 86.302841 421.512 
L 87.4125 419.552 
L 88.522159 416.024 
L 89.631818 414.064 
L 90.741477 411.32 
L 94.070455 405.44 
L 95.180114 403.872 
L 96.289773 401.912 
L 97.399432 399.56 
L 98.509091 397.6 
L 99.61875 395.248 
L 100.728409 392.504 
L 102.947727 385.448 
L 104.057386 382.704 
L 105.167045 380.744 
L 106.276705 377.216 
L 107.386364 376.04 
L 108.496023 375.648 
L 109.605682 373.296 
L 110.715341 371.336 
L 111.825 368.592 
L 112.934659 365.456 
L 114.044318 363.104 
L 115.153977 358.792 
L 116.263636 355.264 
L 117.373295 353.304 
L 118.482955 350.168 
L 119.592614 347.816 
L 120.702273 346.248 
L 121.811932 344.288 
L 125.140909 337.232 
L 126.250568 334.096 
L 127.360227 330.568 
L 129.579545 326.648 
L 130.689205 325.472 
L 131.798864 325.08 
L 132.908523 323.12 
L 134.018182 320.376 
L 135.127841 318.808 
L 137.347159 316.456 
L 138.456818 314.104 
L 139.566477 312.928 
L 141.785795 309.792 
L 142.895455 309.008 
L 144.005114 307.048 
L 145.114773 306.264 
L 146.224432 305.088 
L 147.334091 303.128 
L 148.44375 302.344 
L 150.663068 299.992 
L 151.772727 299.208 
L 152.882386 297.64 
L 153.992045 296.856 
L 155.101705 294.112 
L 157.321023 293.328 
L 158.430682 293.328 
L 159.540341 291.76 
L 160.65 290.976 
L 161.759659 290.584 
L 162.869318 290.584 
L 163.978977 288.624 
L 165.088636 287.448 
L 166.198295 286.664 
L 169.527273 283.136 
L 170.636932 282.744 
L 171.746591 281.568 
L 172.85625 280.784 
L 173.965909 280.392 
L 175.075568 279.216 
L 176.185227 278.432 
L 177.294886 277.256 
L 178.404545 276.472 
L 179.514205 276.472 
L 180.623864 275.296 
L 182.843182 275.296 
L 183.952841 274.512 
L 185.0625 274.512 
L 187.281818 272.16 
L 188.391477 271.376 
L 190.610795 270.592 
L 191.720455 267.848 
L 192.830114 266.672 
L 193.939773 266.672 
L 195.049432 266.28 
L 196.159091 266.28 
L 197.26875 265.888 
L 199.488068 263.536 
L 200.597727 262.752 
L 201.707386 262.36 
L 202.817045 261.576 
L 203.926705 260.4 
L 208.365341 258.832 
L 209.475 257.656 
L 210.584659 256.872 
L 211.694318 256.48 
L 212.803977 256.48 
L 213.913636 256.088 
L 215.023295 256.088 
L 216.132955 255.696 
L 217.242614 254.912 
L 218.352273 254.912 
L 219.461932 254.52 
L 220.571591 253.736 
L 222.790909 253.736 
L 223.900568 253.344 
L 225.010227 253.344 
L 226.119886 252.952 
L 227.229545 252.952 
L 228.339205 252.168 
L 229.448864 250.992 
L 230.558523 249.032 
L 231.668182 247.856 
L 233.8875 246.288 
L 237.216477 245.112 
L 238.326136 245.112 
L 239.435795 243.936 
L 241.655114 243.936 
L 243.874432 243.152 
L 244.984091 242.368 
L 247.203409 242.368 
L 248.313068 241.976 
L 249.422727 241.192 
L 250.532386 240.8 
L 251.642045 240.8 
L 252.751705 239.232 
L 253.861364 238.448 
L 254.971023 238.448 
L 256.080682 238.056 
L 259.409659 235.704 
L 260.519318 235.312 
L 261.628977 234.528 
L 262.738636 234.136 
L 266.067614 234.136 
L 268.286932 233.352 
L 270.50625 233.352 
L 272.725568 232.568 
L 273.835227 232.568 
L 274.944886 231.784 
L 276.054545 231.784 
L 277.164205 231.392 
L 286.041477 231.392 
L 288.260795 230.608 
L 289.370455 230.608 
L 290.480114 230.216 
L 291.589773 230.216 
L 294.91875 229.04 
L 296.028409 229.04 
L 297.138068 228.256 
L 303.796023 228.256 
L 304.905682 227.472 
L 306.015341 227.08 
L 307.125 227.08 
L 308.234659 226.688 
L 312.673295 226.688 
L 314.892614 225.904 
L 317.111932 225.904 
L 319.33125 225.12 
L 325.989205 225.12 
L 327.098864 224.728 
L 328.208523 224.728 
L 331.5375 223.552 
L 332.647159 223.552 
L 333.756818 223.16 
L 338.195455 223.16 
L 339.305114 222.768 
L 341.524432 222.768 
L 343.74375 221.984 
L 344.853409 221.984 
L 345.963068 221.592 
L 354.840341 221.592 
L 355.95 221.2 
L 373.704545 221.2 
L 374.814205 220.808 
L 377.033523 220.808 
L 378.143182 220.416 
L 379.252841 220.416 
L 380.3625 220.024 
L 385.910795 220.024 
L 387.020455 219.632 
L 398.117045 219.632 
L 399.226705 219.24 
L 402.555682 219.24 
L 403.665341 218.848 
L 411.432955 218.848 
L 412.542614 218.456 
L 415.871591 218.456 
L 416.98125 218.064 
L 422.529545 218.064 
L 423.639205 217.672 
L 424.748864 217.672 
L 425.858523 217.28 
L 434.735795 217.28 
L 435.845455 216.888 
L 435.845455 216.888 
" style="fill:none;stroke:#2ca02c;stroke-linecap:square;stroke-width:1.5;"/>
   </g>
   <g id="patch_3">
    <path d="M 63 448.56 
L 63 60.48 
" style="fill:none;stroke:#000000;stroke-linecap:square;stroke-linejoin:miter;stroke-width:0.8;"/>
   </g>
   <g id="patch_4">
    <path d="M 453.6 448.56 
L 453.6 60.48 
" style="fill:none;stroke:#000000;stroke-linecap:square;stroke-linejoin:miter;stroke-width:0.8;"/>
   </g>
   <g id="patch_5">
    <path d="M 63 448.56 
L 453.6 448.56 
" style="fill:none;stroke:#000000;stroke-linecap:square;stroke-linejoin:miter;stroke-width:0.8;"/>
   </g>
   <g id="patch_6">
    <path d="M 63 60.48 
L 453.6 60.48 
" style="fill:none;stroke:#000000;stroke-linecap:square;stroke-linejoin:miter;stroke-width:0.8;"/>
   </g>
   <g id="legend_1">
    <g id="patch_7">
     <path d="M 409.390625 112.514375 
L 446.6 112.514375 
Q 448.6 112.514375 448.6 110.514375 
L 448.6 67.48 
Q 448.6 65.48 446.6 65.48 
L 409.390625 65.48 
Q 407.390625 65.48 407.390625 67.48 
L 407.390625 110.514375 
Q 407.390625 112.514375 409.390625 112.514375 
z
" style="fill:#ffffff;opacity:0.8;stroke:#cccccc;stroke-linejoin:miter;"/>
    </g>
    <g id="line2d_28">
     <path d="M 411.390625 73.578438 
L 431.390625 73.578438 
" style="fill:none;stroke:#1f77b4;stroke-linecap:square;stroke-width:1.5;"/>
    </g>
    <g id="line2d_29"/>
    <g id="text_15">
     <!-- s -->
     <g transform="translate(439.390625 77.078438)scale(0.1 -0.1)">
      <defs>
       <path d="M 2834 3397 
L 2834 2853 
Q 2591 2978 2328 3040 
Q 2066 3103 1784 3103 
Q 1356 3103 1142 2972 
Q 928 2841 928 2578 
Q 928 2378 1081 2264 
Q 1234 2150 1697 2047 
L 1894 2003 
Q 2506 1872 2764 1633 
Q 3022 1394 3022 966 
Q 3022 478 2636 193 
Q 2250 -91 1575 -91 
Q 1294 -91 989 -36 
Q 684 19 347 128 
L 347 722 
Q 666 556 975 473 
Q 1284 391 1588 391 
Q 1994 391 2212 530 
Q 2431 669 2431 922 
Q 2431 1156 2273 1281 
Q 2116 1406 1581 1522 
L 1381 1569 
Q 847 1681 609 1914 
Q 372 2147 372 2553 
Q 372 3047 722 3315 
Q 1072 3584 1716 3584 
Q 2034 3584 2315 3537 
Q 2597 3491 2834 3397 
z
" id="DejaVuSans-73" transform="scale(0.015625)"/>
      </defs>
      <use xlink:href="#DejaVuSans-73"/>
     </g>
    </g>
    <g id="line2d_30">
     <path d="M 411.390625 88.256563 
L 431.390625 88.256563 
" style="fill:none;stroke:#ff7f0e;stroke-linecap:square;stroke-width:1.5;"/>
    </g>
    <g id="line2d_31"/>
    <g id="text_16">
     <!-- i -->
     <g transform="translate(439.390625 91.756563)scale(0.1 -0.1)">
      <use xlink:href="#DejaVuSans-69"/>
     </g>
    </g>
    <g id="line2d_32">
     <path d="M 411.390625 102.934687 
L 431.390625 102.934687 
" style="fill:none;stroke:#2ca02c;stroke-linecap:square;stroke-width:1.5;"/>
    </g>
    <g id="line2d_33"/>
    <g id="text_17">
     <!-- r -->
     <g transform="translate(439.390625 106.434687)scale(0.1 -0.1)">
      <use xlink:href="#DejaVuSans-72"/>
     </g>
    </g>
   </g>
  </g>
 </g>
 <defs>
  <clipPath id="pc0a1b4f2d9">
   <rect height="388.08" width="390.6" x="63" y="60.48"/>
  </clipPath>
 </defs>
</svg>
